STARTFONT 2.1
COMMENT
COMMENT Converted from OpenType font "BeVietnam-Italic.ttf" by "otf2bdf 3.0".
COMMENT
FONT -FreeType-Be Vietnam-Medium-I-Normal--44-320-100-100-P-226-ISO10646-1
SIZE 32 100 100
FONTBOUNDINGBOX 64 60 -11 -11
STARTPROPERTIES 19
FOUNDRY "FreeType"
FAMILY_NAME "Be Vietnam"
WEIGHT_NAME "Medium"
SLANT "I"
SETWIDTH_NAME "Normal"
ADD_STYLE_NAME ""
PIXEL_SIZE 44
POINT_SIZE 320
RESOLUTION_X 100
RESOLUTION_Y 100
SPACING "P"
AVERAGE_WIDTH 226
CHARSET_REGISTRY "ISO10646"
CHARSET_ENCODING "1"
FONT_ASCENT 52
FONT_DESCENT 11
COPYRIGHT "Copyright 2019 The Bevietnam Project Authors (https://github.com/bettergui/beVietnam)"
_OTF_FONTFILE "BeVietnam-Italic.ttf"
_OTF_PSNAME "BeVietnam-Italic"
ENDPROPERTIES
CHARS 445
STARTCHAR 000D
ENCODING 13
SWIDTH 585 0
DWIDTH 26 0
BBX 0 0 0 0
BITMAP
ENDCHAR
STARTCHAR 0020
ENCODING 32
SWIDTH 225 0
DWIDTH 10 0
BBX 0 0 0 0
BITMAP
ENDCHAR
STARTCHAR 0021
ENCODING 33
SWIDTH 225 0
DWIDTH 10 0
BBX 10 33 3 0
BITMAP
03C0
03C0
07C0
0780
0780
0780
0780
0780
0700
0F00
0F00
0F00
0F00
0E00
0E00
0E00
0E00
1E00
1C00
1C00
1C00
1C00
1C00
1800
1800
0000
0000
0000
0000
7800
F800
F800
7000
ENDCHAR
STARTCHAR 0022
ENCODING 34
SWIDTH 540 0
DWIDTH 24 0
BBX 15 11 7 22
BITMAP
0602
0C06
381C
3018
6030
6030
7038
7C3E
FC7E
FC7E
783C
ENDCHAR
STARTCHAR 0023
ENCODING 35
SWIDTH 877 0
DWIDTH 39 0
BBX 34 31 5 0
BITMAP
0000E01E00
0001E01C00
0001C03C00
0003C03800
0003803800
0003807800
0007807000
000700F000
000700E000
07FFFFFFC0
0FFFFFFF80
0FFFFFFF80
001C01C000
001C038000
003C038000
0038078000
0078070000
0070070000
00700F0000
00F00E0000
7FFFFFFC00
FFFFFFFC00
FFFFFFF800
01C03C0000
03C0380000
0380780000
0380700000
0780700000
0700F00000
0F00E00000
0E00E00000
ENDCHAR
STARTCHAR 0024
ENCODING 36
SWIDTH 562 0
DWIDTH 25 0
BBX 23 37 4 -3
BITMAP
000200
000600
000600
001F80
00FFF0
03FFF8
07F5F8
0F8C7C
0F0C3C
1E0C3E
1E0C1E
1C081E
3C081E
3C1800
3E1800
1F1800
1FF800
0FFE00
07FFC0
00FFE0
0037F0
0030F8
003078
002078
F02078
F06078
F06078
F06070
F860F0
F841E0
7EC7C0
3FFF80
1FFF00
07FC00
00C000
008000
018000
ENDCHAR
STARTCHAR 0025
ENCODING 37
SWIDTH 810 0
DWIDTH 36 0
BBX 30 32 6 0
BITMAP
02000000
1FC000E0
3FE001C0
70E003C0
E0700380
E0700700
E0700F00
E0701E00
E0E01C00
E0E03800
E1C07800
7F807000
7F00E000
0001E000
0001C000
00038000
00078000
00070000
000E0000
001E0000
001C03F8
003807FC
00780E1C
00F01C0C
00E01C0C
01E0380C
03C0381C
0380381C
0700381C
0F001C38
0E001FF0
1C000FE0
ENDCHAR
STARTCHAR 0026
ENCODING 38
SWIDTH 630 0
DWIDTH 28 0
BBX 25 32 4 0
BITMAP
0003C000
000FF800
003FFC00
007FFE00
00F81F00
00F01F00
01E00F00
01E00F00
01E00F00
01C00F00
01E00000
01E00000
01F00000
00F00000
00780000
007C0000
03FC0780
0FFE0F00
1F1F1E00
3C0F1C00
7807BC00
7007F800
F003F000
F001E000
E001F000
F003F800
F007F800
F00F3C00
FC3E3E00
7FFC1F00
3FF80F00
1FE00780
ENDCHAR
STARTCHAR 0027
ENCODING 39
SWIDTH 292 0
DWIDTH 13 0
BBX 6 11 6 22
BITMAP
3C
7C
7C
7C
3C
0C
0C
18
18
70
C0
ENDCHAR
STARTCHAR 0028
ENCODING 40
SWIDTH 450 0
DWIDTH 20 0
BBX 16 44 7 -9
BITMAP
0003
000E
001C
0038
0078
00F0
01E0
01C0
03C0
0780
0700
0F00
1E00
1E00
3C00
3C00
3C00
7800
7800
7800
F000
F000
F000
F000
F000
F000
F000
F000
F000
F000
F000
F000
F000
F000
7000
7000
7800
3800
3800
1C00
1C00
0E00
0700
0300
ENDCHAR
STARTCHAR 0029
ENCODING 41
SWIDTH 450 0
DWIDTH 20 0
BBX 15 44 3 -9
BITMAP
0180
01C0
01C0
00E0
0070
0070
0038
0038
003C
001C
001C
001E
001E
001E
001E
001E
001E
001E
001E
001E
001E
001E
001E
001E
001E
003C
003C
003C
0078
0078
0070
00F0
00E0
01E0
01C0
03C0
0780
0700
0E00
1E00
3C00
3800
7000
C000
ENDCHAR
STARTCHAR 002A
ENCODING 42
SWIDTH 472 0
DWIDTH 21 0
BBX 16 16 8 18
BITMAP
00E0
00E0
00C0
30C3
78CF
7D9F
1FF8
07E0
0FE0
3FF8
FB3E
E31C
C308
0700
0700
0600
ENDCHAR
STARTCHAR 002B
ENCODING 43
SWIDTH 562 0
DWIDTH 25 0
BBX 18 18 6 5
BITMAP
007000
007000
007000
00F000
00F000
00F000
00E000
7FFFC0
7FFFC0
FFFFC0
FFFFC0
01C000
01C000
01C000
01C000
03C000
03C000
038000
ENDCHAR
STARTCHAR 002C
ENCODING 44
SWIDTH 270 0
DWIDTH 12 0
BBX 7 12 3 -7
BITMAP
18
7C
7E
7E
7C
0C
0C
0C
18
30
E0
C0
ENDCHAR
STARTCHAR 002D
ENCODING 45
SWIDTH 585 0
DWIDTH 26 0
BBX 17 3 9 12
BITMAP
7FFF80
7FFF80
FFFF80
ENDCHAR
STARTCHAR 002E
ENCODING 46
SWIDTH 270 0
DWIDTH 12 0
BBX 5 5 4 0
BITMAP
30
F8
F8
F8
F0
ENDCHAR
STARTCHAR 002F
ENCODING 47
SWIDTH 495 0
DWIDTH 22 0
BBX 28 43 1 -7
BITMAP
00000070
000000F0
000000E0
000001E0
000003C0
000003C0
00000780
00000700
00000F00
00001E00
00001E00
00003C00
00003800
00007800
0000F000
0000F000
0001E000
0001C000
0003C000
00078000
00078000
000F0000
000E0000
001E0000
001C0000
003C0000
00780000
00780000
00F00000
00E00000
01E00000
03C00000
03C00000
07800000
07000000
0F000000
1E000000
1E000000
3C000000
38000000
78000000
F0000000
F0000000
ENDCHAR
STARTCHAR 0030
ENCODING 48
SWIDTH 585 0
DWIDTH 26 0
BBX 24 32 4 0
BITMAP
000F80
007FF0
00FFF8
03FFFC
07E07E
07803E
0F001E
1F001F
1E000F
1E000F
3C000F
3C000F
3C000F
7C000F
78001F
78001E
78001E
78001E
78001E
F8003E
F0003C
F0003C
F0003C
F00078
F80078
F800F8
7801F0
7C03E0
3E07C0
3FFF80
1FFF00
07FC00
ENDCHAR
STARTCHAR 0031
ENCODING 49
SWIDTH 472 0
DWIDTH 21 0
BBX 16 31 4 0
BITMAP
001E
003E
00FE
01FE
03FE
07DE
0F1C
0E1C
0C3C
083C
003C
003C
0038
0038
0078
0078
0078
0070
0070
0070
00F0
00F0
00F0
00E0
00E0
01E0
01E0
01E0
7FFF
FFFF
FFFF
ENDCHAR
STARTCHAR 0032
ENCODING 50
SWIDTH 585 0
DWIDTH 26 0
BBX 24 32 3 0
BITMAP
0003E0
003FF8
007FFC
00FFFE
01F01F
03C00F
07800F
078007
070007
0F0007
0F000F
00000F
00001E
00001E
00003C
000078
0000F8
0001F0
0003E0
000780
001F00
003E00
007C00
01F000
03E000
07C000
1F0000
3E0000
7C0000
7FFFF8
FFFFF8
FFFFF8
ENDCHAR
STARTCHAR 0033
ENCODING 51
SWIDTH 585 0
DWIDTH 26 0
BBX 23 32 4 0
BITMAP
000FC0
007FF0
01FFFC
03FFFC
07C03E
07801E
0F001E
0E000E
00000E
00001E
00001E
00001E
00003C
0000F8
007FF0
007FC0
007FC0
000FF0
0000F0
000078
000078
000038
000038
000078
F00078
F00078
F800F0
7801F0
7E0FE0
3FFFC0
1FFF00
0FFC00
ENDCHAR
STARTCHAR 0034
ENCODING 52
SWIDTH 585 0
DWIDTH 26 0
BBX 23 31 3 0
BITMAP
00007C
0000FC
0001FC
0001FC
0003FC
0007B8
000F38
001E78
003E78
003C78
007878
00F070
01E070
03C0F0
0780F0
0F80F0
0F00F0
1E00E0
3C01E0
7801E0
7FFFFE
7FFFFE
FFFFFE
0001C0
0003C0
0003C0
0003C0
0003C0
0003C0
000380
000780
ENDCHAR
STARTCHAR 0035
ENCODING 53
SWIDTH 585 0
DWIDTH 26 0
BBX 23 31 5 0
BITMAP
07FFFE
07FFFC
0FFFFC
0F0000
0E0000
0E0000
1E0000
1E0000
1C0000
1C0000
1C3F00
3CFFC0
3BFFF0
3F81F0
3E00F8
7C0078
780078
000038
000038
000078
000078
000078
000078
F000F0
F000F0
F001E0
F803E0
7F1FC0
3FFF80
1FFE00
07F800
ENDCHAR
STARTCHAR 0036
ENCODING 54
SWIDTH 585 0
DWIDTH 26 0
BBX 22 31 4 0
BITMAP
000780
000780
000F00
001E00
003C00
007800
00F000
00E000
01E000
03C000
078000
0F3F00
0EFFC0
1DFFF0
3F83F0
3E00F8
7C0078
780078
78003C
F0003C
F00038
F00038
F00078
F00078
F000F0
F800F0
7803E0
7E07C0
3FFF80
1FFF00
07FC00
ENDCHAR
STARTCHAR 0037
ENCODING 55
SWIDTH 495 0
DWIDTH 22 0
BBX 21 31 5 0
BITMAP
7FFFF8
7FFFF8
7FFFF8
000078
0000F0
0000F0
0001E0
0003C0
0003C0
000780
000780
000F00
001E00
001E00
003C00
007C00
007800
00F000
00F000
01E000
03C000
03C000
078000
078000
0F0000
1E0000
1E0000
3C0000
7C0000
780000
F00000
ENDCHAR
STARTCHAR 0038
ENCODING 56
SWIDTH 607 0
DWIDTH 27 0
BBX 24 32 4 0
BITMAP
0007C0
007FF0
00FFFC
01FFFE
03E03E
07801E
0F000F
0F000F
0E000F
0E000E
0E001E
0E001E
0F003C
0F8078
07FFF0
03FFE0
07FFF0
0F81F8
1E0078
3C003C
78003C
70001C
F0003C
F0003C
F0003C
F0003C
F00078
F800F8
7C03F0
7FFFE0
3FFF80
0FFE00
ENDCHAR
STARTCHAR 0039
ENCODING 57
SWIDTH 585 0
DWIDTH 26 0
BBX 21 32 6 0
BITMAP
001E00
01FFC0
07FFE0
0FFFF0
1F00F0
3E0078
3C0078
780038
700038
F00038
F00038
F00078
F00078
F00078
F000F0
F801F0
7C03E0
7F1FE0
3FFDC0
1FFBC0
03C780
000F00
001F00
001E00
003C00
007800
00F000
01E000
03E000
07C000
078000
0F0000
ENDCHAR
STARTCHAR 003A
ENCODING 58
SWIDTH 292 0
DWIDTH 13 0
BBX 5 23 4 0
BITMAP
70
F8
F8
F0
E0
00
00
00
00
00
00
00
00
00
00
00
00
00
70
F8
F8
F0
F0
ENDCHAR
STARTCHAR 003B
ENCODING 59
SWIDTH 315 0
DWIDTH 14 0
BBX 9 30 4 -7
BITMAP
0F00
0F80
1F80
1F00
0E00
0000
0000
0000
0000
0000
0000
0000
0000
0000
0000
0000
0000
0000
1000
7C00
FC00
FC00
FC00
1C00
1800
1800
1800
3000
E000
8000
ENDCHAR
STARTCHAR 003C
ENCODING 60
SWIDTH 562 0
DWIDTH 25 0
BBX 18 19 7 5
BITMAP
0000C0
0003C0
000F80
003F00
01FC00
07F000
1FC000
7F0000
FC0000
F00000
FC0000
7E0000
1F8000
0FE000
03F800
00FC00
007E00
001E00
000600
ENDCHAR
STARTCHAR 003D
ENCODING 61
SWIDTH 697 0
DWIDTH 31 0
BBX 23 13 7 7
BITMAP
3FFFFE
7FFFFC
7FFFFC
000000
000000
000000
000000
000000
000000
FFFFF8
FFFFF8
FFFFF8
FFFFF8
ENDCHAR
STARTCHAR 003E
ENCODING 62
SWIDTH 562 0
DWIDTH 25 0
BBX 18 19 5 5
BITMAP
1C0000
1E0000
1F8000
0FE000
03F000
01FC00
007F00
001F80
0007C0
0003C0
000FC0
003F80
00FC00
03F000
0FC000
3F0000
7C0000
700000
C00000
ENDCHAR
STARTCHAR 003F
ENCODING 63
SWIDTH 562 0
DWIDTH 25 0
BBX 20 32 7 0
BITMAP
00FC00
07FF80
0FFFC0
1FFFE0
3E03E0
7C01F0
F800F0
F000F0
F000F0
E000F0
0000F0
0001E0
0001E0
0003C0
000780
001F00
003E00
007C00
00F800
01E000
03C000
03C000
038000
078000
000000
000000
000000
020000
0F0000
0F0000
1F0000
0F0000
ENDCHAR
STARTCHAR 0040
ENCODING 64
SWIDTH 990 0
DWIDTH 44 0
BBX 39 39 5 -7
BITMAP
0000030000
0000FFFC00
0007FFFF00
001FF0FFC0
003F0007E0
00F80001F0
01F00000F8
03C0000078
078000003C
070000001C
0E0000001E
1E01FCF00E
1C03FEE00E
3807C7E00E
380F03E00E
701E01E00E
701C01E00E
701C01E00E
F03C01C00E
E03801C00E
E03801C00E
E03801C01C
E03803C01C
E03803C038
E03C07C078
E03E0DE0F0
E01FFCFFE0
F00FF87F80
F007E03E00
7000000000
7800000000
3C00000000
3C00000000
1F00000000
0F80000000
07F0000000
03FFFFF800
00FFFFF800
003FFFF800
ENDCHAR
STARTCHAR 0041
ENCODING 65
SWIDTH 675 0
DWIDTH 30 0
BBX 27 31 2 0
BITMAP
0000F000
0000F800
0001F800
0001F800
0003F800
0007B800
0007BC00
000F3C00
000F3C00
001E1C00
001C1C00
003C1E00
00381E00
00781E00
00700E00
00F00E00
01E00F00
01E00F00
03C00F00
03FFFF00
07FFFF80
07FFFF80
0F000780
0F000780
1E000380
1C0003C0
3C0003C0
780003C0
780003C0
F00001C0
F00001E0
ENDCHAR
STARTCHAR 0042
ENCODING 66
SWIDTH 607 0
DWIDTH 27 0
BBX 26 31 3 0
BITMAP
07FFFC00
07FFFF00
07FFFF00
07801F80
07800780
070007C0
0F0003C0
0F0003C0
0F000380
0F000780
0F000780
0E000F00
1E001E00
1E01FC00
1FFFF000
1FFFF800
1FFFFE00
1C001F00
3C000F00
3C000700
3C000780
3C000780
3C000700
38000F00
78000F00
78001E00
78003E00
7801FC00
7FFFF800
7FFFE000
FFFF8000
ENDCHAR
STARTCHAR 0043
ENCODING 67
SWIDTH 697 0
DWIDTH 31 0
BBX 28 32 5 0
BITMAP
0003F000
001FFE00
007FFF00
01FFFF80
03F00FC0
07C003E0
0F8001E0
1F0001F0
1E0000F0
3C0000F0
3C0000F0
78000000
78000000
78000000
F0000000
F0000000
F0000000
F0000000
F0000000
F0000000
F0000000
F0000000
F00003C0
F0000780
F8000780
78000F00
7C001F00
3E007E00
3FC3FC00
1FFFF000
0FFFE000
03FF8000
ENDCHAR
STARTCHAR 0044
ENCODING 68
SWIDTH 675 0
DWIDTH 30 0
BBX 29 31 3 0
BITMAP
07FFF800
07FFFF00
07FFFF80
07803FC0
078007E0
070003E0
0F0001F0
0F0000F0
0F0000F0
0F0000F0
0F0000F8
0E0000F8
1E0000F8
1E0000F8
1E0000F0
1E0000F0
1E0000F0
1C0000F0
3C0001F0
3C0001E0
3C0001E0
3C0003C0
380007C0
38000780
78000F80
78003F00
7800FE00
7FFFFC00
7FFFF000
7FFFE000
FFFF0000
ENDCHAR
STARTCHAR 0045
ENCODING 69
SWIDTH 562 0
DWIDTH 25 0
BBX 25 31 3 0
BITMAP
07FFFF80
07FFFF80
07FFFF00
07800000
07800000
07800000
0F000000
0F000000
0F000000
0F000000
0F000000
0F000000
1E000000
1E000000
1FFFF000
1FFFF000
1FFFF000
1E000000
3C000000
3C000000
3C000000
3C000000
3C000000
38000000
78000000
78000000
78000000
78000000
7FFFF000
7FFFF000
FFFFF000
ENDCHAR
STARTCHAR 0046
ENCODING 70
SWIDTH 495 0
DWIDTH 22 0
BBX 24 31 3 0
BITMAP
07FFFF
07FFFF
07FFFF
078000
078000
078000
0F0000
0F0000
0F0000
0F0000
0F0000
0F0000
1E0000
1E0000
1FFFF0
1FFFF0
1FFFF0
1E0000
3C0000
3C0000
3C0000
3C0000
3C0000
380000
780000
780000
780000
780000
780000
700000
F00000
ENDCHAR
STARTCHAR 0047
ENCODING 71
SWIDTH 697 0
DWIDTH 31 0
BBX 28 32 5 0
BITMAP
0003F000
001FFC00
007FFF00
01FFFF80
03F00FC0
07C007C0
0F8003E0
1F0001E0
1E0001E0
3C0000F0
3C000000
78000000
78000000
78000000
F0000000
F0000000
F003FFE0
F003FFE0
F003FFC0
F00001C0
F00003C0
F00003C0
F00003C0
F00007C0
F0000780
78000F80
7C001F80
7E007B80
3F01F380
1FFFE780
0FFFC700
03FF0700
ENDCHAR
STARTCHAR 0048
ENCODING 72
SWIDTH 675 0
DWIDTH 30 0
BBX 29 31 3 0
BITMAP
07800078
07800078
07800078
07800078
078000F0
078000F0
0F0000F0
0F0000F0
0F0000F0
0F0000F0
0F0001E0
0E0001E0
1E0001E0
1E0001E0
1FFFFFE0
1FFFFFC0
1FFFFFC0
1C0003C0
3C0003C0
3C0003C0
3C0003C0
3C000380
3C000780
38000780
78000780
78000780
78000780
78000700
78000F00
70000F00
F0000F00
ENDCHAR
STARTCHAR 0049
ENCODING 73
SWIDTH 225 0
DWIDTH 10 0
BBX 9 31 4 0
BITMAP
0780
0F00
0F00
0F00
0F00
0F00
0F00
1E00
1E00
1E00
1E00
1E00
1C00
3C00
3C00
3C00
3C00
3C00
3800
7800
7800
7800
7800
7800
7000
F000
F000
F000
F000
F000
E000
ENDCHAR
STARTCHAR 004A
ENCODING 74
SWIDTH 337 0
DWIDTH 15 0
BBX 15 31 2 0
BITMAP
001E
001E
001C
003C
003C
003C
003C
003C
0038
0078
0078
0078
0078
0078
0070
00F0
00F0
00F0
00F0
00F0
00E0
01E0
01E0
01E0
01E0
01E0
03C0
07C0
7F80
FF00
FE00
ENDCHAR
STARTCHAR 004B
ENCODING 75
SWIDTH 607 0
DWIDTH 27 0
BBX 26 31 3 0
BITMAP
078007C0
07800F80
07801F00
07803E00
07807C00
0700F800
0F01E000
0F03C000
0F078000
0F0F0000
0F1E0000
0E3C0000
1EF80000
1FF00000
1FF80000
1FF80000
1FFC0000
1F3C0000
3E1E0000
3C1F0000
3C0F0000
3C0F8000
3C078000
3807C000
7803E000
7801E000
7801F000
7800F000
7800F800
F0007800
F0007C00
ENDCHAR
STARTCHAR 004C
ENCODING 76
SWIDTH 517 0
DWIDTH 23 0
BBX 19 31 3 0
BITMAP
078000
078000
078000
078000
078000
078000
0F0000
0F0000
0F0000
0F0000
0F0000
0F0000
1E0000
1E0000
1E0000
1E0000
1E0000
1C0000
3C0000
3C0000
3C0000
3C0000
3C0000
380000
780000
780000
780000
780000
7FFFE0
7FFFE0
FFFFE0
ENDCHAR
STARTCHAR 004D
ENCODING 77
SWIDTH 810 0
DWIDTH 36 0
BBX 35 31 3 0
BITMAP
07E00003E0
07F00007E0
07F0000FE0
07F0000FE0
07F0001FE0
07F0001FE0
0F78003DC0
0F78003FC0
0F78007BC0
0F7800FBC0
0F3C00F3C0
0E3C01E3C0
1E3C01E380
1E3C03C780
1E3C03C780
1E1E078780
1E1E078780
1C1E0F0780
3C1E1F0700
3C1F1E0F00
3C0F3C0F00
3C0F3C0F00
3C0F780F00
380F780F00
7807F00E00
7807F01E00
7807E01E00
7807E01E00
7807C01E00
7003801C00
F003801C00
ENDCHAR
STARTCHAR 004E
ENCODING 78
SWIDTH 697 0
DWIDTH 31 0
BBX 30 31 3 0
BITMAP
07C0001C
07E0003C
07E0003C
07F0003C
07F0003C
07F8003C
0F780038
0F7C0078
0F3C0078
0F3E0078
0F1E0078
0E1F0078
1E0F0070
1E0F80F0
1E0780F0
1E07C0F0
1E03C0F0
1C03E0F0
3C01E0E0
3C01F1E0
3C00F1E0
3C00F9E0
3C0079E0
38007DE0
78003DC0
78003FC0
78001FC0
78001FC0
78000FC0
70000FC0
F0000780
ENDCHAR
STARTCHAR 004F
ENCODING 79
SWIDTH 720 0
DWIDTH 32 0
BBX 28 32 5 0
BITMAP
0003F000
001FFE00
007FFF00
01FFFF80
03F00FC0
07C007E0
0F8003E0
1F0001F0
1E0001F0
3E0000F0
3C0000F0
780000F0
780000F0
780000F0
F00000F0
F00000F0
F00000F0
F00000F0
F00001F0
F00001E0
F00001E0
F00003E0
F00003C0
F00007C0
F8000F80
F8001F00
7C003F00
7E007E00
3FC3F800
1FFFF000
0FFFE000
03FF0000
ENDCHAR
STARTCHAR 0050
ENCODING 80
SWIDTH 585 0
DWIDTH 26 0
BBX 25 31 3 0
BITMAP
07FFF000
07FFFC00
07FFFE00
0780FF00
07800F80
07000780
0F000780
0F000380
0F000380
0F000380
0F000780
0E000780
1E000780
1E000F00
1E001F00
1E003E00
1E00FC00
1FFFF800
3FFFF000
3FFF8000
3C000000
3C000000
3C000000
38000000
78000000
78000000
78000000
78000000
70000000
70000000
F0000000
ENDCHAR
STARTCHAR 0051
ENCODING 81
SWIDTH 720 0
DWIDTH 32 0
BBX 28 34 5 -2
BITMAP
0003F000
001FFE00
007FFF00
01FFFF80
03F00FC0
07C007E0
0F8003E0
1F0001F0
1E0001F0
3E0000F0
3C0000F0
780000F0
780000F0
780000F0
F00000F0
F00000F0
F00000F0
F00000F0
F00001F0
F00001E0
F00E01E0
F00F03E0
F00783C0
F00387C0
F803CF80
F801FF00
7C01FE00
7E00FE00
3FC3FC00
1FFFF800
0FFFFC00
03FF1C00
00001E00
00000F00
ENDCHAR
STARTCHAR 0052
ENCODING 82
SWIDTH 585 0
DWIDTH 26 0
BBX 26 31 3 0
BITMAP
07FFF800
07FFFE00
07FFFF00
0780FF00
07800F80
07800780
0F000380
0F0003C0
0F000380
0F000380
0F000780
0E000780
1E000F00
1E001F00
1E003E00
1FFFFC00
1FFFF800
1FFFE000
3FFF0000
3C0F0000
3C078000
3C078000
3C03C000
3803C000
7801E000
7801E000
7800F000
7800F000
78007800
70007800
F0007C00
ENDCHAR
STARTCHAR 0053
ENCODING 83
SWIDTH 585 0
DWIDTH 26 0
BBX 24 32 4 0
BITMAP
000F80
007FF0
01FFF8
03FFFC
07C03E
0F801E
0F001F
1E001F
1E000F
1E000F
1E0000
1E0000
1F0000
1FC000
0FFC00
07FF80
01FFE0
003FF8
0001F8
00007C
00003C
00003C
F0003C
F0003C
F0003C
F80078
F800F8
7C01F0
7F07E0
3FFFC0
1FFF80
07FE00
ENDCHAR
STARTCHAR 0054
ENCODING 84
SWIDTH 585 0
DWIDTH 26 0
BBX 22 31 7 0
BITMAP
FFFFFC
FFFFFC
FFFFFC
007800
007800
00F000
00F000
00F000
00F000
00F000
00E000
01E000
01E000
01E000
01E000
01E000
01C000
03C000
03C000
03C000
03C000
03C000
038000
078000
078000
078000
078000
078000
070000
0F0000
0F0000
ENDCHAR
STARTCHAR 0055
ENCODING 85
SWIDTH 675 0
DWIDTH 30 0
BBX 28 31 5 0
BITMAP
1E0000F0
1E0000F0
1E0000E0
1C0001E0
3C0001E0
3C0001E0
3C0001E0
3C0001E0
3C0001C0
380003C0
780003C0
780003C0
780003C0
78000380
70000780
70000780
F0000780
F0000780
F0000780
F0000F00
F0000F00
F0000F00
F0001E00
F0001E00
F8003C00
78007C00
7C00F800
7F87F000
3FFFE000
1FFFC000
07FF0000
ENDCHAR
STARTCHAR 0056
ENCODING 86
SWIDTH 630 0
DWIDTH 28 0
BBX 26 31 6 0
BITMAP
F00001C0
F00003C0
F0000380
70000780
78000700
78000F00
78001E00
78001E00
78003C00
3C003C00
3C007800
3C007800
3C00F000
3C00F000
3C01E000
1E01E000
1E03C000
1E03C000
1E078000
1E078000
0E0F0000
0F0F0000
0F1E0000
0F1E0000
0F3C0000
0F3C0000
07780000
07F80000
07F00000
07F00000
07E00000
ENDCHAR
STARTCHAR 0057
ENCODING 87
SWIDTH 990 0
DWIDTH 44 0
BBX 42 31 6 0
BITMAP
F0001E0001C0
F0001E0003C0
F0003F0003C0
F0003F000780
F0007F000780
F0007F000F00
7000FF000F00
7000F7000E00
7801E7001E00
7801E7801E00
7803C7803C00
7803C7803C00
780787807800
780787807800
780F03807000
780F0380F000
381E03C0E000
381E03C1E000
383C03C1E000
3C3C03C3C000
3C7803C3C000
3C7801C38000
3CF001E78000
3CF001E70000
3DE001EF0000
3DE001EF0000
1FC001FE0000
1FC000FE0000
1F8000FC0000
1F8000FC0000
1F0000F80000
ENDCHAR
STARTCHAR 0058
ENCODING 88
SWIDTH 652 0
DWIDTH 29 0
BBX 30 31 2 0
BITMAP
07C0003C
03C0007C
03E000F8
01E000F0
01F001E0
00F003C0
00F80780
00780F80
007C1F00
003C1E00
003E3C00
001E7800
001FF000
000FE000
000FE000
0007C000
000FC000
001FE000
003DE000
007CF000
0078F000
00F07800
01E07800
03C03C00
07C03C00
0F801E00
0F001E00
1E000F00
3C000F00
78000780
F8000780
ENDCHAR
STARTCHAR 0059
ENCODING 89
SWIDTH 607 0
DWIDTH 27 0
BBX 23 31 7 0
BITMAP
F0001E
F0001E
78003C
780078
780078
3C00F0
3C01E0
3C01E0
1E03C0
1E0780
1E0780
0F0F00
0F1E00
0F1E00
07BC00
07F800
07F800
03F000
03E000
03E000
03C000
03C000
03C000
03C000
03C000
038000
078000
078000
078000
078000
078000
ENDCHAR
STARTCHAR 005A
ENCODING 90
SWIDTH 607 0
DWIDTH 27 0
BBX 28 31 2 0
BITMAP
07FFFFF0
07FFFFE0
07FFFFE0
000003E0
000007C0
00000780
00000F00
00001E00
00003C00
00007C00
0000F800
0001F000
0003E000
0007C000
000F8000
000F0000
001E0000
003C0000
007C0000
00F80000
01F00000
03E00000
07C00000
0F800000
0F000000
1E000000
3C000000
7FFFFE00
7FFFFE00
7FFFFE00
FFFFFC00
ENDCHAR
STARTCHAR 005B
ENCODING 91
SWIDTH 427 0
DWIDTH 19 0
BBX 20 44 2 -8
BITMAP
00FFF0
00FFF0
00FFF0
01C000
01C000
01C000
01C000
01C000
03C000
038000
038000
038000
038000
038000
078000
070000
070000
070000
070000
070000
0E0000
0E0000
0E0000
0E0000
0E0000
1E0000
1C0000
1C0000
1C0000
1C0000
1C0000
3C0000
380000
380000
380000
380000
380000
700000
700000
700000
700000
7FF800
FFF800
FFF800
ENDCHAR
STARTCHAR 005C
ENCODING 92
SWIDTH 495 0
DWIDTH 22 0
BBX 15 43 5 -7
BITMAP
F000
F000
F000
7000
7800
7800
7800
3800
3C00
3C00
3C00
1C00
1E00
1E00
0E00
0E00
0F00
0F00
0700
0780
0780
0780
0380
03C0
03C0
03C0
01C0
01E0
01E0
01E0
00E0
00F0
00F0
0070
0078
0078
0078
0038
003C
003C
003C
001C
001E
ENDCHAR
STARTCHAR 005D
ENCODING 93
SWIDTH 427 0
DWIDTH 19 0
BBX 20 44 2 -8
BITMAP
01FFF0
01FFF0
01FFF0
0000F0
0000E0
0000E0
0000E0
0000E0
0000E0
0001E0
0001C0
0001C0
0001C0
0001C0
0003C0
000380
000380
000380
000380
000380
000780
000700
000700
000700
000700
000700
000E00
000E00
000E00
000E00
000E00
001E00
001C00
001C00
001C00
001C00
001C00
003C00
003800
003800
003800
FFF800
FFF800
FFF000
ENDCHAR
STARTCHAR 005E
ENCODING 94
SWIDTH 405 0
DWIDTH 18 0
BBX 15 9 6 25
BITMAP
01E0
03F0
07F0
0F78
1E38
3C3C
781C
F01E
E00E
ENDCHAR
STARTCHAR 005F
ENCODING 95
SWIDTH 697 0
DWIDTH 31 0
BBX 22 3 5 0
BITMAP
FFFFFC
FFFFFC
FFFFFC
ENDCHAR
STARTCHAR 0060
ENCODING 96
SWIDTH 247 0
DWIDTH 11 0
BBX 7 8 7 28
BITMAP
F0
78
78
3C
3C
1C
1E
0E
ENDCHAR
STARTCHAR 0061
ENCODING 97
SWIDTH 607 0
DWIDTH 27 0
BBX 25 24 3 0
BITMAP
007F0000
01FFC780
03FFE700
07F1EF00
0F807F00
1F003F00
1E003F00
3C001F00
3C001E00
78001E00
78001E00
78001E00
78001E00
78001E00
F0003C00
F0003C00
78007C00
78007C00
7800FC00
7C01BC00
3F073800
3FFF7800
1FFC7800
07F07800
ENDCHAR
STARTCHAR 0062
ENCODING 98
SWIDTH 607 0
DWIDTH 27 0
BBX 25 33 3 0
BITMAP
03C00000
03C00000
07800000
07800000
07800000
07800000
07800000
07000000
0F000000
0F07F000
0F1FFC00
0F3FFE00
0F7CFE00
0EE01F00
1FC01F00
1F800F00
1F000F00
1E000780
1E000780
1E000780
3C000700
3C000F00
3C000F00
3C000F00
3C001E00
3C001E00
7E003E00
7E007C00
7F00F800
7B83F000
7BFFE000
71FFC000
F07F0000
ENDCHAR
STARTCHAR 0063
ENCODING 99
SWIDTH 562 0
DWIDTH 25 0
BBX 22 24 4 0
BITMAP
007F00
01FFC0
07FFE0
0FC3F0
1F00F8
3E0078
3C0078
78003C
78003C
F00000
F00000
F00000
F00000
E00000
E00000
F00070
F000F0
F000F0
F001E0
F803C0
7C0FC0
3FFF80
1FFE00
0FF800
ENDCHAR
STARTCHAR 0064
ENCODING 100
SWIDTH 607 0
DWIDTH 27 0
BBX 25 33 4 0
BITMAP
00000780
00000780
00000780
00000780
00000780
00000700
00000F00
00000F00
00000F00
00FE0F00
03FF8F00
07FFCE00
0FE7DE00
1F00FE00
3E007E00
3C007E00
78003E00
78003C00
F0003C00
F0003C00
F0003C00
F0003C00
F0003C00
E0007800
E0007800
F000F800
F000F800
F001F800
F8037800
7E0E7000
7FFCF000
3FF8F000
0FF0F000
ENDCHAR
STARTCHAR 0065
ENCODING 101
SWIDTH 562 0
DWIDTH 25 0
BBX 21 24 4 0
BITMAP
007FC0
03FFE0
07FFF0
0F80F8
1E0078
3C0038
380038
780038
700078
F000F0
FFFFF0
FFFFC0
FFFF80
E00000
E00000
E00000
F00000
F000F0
F001E0
7803C0
7E0FC0
3FFF80
1FFE00
07F800
ENDCHAR
STARTCHAR 0066
ENCODING 102
SWIDTH 360 0
DWIDTH 16 0
BBX 22 44 -2 -11
BITMAP
00007C
0003FC
0007FC
000780
000F00
000F00
000F00
000F00
001E00
001E00
00FFF8
00FFF0
00FFF0
001E00
003C00
003C00
003C00
003C00
003C00
003800
007800
007800
007800
007800
007800
007000
00F000
00F000
00F000
00F000
00F000
00E000
01E000
01E000
01E000
01E000
01E000
03C000
03C000
03C000
078000
FF8000
FF0000
FC0000
ENDCHAR
STARTCHAR 0067
ENCODING 103
SWIDTH 607 0
DWIDTH 27 0
BBX 24 33 4 -9
BITMAP
00FE00
03FF8F
07FF8E
0FC3DE
1F00FE
3E007E
3C007E
78003E
78003C
F0003C
F0003C
F0003C
F0003C
F0007C
F00078
F00078
F000F8
F001F8
F803F8
7C0778
7FFEF0
3FFCF0
1FF0F0
0300F0
0000F0
0001E0
0001E0
0003C0
0007C0
001F80
0FFF00
0FFC00
0FF800
ENDCHAR
STARTCHAR 0068
ENCODING 104
SWIDTH 607 0
DWIDTH 27 0
BBX 24 33 3 0
BITMAP
03C000
03C000
078000
078000
078000
078000
078000
078000
0F0000
0F07F0
0F1FF8
0F3FFC
0F7DFE
0FC03E
1F801F
1F001F
1E000F
1E000F
1E000F
1C000E
3C001E
3C001E
3C001E
3C001E
3C001E
38001C
78003C
78003C
78003C
78003C
78003C
700038
F00078
ENDCHAR
STARTCHAR 0069
ENCODING 105
SWIDTH 247 0
DWIDTH 11 0
BBX 9 33 4 0
BITMAP
0300
0780
0F80
0F80
0700
0000
0000
0000
0000
0000
1E00
1E00
1E00
1E00
1E00
1C00
3C00
3C00
3C00
3C00
3C00
3800
7800
7800
7800
7800
7800
7000
F000
F000
F000
F000
F000
ENDCHAR
STARTCHAR 006A
ENCODING 106
SWIDTH 247 0
DWIDTH 11 0
BBX 17 43 -3 -10
BITMAP
000600
000F00
000F80
000F00
000E00
000000
000000
000000
000000
001E00
001C00
003C00
003C00
003C00
003C00
003C00
003800
007800
007800
007800
007800
007800
007000
00F000
00F000
00F000
00F000
00F000
00E000
01E000
01E000
01E000
01E000
01E000
01C000
03C000
03C000
03C000
07C000
0F8000
FF0000
FE0000
700000
ENDCHAR
STARTCHAR 006B
ENCODING 107
SWIDTH 495 0
DWIDTH 22 0
BBX 20 33 4 0
BITMAP
078000
078000
078000
0F0000
0F0000
0F0000
0F0000
0F0000
0F0000
1E0000
1E01F0
1E03E0
1E0780
1E0F00
1E3E00
3C7C00
3CF800
3DF000
3FC000
3F8000
3F8000
7FC000
7BC000
79E000
79F000
78F000
707800
F07C00
F03C00
F01E00
F01F00
F00F00
E00F80
ENDCHAR
STARTCHAR 006C
ENCODING 108
SWIDTH 292 0
DWIDTH 13 0
BBX 9 33 4 0
BITMAP
0780
0780
0780
0F00
0F00
0F00
0F00
0F00
0E00
1E00
1E00
1E00
1E00
1E00
1C00
3C00
3C00
3C00
3C00
3C00
3800
7800
7800
7800
7800
7800
7000
F000
F000
F800
FF80
7F00
3F00
ENDCHAR
STARTCHAR 006D
ENCODING 109
SWIDTH 945 0
DWIDTH 42 0
BBX 39 24 3 0
BITMAP
0007E007E0
0F1FF01FF8
0F3FF83FFC
0F7FFCFFFC
0EC07CE03E
1F803F803E
1F001F001E
1E001F001E
1E001E001E
1E001E001E
1C001E001E
3C001C001E
3C003C001E
3C003C001C
3C003C003C
3C003C003C
38003C003C
780038003C
780078003C
7800780038
7800780078
7800780078
7000780078
F000700078
ENDCHAR
STARTCHAR 006E
ENCODING 110
SWIDTH 607 0
DWIDTH 27 0
BBX 24 24 3 0
BITMAP
0007F0
0F1FF8
0F3FFC
0F7DFE
0FC03E
1F801F
1F001F
1F000F
1E000F
1E000F
1C000E
3C001E
3C001E
3C001E
3C001E
3C001E
38001C
78003C
78003C
78003C
78003C
78003C
700038
F00078
ENDCHAR
STARTCHAR 006F
ENCODING 111
SWIDTH 562 0
DWIDTH 25 0
BBX 22 24 4 0
BITMAP
007F00
01FFC0
07FFE0
0FC3F0
1F00F8
3E0078
3C0078
78003C
78003C
F0003C
F0003C
F0003C
E0003C
E00038
E00078
E00078
F000F0
F000F0
F001E0
F803C0
7E0F80
3FFF00
1FFE00
0FF800
ENDCHAR
STARTCHAR 0070
ENCODING 112
SWIDTH 607 0
DWIDTH 27 0
BBX 26 33 2 -9
BITMAP
0003F800
078FFE00
079FFF00
07BE7F00
07700F80
0FE00F80
0FC00780
0F800780
0F0003C0
0F0003C0
0F0003C0
1E000380
1E000780
1E000780
1E000780
1E000F00
1E000F00
3E001F00
3F003E00
3F807C00
3DC1F800
3DFFF000
38FFE000
783F8000
78000000
78000000
78000000
78000000
F0000000
F0000000
F0000000
F0000000
F0000000
ENDCHAR
STARTCHAR 0071
ENCODING 113
SWIDTH 607 0
DWIDTH 27 0
BBX 24 33 4 -9
BITMAP
00FE00
03FF8F
07FFCE
0FE7DE
1F00FE
3E007E
3C007E
78003E
78003C
F0003C
F0003C
F0003C
F0003C
F0003C
E00078
E00078
F000F8
F000F8
F001F8
F80378
7E0E70
7FFCF0
3FF8F0
0FF0F0
0000F0
0000F0
0001E0
0001E0
0001E0
0001E0
0001E0
0001C0
0003C0
ENDCHAR
STARTCHAR 0072
ENCODING 114
SWIDTH 337 0
DWIDTH 15 0
BBX 16 23 3 0
BITMAP
0F3F
0F7F
0EFF
1FE0
1F80
1F00
1E00
1E00
1E00
3C00
3C00
3C00
3C00
3C00
3800
7800
7800
7800
7800
7800
7000
F000
F000
ENDCHAR
STARTCHAR 0073
ENCODING 115
SWIDTH 495 0
DWIDTH 22 0
BBX 20 24 3 0
BITMAP
00FF00
03FF80
07FFC0
0F83E0
1E01E0
1E00F0
1C00F0
1C0000
1C0000
1E0000
1FF000
0FFE00
03FF80
003FC0
0007C0
0003C0
F001C0
F003C0
F003C0
F80780
7C0F80
7FFF00
3FFE00
0FF800
ENDCHAR
STARTCHAR 0074
ENCODING 116
SWIDTH 382 0
DWIDTH 17 0
BBX 14 31 5 0
BITMAP
03C0
03C0
0380
0780
0780
0780
0780
0780
FFFC
FFFC
FFFC
0F00
0F00
0F00
0E00
1E00
1E00
1E00
1E00
1E00
1C00
3C00
3C00
3C00
3C00
3C00
3800
7C00
3FE0
3FC0
1FC0
ENDCHAR
STARTCHAR 0075
ENCODING 117
SWIDTH 585 0
DWIDTH 26 0
BBX 22 23 5 0
BITMAP
3C001C
3C003C
3C003C
38003C
78003C
78003C
780038
780078
780078
F00078
F00078
F00078
F00070
F000F0
F000F0
F000F0
F001F0
F003F0
F807E0
FC0FE0
7FFDE0
3FF1E0
1FE1E0
ENDCHAR
STARTCHAR 0076
ENCODING 118
SWIDTH 540 0
DWIDTH 24 0
BBX 21 23 6 0
BITMAP
E00078
F000F0
F000F0
F001E0
F001E0
7003C0
700380
780780
780700
780F00
380E00
381E00
3C1C00
3C3C00
3C7800
3C7800
1CF000
1EF000
1FE000
1FE000
1FC000
0F8000
0F8000
ENDCHAR
STARTCHAR 0077
ENCODING 119
SWIDTH 810 0
DWIDTH 36 0
BBX 32 23 6 0
BITMAP
E003C007
E007C00F
E007C00F
F007C01E
F00FE01E
F00FE01C
F01FE03C
F01DE038
F03CE078
7038E070
7078E0F0
7070F0F0
70F0F0E0
70E0F1E0
79E0F1C0
79C073C0
7BC07380
7B807780
7F807F00
3F807F00
3F007F00
3F007E00
3E007E00
ENDCHAR
STARTCHAR 0078
ENCODING 120
SWIDTH 540 0
DWIDTH 24 0
BBX 24 23 2 0
BITMAP
0F001F
0F803E
07803C
07C078
03C0F0
03E1E0
01E3C0
01E3C0
00F780
00FF00
007E00
007E00
00FE00
01FF00
01EF00
03CF80
078780
0F07C0
1F03C0
3E03C0
3C01E0
7801E0
F000F0
ENDCHAR
STARTCHAR 0079
ENCODING 121
SWIDTH 472 0
DWIDTH 21 0
BBX 25 32 0 -9
BITMAP
07000780
07800780
07800F00
07800F00
07801E00
03801E00
03C03C00
03C03800
03C07800
03C0F000
01C0F000
01E1E000
01E1C000
01E3C000
00E38000
00E78000
00F70000
00FF0000
00FE0000
007C0000
007C0000
00780000
00780000
00F00000
00E00000
01E00000
03C00000
03C00000
0F800000
FF000000
FE000000
F8000000
ENDCHAR
STARTCHAR 007A
ENCODING 122
SWIDTH 495 0
DWIDTH 22 0
BBX 22 23 2 0
BITMAP
07FFFC
07FFFC
07FFFC
000078
0000F0
0001E0
0003C0
000780
000F00
001E00
003C00
007800
00F000
01E000
03C000
078000
0F0000
1E0000
3C0000
780000
7FFFE0
7FFFC0
FFFFC0
ENDCHAR
STARTCHAR 007B
ENCODING 123
SWIDTH 450 0
DWIDTH 20 0
BBX 17 47 7 -10
BITMAP
003F80
00FF80
00FF80
01E000
01C000
03C000
03C000
038000
038000
038000
078000
078000
078000
070000
070000
070000
0F0000
0F0000
0F0000
0E0000
0E0000
1E0000
FC0000
F80000
3C0000
1C0000
1C0000
1C0000
1C0000
3C0000
3C0000
380000
380000
380000
380000
780000
780000
700000
700000
700000
700000
F00000
F00000
780000
7FC000
3FC000
078000
ENDCHAR
STARTCHAR 007C
ENCODING 124
SWIDTH 270 0
DWIDTH 12 0
BBX 12 53 3 -11
BITMAP
0070
0070
0070
00F0
00E0
00E0
00E0
00E0
00E0
01E0
01C0
01C0
01C0
01C0
03C0
03C0
0380
0380
0380
0380
0780
0780
0700
0700
0700
0700
0F00
0F00
0E00
0E00
0E00
0E00
1E00
1E00
1C00
1C00
1C00
1C00
3C00
3800
3800
3800
3800
3800
7800
7000
7000
7000
7000
7000
F000
E000
E000
ENDCHAR
STARTCHAR 007D
ENCODING 125
SWIDTH 450 0
DWIDTH 20 0
BBX 17 47 4 -10
BITMAP
00FC00
01FF00
01FF00
000780
000780
000780
000700
000700
000700
000700
000F00
000F00
000E00
000E00
000E00
001E00
001E00
001C00
001C00
001C00
001C00
001C00
001F80
000F80
001E00
003800
003800
007800
007800
007000
007000
007000
00F000
00F000
00F000
00E000
00E000
00E000
01E000
01E000
01C000
01C000
03C000
078000
FF8000
FF0000
F00000
ENDCHAR
STARTCHAR 007E
ENCODING 126
SWIDTH 562 0
DWIDTH 25 0
BBX 17 4 7 15
BITMAP
3F8380
7FE700
73FF00
E0FC00
ENDCHAR
STARTCHAR 00A0
ENCODING 160
SWIDTH 225 0
DWIDTH 10 0
BBX 0 0 0 0
BITMAP
ENDCHAR
STARTCHAR 00A1
ENCODING 161
SWIDTH 247 0
DWIDTH 11 0
BBX 11 34 3 -11
BITMAP
0180
03C0
03E0
03C0
0380
0000
0000
0000
0000
0700
0700
0700
0600
0E00
0E00
0E00
0E00
0E00
1E00
1E00
1C00
1C00
3C00
3C00
3C00
3C00
3C00
7C00
7800
7800
7800
7800
7800
F800
ENDCHAR
STARTCHAR 00A2
ENCODING 162
SWIDTH 585 0
DWIDTH 26 0
BBX 22 30 4 -3
BITMAP
000400
000C00
000C00
003F80
01FFE0
03FFF0
07E9F8
0F9878
1E183C
3E183C
3C183C
78103C
781000
783000
F03000
F03000
F03000
F02000
F02078
F06078
F060F0
7860F0
7C61E0
3E47C0
3FFF80
1FFF00
07FC00
00C000
00C000
008000
ENDCHAR
STARTCHAR 00A3
ENCODING 163
SWIDTH 585 0
DWIDTH 26 0
BBX 25 32 2 0
BITMAP
0003E000
001FFC00
007FFE00
00FFFF00
01F01F80
03E00F80
03C00780
07C00780
07C00780
07800780
07800000
07C00000
07C00000
03C00000
03E00000
01E00000
01F00000
00F00000
1FFFE000
1FFFE000
00F00000
00F00000
00F00000
00F00000
01E00000
01C00000
03800000
07000000
3C000000
FFFFFE00
FFFFFC00
FFFFFC00
ENDCHAR
STARTCHAR 00A4
ENCODING 164
SWIDTH 585 0
DWIDTH 26 0
BBX 23 20 4 6
BITMAP
0C000C
1E7F9E
0FFFFC
07FFF8
0780F0
0F0078
0E0038
1C0038
1C0038
380038
380038
380038
380078
380070
3C00E0
1E01E0
1F8FE0
7FFFE0
F3FEF0
60F070
ENDCHAR
STARTCHAR 00A5
ENCODING 165
SWIDTH 607 0
DWIDTH 27 0
BBX 25 31 6 0
BITMAP
78000F80
7C000F00
3C001E00
3C003C00
3C003C00
1E007800
1E00F000
1E00F000
0F01E000
0F03C000
0F03C000
07878000
078F0000
078F0000
03DE0000
03FC0000
03FC0000
01F80000
7FFFC000
7FFFC000
01E00000
01E00000
01E00000
FFFF8000
FFFF8000
01C00000
03C00000
03C00000
03C00000
03C00000
03C00000
ENDCHAR
STARTCHAR 00A6
ENCODING 166
SWIDTH 270 0
DWIDTH 12 0
BBX 12 53 3 -11
BITMAP
0070
0070
0070
00F0
00E0
00E0
00E0
00E0
00E0
01E0
01C0
01C0
01C0
01C0
03C0
03C0
0380
0380
0380
0380
0780
0780
0700
0000
0000
0000
0000
0000
0000
0000
0000
0E00
1E00
1E00
1C00
1C00
1C00
1C00
3C00
3800
3800
3800
3800
3800
7800
7000
7000
7000
7000
7000
F000
E000
E000
ENDCHAR
STARTCHAR 00A7
ENCODING 167
SWIDTH 540 0
DWIDTH 24 0
BBX 21 32 4 0
BITMAP
001E00
00FFE0
03FFF0
07E1F0
0780F8
0F0078
0F0078
0F0000
0F0000
0FC000
07FF00
0FFFC0
1F7FF0
3C03F0
7800F8
780078
780078
780078
7E00F0
3FF1F0
1FFFE0
03FF80
003FC0
0007C0
0003C0
F003C0
F003C0
F807C0
7C0F80
7FFF00
3FFE00
0FF800
ENDCHAR
STARTCHAR 00A8
ENCODING 168
SWIDTH 360 0
DWIDTH 16 0
BBX 13 5 7 28
BITMAP
7030
F078
F8F8
F0F8
F070
ENDCHAR
STARTCHAR 00A9
ENCODING 169
SWIDTH 810 0
DWIDTH 36 0
BBX 33 32 4 0
BITMAP
0000780000
0007FFC000
001FFFF000
007E01F800
00F0003C00
03C0001E00
0780000E00
0701FC0700
0E07FE0700
1C0F9F0300
181C038380
383801C380
307001C380
706001C380
70E0000380
60E0000380
60C0000380
E0C0000300
E0C0000300
E0C0038700
E0E0030600
60E0070E00
70781E0E00
707FFC1C00
701FF03800
3807807800
3C0000F000
1E0001E000
0F0007C000
07F07F0000
03FFFC0000
00FFF00000
ENDCHAR
STARTCHAR 00AA
ENCODING 170
SWIDTH 135 0
DWIDTH 6 0
BBX 6 7 4 17
BITMAP
20
7C
CC
8C
8C
F8
78
ENDCHAR
STARTCHAR 00AB
ENCODING 171
SWIDTH 630 0
DWIDTH 28 0
BBX 25 18 5 5
BITMAP
00780780
01E01E00
03C03C00
07807800
0F00F000
1E01E000
3C03C000
78078000
F00F0000
F00F0000
F00F0000
78078000
3C03C000
1E01E000
1F01E000
0F00F000
07807800
03C03C00
ENDCHAR
STARTCHAR 00AC
ENCODING 172
SWIDTH 652 0
DWIDTH 29 0
BBX 23 12 7 12
BITMAP
7FFFFE
FFFFFC
FFFFFC
FFFFFC
00001C
00001C
00003C
000038
000038
000038
000038
000038
ENDCHAR
STARTCHAR 00AD
ENCODING 173
SWIDTH 585 0
DWIDTH 26 0
BBX 17 3 9 12
BITMAP
7FFF80
7FFF80
FFFF80
ENDCHAR
STARTCHAR 00AE
ENCODING 174
SWIDTH 337 0
DWIDTH 15 0
BBX 12 11 6 20
BITMAP
0F80
18E0
2020
4F20
4930
CF20
CA20
CB60
40C0
7380
3F00
ENDCHAR
STARTCHAR 00AF
ENCODING 175
SWIDTH 360 0
DWIDTH 16 0
BBX 14 2 6 28
BITMAP
FFFC
FFFC
ENDCHAR
STARTCHAR 00B0
ENCODING 176
SWIDTH 292 0
DWIDTH 13 0
BBX 9 8 8 30
BITMAP
3F00
7F00
6180
C180
C180
E300
7E00
3C00
ENDCHAR
STARTCHAR 00B1
ENCODING 177
SWIDTH 585 0
DWIDTH 26 0
BBX 20 24 5 0
BITMAP
001C00
001C00
001C00
003C00
003C00
003800
003800
1FFFF0
3FFFF0
3FFFF0
007800
007000
007000
007000
00F000
00F000
00F000
000000
000000
000000
000000
FFFFC0
FFFFC0
FFFF80
ENDCHAR
STARTCHAR 00B2
ENCODING 178
SWIDTH 292 0
DWIDTH 13 0
BBX 13 17 4 17
BITMAP
01E0
07F0
0E78
1C38
3818
3838
0038
0070
00E0
01C0
0380
0700
1E00
3800
7000
FFE0
FFE0
ENDCHAR
STARTCHAR 00B3
ENCODING 179
SWIDTH 315 0
DWIDTH 14 0
BBX 13 17 5 17
BITMAP
03C0
0FF0
1C70
3838
3038
0030
0070
01E0
07C0
07E0
0060
0070
0070
E060
E1E0
FFC0
7F80
ENDCHAR
STARTCHAR 00B4
ENCODING 180
SWIDTH 247 0
DWIDTH 11 0
BBX 9 8 7 28
BITMAP
0780
0F00
1E00
1C00
3800
7800
F000
E000
ENDCHAR
STARTCHAR 00B5
ENCODING 181
SWIDTH 630 0
DWIDTH 28 0
BBX 25 32 2 -9
BITMAP
07800F00
07800F00
07000F00
0F001E00
0F001E00
0F001E00
0F001E00
0F001E00
1E001E00
1E003C00
1E003C00
1E003C00
1E003C00
1E003C00
3C007C00
3C007800
3C00F800
3C00F800
3E01F800
3F077800
7FFE7F80
7FFC3F80
7BF01F80
78000000
78000000
70000000
F0000000
F0000000
F0000000
F0000000
F0000000
E0000000
ENDCHAR
STARTCHAR 00B6
ENCODING 182
SWIDTH 517 0
DWIDTH 23 0
BBX 21 31 5 0
BITMAP
03FFF8
0FFFF8
1FFFF0
3FFE30
7FFC30
7FFC70
FFFC70
FFFC70
FFFC60
FFFC60
FFF860
FFF8E0
7FF8E0
7FF8E0
3FF8C0
0FF8C0
0030C0
0031C0
0071C0
0071C0
007180
007180
006180
006380
00E380
00E380
00E300
00C300
00C700
00C700
01C700
ENDCHAR
STARTCHAR 00B7
ENCODING 183
SWIDTH 270 0
DWIDTH 12 0
BBX 5 5 7 14
BITMAP
30
78
F8
F8
70
ENDCHAR
STARTCHAR 00B8
ENCODING 184
SWIDTH 225 0
DWIDTH 10 0
BBX 9 11 0 -11
BITMAP
3800
3000
3000
7F00
7F00
0380
0380
0300
8F00
FE00
F800
ENDCHAR
STARTCHAR 00B9
ENCODING 185
SWIDTH 247 0
DWIDTH 11 0
BBX 9 17 4 17
BITMAP
0380
0780
1F00
3F00
3300
2300
0700
0700
0600
0600
0600
0600
0E00
0E00
0C00
FF80
FF80
ENDCHAR
STARTCHAR 00BA
ENCODING 186
SWIDTH 157 0
DWIDTH 7 0
BBX 6 7 4 17
BITMAP
38
7C
CC
CC
CC
F8
70
ENDCHAR
STARTCHAR 00BB
ENCODING 187
SWIDTH 630 0
DWIDTH 28 0
BBX 26 18 3 5
BITMAP
1E01E000
0F00F000
07807800
03C03C00
03E03E00
01E01E00
00F00F00
00780780
007C07C0
00780780
00F00F00
01E01E00
03C03C00
07807800
0F00F000
1E01E000
7C078000
F00F0000
ENDCHAR
STARTCHAR 00BC
ENCODING 188
SWIDTH 810 0
DWIDTH 36 0
BBX 30 31 5 0
BITMAP
07000038
1F000078
3F0000F0
760001E0
660001C0
4E0003C0
0E000780
0E000F00
0E000E00
0C001C00
0C003C00
1C007800
1C007000
FF80E000
FF81E000
0003C03C
0007803C
0007007C
000F00D8
001E0198
003C03B8
00380738
00700638
00F00C38
01E01830
01C01FFC
03803FFC
07800070
0F000070
1E000070
1C000060
ENDCHAR
STARTCHAR 00BD
ENCODING 189
SWIDTH 832 0
DWIDTH 37 0
BBX 32 31 5 0
BITMAP
0700001C
1F00003C
3F000078
760000F0
660000E0
4E0001C0
0E0003C0
0E000780
0E000F00
0C000E00
0C001E00
1C003C00
1C007800
FF807000
FF80F000
0001E03C
0003C0FF
000381FF
00070183
000F0383
001E0387
001C0007
0038000E
0078001C
00F00038
01E000F0
01C001E0
03C00380
07800700
0F000FFE
0E000FFE
ENDCHAR
STARTCHAR 00BE
ENCODING 190
SWIDTH 832 0
DWIDTH 37 0
BBX 32 31 5 0
BITMAP
0FE0001E
1FF0003C
3C700038
38300070
003000F0
007001E0
01E003C0
07C00380
07C00780
00E00F00
00601E00
E0E01C00
E0E03800
FFC07800
7F80F000
3F00E00E
0001C01E
0003C03E
0007807E
000F006E
000E00CE
001E018C
003C030C
0078071C
0070061C
00E00FFF
01E00FFF
03C00018
03800038
07000038
0F000038
ENDCHAR
STARTCHAR 00BF
ENCODING 191
SWIDTH 517 0
DWIDTH 23 0
BBX 20 32 4 -11
BITMAP
000F00
000F00
001F00
001F00
000C00
000000
000000
000000
001E00
001E00
003C00
007C00
007800
01F000
03E000
07C000
0F0000
1E0000
3C0000
780000
780000
F00000
F000F0
F000F0
F000F0
F001E0
F003E0
F807C0
7FFF80
7FFF00
1FFE00
07F000
ENDCHAR
STARTCHAR 00C0
ENCODING 192
SWIDTH 675 0
DWIDTH 30 0
BBX 27 42 2 0
BITMAP
0003C000
0003C000
0001C000
0001E000
0000E000
0000F000
00007000
00007000
00000000
00000000
00000000
0000F000
0000F800
0001F800
0001F800
0003F800
0007B800
0007BC00
000F3C00
000F3C00
001E1C00
001C1C00
003C1E00
00381E00
00781E00
00700E00
00F00E00
01E00F00
01E00F00
03C00F00
03FFFF00
07FFFF80
07FFFF80
0F000780
0F000780
1E000380
1C0003C0
3C0003C0
780003C0
780003C0
F00001C0
F00001E0
ENDCHAR
STARTCHAR 00C1
ENCODING 193
SWIDTH 675 0
DWIDTH 30 0
BBX 27 42 2 0
BITMAP
000001E0
000003C0
00000780
00000700
00000E00
00001C00
00003C00
00003800
00000000
00000000
00000000
0000F000
0000F800
0001F800
0001F800
0003F800
0007B800
0007BC00
000F3C00
000F3C00
001E1C00
001C1C00
003C1E00
00381E00
00781E00
00700E00
00F00E00
01E00F00
01E00F00
03C00F00
03FFFF00
07FFFF80
07FFFF80
0F000780
0F000780
1E000380
1C0003C0
3C0003C0
780003C0
780003C0
F00001C0
F00001E0
ENDCHAR
STARTCHAR 00C2
ENCODING 194
SWIDTH 675 0
DWIDTH 30 0
BBX 27 41 2 0
BITMAP
00003C00
00007C00
0000FE00
0001EF00
0003C780
00078780
000F03C0
00000000
00000000
00000000
0000F000
0000F800
0001F800
0001F800
0003F800
0007B800
0007BC00
000F3C00
000F3C00
001E1C00
001C1C00
003C1E00
00381E00
00781E00
00700E00
00F00E00
01E00F00
01E00F00
03C00F00
03FFFF00
07FFFF80
07FFFF80
0F000780
0F000780
1E000380
1C0003C0
3C0003C0
780003C0
780003C0
F00001C0
F00001E0
ENDCHAR
STARTCHAR 00C3
ENCODING 195
SWIDTH 675 0
DWIDTH 30 0
BBX 27 40 2 0
BITMAP
0001F0E0
0007FDC0
0007FFC0
000E1F80
00000000
00000000
00000000
00000000
00000000
0000F000
0000F800
0001F800
0001F800
0003F800
0007B800
0007BC00
000F3C00
000F3C00
001E1C00
001C1C00
003C1E00
00381E00
00781E00
00700E00
00F00E00
01E00F00
01E00F00
03C00F00
03FFFF00
07FFFF80
07FFFF80
0F000780
0F000780
1E000380
1C0003C0
3C0003C0
780003C0
780003C0
F00001C0
F00001E0
ENDCHAR
STARTCHAR 00C4
ENCODING 196
SWIDTH 675 0
DWIDTH 30 0
BBX 27 40 2 0
BITMAP
000383C0
0007C3E0
0007C7C0
000783C0
00000100
00000000
00000000
00000000
00000000
0000F000
0000F800
0001F800
0001F800
0003F800
0007B800
0007BC00
000F3C00
000F3C00
001E1C00
001C1C00
003C1E00
00381E00
00781E00
00700E00
00F00E00
01E00F00
01E00F00
03C00F00
03FFFF00
07FFFF80
07FFFF80
0F000780
0F000780
1E000380
1C0003C0
3C0003C0
780003C0
780003C0
F00001C0
F00001E0
ENDCHAR
STARTCHAR 00C5
ENCODING 197
SWIDTH 675 0
DWIDTH 30 0
BBX 27 43 2 0
BITMAP
00001800
00007E00
00006600
0000C300
0000C300
0000C600
0000FC00
00007800
00000000
00000000
00000000
00000000
0000F000
0000F800
0001F800
0001F800
0003F800
0007B800
0007BC00
000F3C00
000F3C00
001E1C00
001C1C00
003C1E00
00381E00
00781E00
00700E00
00F00E00
01E00F00
01E00F00
03C00F00
03FFFF00
07FFFF80
07FFFF80
0F000780
0F000780
1E000380
1C0003C0
3C0003C0
780003C0
780003C0
F00001C0
F00001E0
ENDCHAR
STARTCHAR 00C6
ENCODING 198
SWIDTH 945 0
DWIDTH 42 0
BBX 44 31 1 0
BITMAP
000007FFFFF0
000007FFFFF0
00000FFFFFF0
00001FF00000
00001EF00000
00003CF00000
00007CF00000
0000F8E00000
0000F1E00000
0001E1E00000
0003E1E00000
0003C1E00000
000781E00000
000F83C00000
000F03FFFF00
001E03FFFE00
003C03FFFE00
007C03C00000
007803C00000
00FFFF800000
01FFFF800000
01FFFF800000
03C007800000
078007800000
0F8007800000
0F000F000000
1E000F000000
3E000F000000
3C000FFFFE00
78000FFFFE00
F8000FFFFE00
ENDCHAR
STARTCHAR 00C7
ENCODING 199
SWIDTH 697 0
DWIDTH 31 0
BBX 28 43 5 -11
BITMAP
0003F000
001FFE00
007FFF00
01FFFF80
03F00FC0
07C003E0
0F8001E0
1F0001F0
1E0000F0
3C0000F0
3C0000F0
78000000
78000000
78000000
F0000000
F0000000
F0000000
F0000000
F0000000
F0000000
F0000000
F0000000
F00003C0
F0000780
F8000780
78000F00
7C001E00
3E007E00
3FC3FC00
1FFFF000
07FFE000
01FF8000
00380000
00300000
00780000
007F0000
00070000
00030000
00030000
00030000
00CE0000
00FE0000
00F80000
ENDCHAR
STARTCHAR 00C8
ENCODING 200
SWIDTH 562 0
DWIDTH 25 0
BBX 25 42 3 0
BITMAP
003C0000
001E0000
001E0000
000F0000
000F0000
00070000
00078000
00038000
00000000
00000000
00000000
07FFFF80
07FFFF80
07FFFF00
07800000
07800000
07800000
0F000000
0F000000
0F000000
0F000000
0F000000
0F000000
1E000000
1E000000
1FFFF000
1FFFF000
1FFFF000
1E000000
3C000000
3C000000
3C000000
3C000000
3C000000
38000000
78000000
78000000
78000000
78000000
7FFFF000
7FFFF000
FFFFF000
ENDCHAR
STARTCHAR 00C9
ENCODING 201
SWIDTH 562 0
DWIDTH 25 0
BBX 25 42 3 0
BITMAP
00000F00
00001E00
00003C00
00007800
00007000
0000E000
0001C000
0003C000
00000000
00000000
00000000
07FFFF80
07FFFF80
07FFFF00
07800000
07800000
07800000
0F000000
0F000000
0F000000
0F000000
0F000000
0F000000
1E000000
1E000000
1FFFF000
1FFFF000
1FFFF000
1E000000
3C000000
3C000000
3C000000
3C000000
3C000000
38000000
78000000
78000000
78000000
78000000
7FFFF000
7FFFF000
FFFFF000
ENDCHAR
STARTCHAR 00CA
ENCODING 202
SWIDTH 562 0
DWIDTH 25 0
BBX 25 41 3 0
BITMAP
0001C000
0003E000
0007F000
000F7800
001E3800
003C3C00
00701E00
00000000
00000000
00000000
07FFFF80
07FFFF80
07FFFF00
07800000
07800000
07800000
0F000000
0F000000
0F000000
0F000000
0F000000
0F000000
1E000000
1E000000
1FFFF000
1FFFF000
1FFFF000
1E000000
3C000000
3C000000
3C000000
3C000000
3C000000
38000000
78000000
78000000
78000000
78000000
7FFFF000
7FFFF000
FFFFF000
ENDCHAR
STARTCHAR 00CB
ENCODING 203
SWIDTH 562 0
DWIDTH 25 0
BBX 25 40 3 0
BITMAP
003C1E00
003E3E00
003C3E00
003C3E00
00100800
00000000
00000000
00000000
00000000
07FFFF80
07FFFF80
07FFFF00
07800000
07800000
07800000
0F000000
0F000000
0F000000
0F000000
0F000000
0F000000
1E000000
1E000000
1FFFF000
1FFFF000
1FFFF000
1E000000
3C000000
3C000000
3C000000
3C000000
3C000000
38000000
78000000
78000000
78000000
78000000
7FFFF000
7FFFF000
FFFFF000
ENDCHAR
STARTCHAR 00CC
ENCODING 204
SWIDTH 225 0
DWIDTH 10 0
BBX 9 42 4 0
BITMAP
3C00
3C00
1E00
1E00
0E00
0F00
0700
0780
0000
0000
0000
0780
0F00
0F00
0F00
0F00
0F00
0F00
1E00
1E00
1E00
1E00
1E00
1C00
3C00
3C00
3C00
3C00
3C00
3800
7800
7800
7800
7800
7800
7000
F000
F000
F000
F000
F000
E000
ENDCHAR
STARTCHAR 00CD
ENCODING 205
SWIDTH 225 0
DWIDTH 10 0
BBX 15 42 4 0
BITMAP
001E
003C
0038
0070
00F0
01E0
01C0
0380
0000
0000
0000
0780
0F00
0F00
0F00
0F00
0F00
0F00
1E00
1E00
1E00
1E00
1E00
1C00
3C00
3C00
3C00
3C00
3C00
3800
7800
7800
7800
7800
7800
7000
F000
F000
F000
F000
F000
E000
ENDCHAR
STARTCHAR 00CE
ENCODING 206
SWIDTH 225 0
DWIDTH 10 0
BBX 14 41 4 0
BITMAP
01C0
03E0
0FE0
1EF0
3C78
783C
F01C
0000
0000
0000
0780
0F00
0F00
0F00
0F00
0F00
0F00
1E00
1E00
1E00
1E00
1E00
1C00
3C00
3C00
3C00
3C00
3C00
3800
7800
7800
7800
7800
7800
7000
F000
F000
F000
F000
F000
E000
ENDCHAR
STARTCHAR 00CF
ENCODING 207
SWIDTH 225 0
DWIDTH 10 0
BBX 15 40 4 0
BITMAP
3C1E
7C3E
7C3E
783C
0000
0000
0000
0000
0000
0780
0F00
0F00
0F00
0F00
0F00
0F00
1E00
1E00
1E00
1E00
1E00
1C00
3C00
3C00
3C00
3C00
3C00
3800
7800
7800
7800
7800
7800
7000
F000
F000
F000
F000
F000
E000
ENDCHAR
STARTCHAR 00D0
ENCODING 208
SWIDTH 697 0
DWIDTH 31 0
BBX 28 31 5 0
BITMAP
07FFF000
07FFFC00
0FFFFF00
0F01FF80
0F000FC0
0F0007C0
0E0003E0
0E0001E0
1E0001E0
1E0000F0
1E0000F0
1E0000F0
1C0000F0
1C0000F0
FFF000F0
FFF001F0
3C0001E0
3C0001E0
380001E0
780003C0
780003C0
780007C0
78000780
78000F00
70001F00
F0007E00
F001FC00
F03FF800
FFFFE000
FFFF8000
FFFC0000
ENDCHAR
STARTCHAR 00D1
ENCODING 209
SWIDTH 697 0
DWIDTH 31 0
BBX 30 40 3 0
BITMAP
0003E0E0
0007FFC0
000F7F80
000E1F00
00000000
00000000
00000000
00000000
00000000
07C0001C
07E0003C
07E0003C
07F0003C
07F0003C
07F8003C
0F780038
0F7C0078
0F3C0078
0F3E0078
0F1E0078
0E1F0078
1E0F0070
1E0F80F0
1E0780F0
1E07C0F0
1E03C0F0
1C03E0F0
3C01E0E0
3C01F1E0
3C00F1E0
3C00F9E0
3C0079E0
38007DE0
78003DC0
78003FC0
78001FC0
78001FC0
78000FC0
70000FC0
F0000780
ENDCHAR
STARTCHAR 00D2
ENCODING 210
SWIDTH 720 0
DWIDTH 32 0
BBX 28 42 5 0
BITMAP
000F0000
000F0000
00078000
00078000
00038000
0003C000
0001C000
0001E000
00000000
00000000
0003F000
001FFE00
007FFF00
01FFFF80
03F00FC0
07C007E0
0F8003E0
1F0001F0
1E0001F0
3E0000F0
3C0000F0
780000F0
780000F0
780000F0
F00000F0
F00000F0
F00000F0
F00000F0
F00001F0
F00001E0
F00001E0
F00003E0
F00003C0
F00007C0
F8000F80
F8001F00
7C003F00
7E007E00
3FC3F800
1FFFF000
0FFFE000
03FF0000
ENDCHAR
STARTCHAR 00D3
ENCODING 211
SWIDTH 720 0
DWIDTH 32 0
BBX 28 42 5 0
BITMAP
00000780
00000F00
00000E00
00001C00
00003C00
00007800
00007000
0000E000
00000000
00000000
0003F000
001FFE00
007FFF00
01FFFF80
03F00FC0
07C007E0
0F8003E0
1F0001F0
1E0001F0
3E0000F0
3C0000F0
780000F0
780000F0
780000F0
F00000F0
F00000F0
F00000F0
F00000F0
F00001F0
F00001E0
F00001E0
F00003E0
F00003C0
F00007C0
F8000F80
F8001F00
7C003F00
7E007E00
3FC3F800
1FFFF000
0FFFE000
03FF0000
ENDCHAR
STARTCHAR 00D4
ENCODING 212
SWIDTH 720 0
DWIDTH 32 0
BBX 28 41 5 0
BITMAP
00007000
0001F800
0003F800
0007BC00
000F1E00
001E0F00
003C0F00
00000000
00000000
0003F000
001FFE00
007FFF00
01FFFF80
03F00FC0
07C007E0
0F8003E0
1F0001F0
1E0001F0
3E0000F0
3C0000F0
780000F0
780000F0
780000F0
F00000F0
F00000F0
F00000F0
F00000F0
F00001F0
F00001E0
F00001E0
F00003E0
F00003C0
F00007C0
F8000F80
F8001F00
7C003F00
7E007E00
3FC3F800
1FFFF000
0FFFE000
03FF0000
ENDCHAR
STARTCHAR 00D5
ENCODING 213
SWIDTH 720 0
DWIDTH 32 0
BBX 28 40 5 0
BITMAP
0007C180
000FF780
001FFF00
00383E00
00000000
00000000
00000000
00000000
0003F000
001FFE00
007FFF00
01FFFF80
03F00FC0
07C007E0
0F8003E0
1F0001F0
1E0001F0
3E0000F0
3C0000F0
780000F0
780000F0
780000F0
F00000F0
F00000F0
F00000F0
F00000F0
F00001F0
F00001E0
F00001E0
F00003E0
F00003C0
F00007C0
F8000F80
F8001F00
7C003F00
7E007E00
3FC3F800
1FFFF000
0FFFE000
03FF0000
ENDCHAR
STARTCHAR 00D6
ENCODING 214
SWIDTH 720 0
DWIDTH 32 0
BBX 28 40 5 0
BITMAP
000F0700
001F0F80
001F0F80
001E0F00
00080400
00000000
00000000
00000000
0003F000
001FFE00
007FFF00
01FFFF80
03F00FC0
07C007E0
0F8003E0
1F0001F0
1E0001F0
3E0000F0
3C0000F0
780000F0
780000F0
780000F0
F00000F0
F00000F0
F00000F0
F00000F0
F00001F0
F00001E0
F00001E0
F00003E0
F00003C0
F00007C0
F8000F80
F8001F00
7C003F00
7E007E00
3FC3F800
1FFFF000
0FFFE000
03FF0000
ENDCHAR
STARTCHAR 00D7
ENCODING 215
SWIDTH 540 0
DWIDTH 24 0
BBX 15 14 7 6
BITMAP
1806
380E
7C1E
3E3C
1FF8
0FF0
07E0
07C0
0FE0
1FF0
7CF8
F87C
F03C
6018
ENDCHAR
STARTCHAR 00D8
ENCODING 216
SWIDTH 742 0
DWIDTH 33 0
BBX 32 35 3 -2
BITMAP
0000000F
0000F81E
0007FFBC
001FFFF8
007FFFF0
00FC03F0
01F801F8
03E003F8
03C003FC
0780073C
0F800F3C
0F001E3C
1F003C3C
1E00383E
1E00703C
3C00F03C
3C01E03C
3C03C03C
3C07803C
3C07003C
3C0E0078
3C1E0078
3C3C00F8
3C7800F0
3C7001F0
3EE001E0
1FE003C0
1FC00FC0
0F801F80
0FF0FF00
0FFFFC00
1FFFF800
3CFFE000
78000000
F0000000
ENDCHAR
STARTCHAR 00D9
ENCODING 217
SWIDTH 675 0
DWIDTH 30 0
BBX 28 42 5 0
BITMAP
001E0000
001E0000
000F0000
000F0000
00070000
00078000
00038000
00038000
00000000
00000000
00000000
1E0000F0
1E0000F0
1E0000E0
1C0001E0
3C0001E0
3C0001E0
3C0001E0
3C0001E0
3C0001C0
380003C0
780003C0
780003C0
780003C0
78000380
70000780
70000780
F0000780
F0000780
F0000780
F0000F00
F0000F00
F0000F00
F0001E00
F0001E00
F8003C00
78007C00
7C00F800
7F87F000
3FFFE000
1FFFC000
07FF0000
ENDCHAR
STARTCHAR 00DA
ENCODING 218
SWIDTH 675 0
DWIDTH 30 0
BBX 28 42 5 0
BITMAP
00000F00
00001E00
00003C00
00003800
00007000
0000F000
0000E000
0001C000
00000000
00000000
00000000
1E0000F0
1E0000F0
1E0000E0
1C0001E0
3C0001E0
3C0001E0
3C0001E0
3C0001E0
3C0001C0
380003C0
780003C0
780003C0
780003C0
78000380
70000780
70000780
F0000780
F0000780
F0000780
F0000F00
F0000F00
F0000F00
F0001E00
F0001E00
F8003C00
78007C00
7C00F800
7F87F000
3FFFE000
1FFFC000
07FF0000
ENDCHAR
STARTCHAR 00DB
ENCODING 219
SWIDTH 675 0
DWIDTH 30 0
BBX 28 41 5 0
BITMAP
0001E000
0003F000
0007F000
000F7800
001E3C00
003C1C00
00781E00
00000000
00000000
00000000
1E0000F0
1E0000F0
1E0000E0
1C0001E0
3C0001E0
3C0001E0
3C0001E0
3C0001E0
3C0001C0
380003C0
780003C0
780003C0
780003C0
78000380
70000780
70000780
F0000780
F0000780
F0000780
F0000F00
F0000F00
F0000F00
F0001E00
F0001E00
F8003C00
78007C00
7C00F800
7F87F000
3FFFE000
1FFFC000
07FF0000
ENDCHAR
STARTCHAR 00DC
ENCODING 220
SWIDTH 675 0
DWIDTH 30 0
BBX 28 40 5 0
BITMAP
001E1E00
003E1F00
003E1F00
003C1E00
00080800
00000000
00000000
00000000
00000000
1E0000F0
1E0000F0
1E0000E0
1C0001E0
3C0001E0
3C0001E0
3C0001E0
3C0001E0
3C0001C0
380003C0
780003C0
780003C0
780003C0
78000380
70000780
70000780
F0000780
F0000780
F0000780
F0000F00
F0000F00
F0000F00
F0001E00
F0001E00
F8003C00
78007C00
7C00F800
7F87F000
3FFFE000
1FFFC000
07FF0000
ENDCHAR
STARTCHAR 00DD
ENCODING 221
SWIDTH 607 0
DWIDTH 27 0
BBX 23 42 7 0
BITMAP
0000F0
0001E0
0001C0
0003C0
000780
000700
000E00
001C00
000000
000000
000000
F0001E
F0001E
78003C
780078
780078
3C00F0
3C01E0
3C01E0
1E03C0
1E0780
1E0780
0F0F00
0F1E00
0F1E00
07BC00
07F800
07F800
03F000
03E000
03E000
03C000
03C000
03C000
03C000
03C000
038000
078000
078000
078000
078000
078000
ENDCHAR
STARTCHAR 00DE
ENCODING 222
SWIDTH 585 0
DWIDTH 26 0
BBX 25 31 3 0
BITMAP
07800000
07800000
07800000
07800000
07800000
07FFC000
0FFFF800
0FFFFC00
0FFFFE00
0F003F00
0F000F00
0E000F00
1E000700
1E000780
1E000700
1E000700
1E000F00
1C000F00
3C000E00
3C001E00
3C003C00
3C00FC00
3FFFF800
3FFFE000
7FFFC000
7FF80000
78000000
78000000
78000000
70000000
F0000000
ENDCHAR
STARTCHAR 00DF
ENCODING 223
SWIDTH 562 0
DWIDTH 25 0
BBX 23 32 3 0
BITMAP
000F80
007FF8
00FFFC
01F8FC
03E03E
03C01E
07800E
07800E
0F000E
0F001E
0F001E
0F003C
0E0078
1E01F0
1E3FE0
1E7F80
1E7FE0
1E01F0
1C0078
3C0038
3C0038
3C0038
3C0038
3C0038
380078
780078
7800F0
7801F0
7807E0
78FFC0
70FF80
F1FE00
ENDCHAR
STARTCHAR 00E0
ENCODING 224
SWIDTH 607 0
DWIDTH 27 0
BBX 25 35 3 0
BITMAP
00780000
003C0000
003C0000
001C0000
001E0000
000E0000
000E0000
00070000
00000000
00000000
00000000
007F0000
01FFC780
03FFE700
07F1EF00
0F807F00
1F003F00
1E003F00
3C001F00
3C001E00
78001E00
78001E00
78001E00
78001E00
78001E00
F0003C00
F0003C00
78007C00
78007C00
7800FC00
7C01BC00
3F073800
3FFF7800
1FFC7800
07F07800
ENDCHAR
STARTCHAR 00E1
ENCODING 225
SWIDTH 607 0
DWIDTH 27 0
BBX 25 35 3 0
BITMAP
00001E00
00003C00
00003800
00007800
0000F000
0001E000
0001C000
00038000
00000000
00000000
00000000
007F0000
01FFC780
03FFE700
07F1EF00
0F807F00
1F003F00
1E003F00
3C001F00
3C001E00
78001E00
78001E00
78001E00
78001E00
78001E00
F0003C00
F0003C00
78007C00
78007C00
7800FC00
7C01BC00
3F073800
3FFF7800
1FFC7800
07F07800
ENDCHAR
STARTCHAR 00E2
ENCODING 226
SWIDTH 607 0
DWIDTH 27 0
BBX 25 33 3 0
BITMAP
0003C000
0007C000
000FE000
001CF000
00387800
00F03800
01E03C00
00000000
00000000
007F0000
01FFC780
03FFE700
07F1EF00
0F807F00
1F003F00
1E003F00
3C001F00
3C001E00
78001E00
78001E00
78001E00
78001E00
78001E00
F0003C00
F0003C00
78007C00
78007C00
7800FC00
7C01BC00
3F073800
3FFF7800
1FFC7800
07F07800
ENDCHAR
STARTCHAR 00E3
ENCODING 227
SWIDTH 607 0
DWIDTH 27 0
BBX 25 32 3 0
BITMAP
003F0E00
007FFC00
00F3F800
00E0F000
00000000
00000000
00000000
00000000
007F0000
01FFC780
03FFE700
07F1EF00
0F807F00
1F003F00
1E003F00
3C001F00
3C001E00
78001E00
78001E00
78001E00
78001E00
78001E00
F0003C00
F0003C00
78007C00
78007C00
7800FC00
7C01BC00
3F073800
3FFF7800
1FFC7800
07F07800
ENDCHAR
STARTCHAR 00E4
ENCODING 228
SWIDTH 607 0
DWIDTH 27 0
BBX 25 33 3 0
BITMAP
00381800
00783C00
007C7C00
00787C00
00783800
00000000
00000000
00000000
00000000
007F0000
01FFC780
03FFE700
07F1EF00
0F807F00
1F003F00
1E003F00
3C001F00
3C001E00
78001E00
78001E00
78001E00
78001E00
78001E00
F0003C00
F0003C00
78007C00
78007C00
7800FC00
7C01BC00
3F073800
3FFF7800
1FFC7800
07F07800
ENDCHAR
STARTCHAR 00E5
ENCODING 229
SWIDTH 607 0
DWIDTH 27 0
BBX 25 35 3 0
BITMAP
0003C000
0007E000
000C6000
000C2000
00086000
000C6000
000FC000
00070000
00000000
00000000
00000000
007F0000
01FFC780
03FFE700
07F1EF00
0F807F00
1F003F00
1E003F00
3C001F00
3C001E00
78001E00
78001E00
78001E00
78001E00
78001E00
F0003C00
F0003C00
78007C00
78007C00
7800FC00
7C01BC00
3F073800
3FFF7800
1FFC7800
07F07800
ENDCHAR
STARTCHAR 00E6
ENCODING 230
SWIDTH 922 0
DWIDTH 41 0
BBX 39 24 3 0
BITMAP
003F001FC0
00FFC07FF0
03FFE1FFF8
07E1F3E0F8
0F0077803C
1E007F003C
1E003E001C
00003C001E
00003C001E
00003C001E
000078001E
03FFFFFFFE
0FFFFFFFFE
3F80780000
7C00780000
7800F80000
7000F80000
F000F80078
F001FC00F8
F003BC01F0
780F1F03E0
7FFE1FFFC0
3FFC0FFF80
1FF003FE00
ENDCHAR
STARTCHAR 00E7
ENCODING 231
SWIDTH 562 0
DWIDTH 25 0
BBX 22 35 4 -11
BITMAP
007F00
01FFC0
07FFE0
0FC3F0
1F00F8
3E0078
3C0078
78003C
78003C
F00000
F00000
F00000
F00000
E00000
E00000
F00070
F000F0
F000F0
F001E0
F803C0
7C0FC0
3FFF80
1FFE00
0FF800
01C000
018000
01C000
03F800
003800
001C00
001C00
001800
067800
07F000
07C000
ENDCHAR
STARTCHAR 00E8
ENCODING 232
SWIDTH 562 0
DWIDTH 25 0
BBX 21 35 4 0
BITMAP
00F000
007800
007800
003800
003C00
001C00
001E00
000E00
000000
000000
000000
007FC0
03FFE0
07FFF0
0F80F8
1E0078
3C0038
380038
780038
700078
F000F0
FFFFF0
FFFFC0
FFFF80
E00000
E00000
E00000
F00000
F000F0
F001E0
7803C0
7E0FC0
3FFF80
1FFE00
07F800
ENDCHAR
STARTCHAR 00E9
ENCODING 233
SWIDTH 562 0
DWIDTH 25 0
BBX 22 35 4 0
BITMAP
00003C
000078
000070
0000F0
0001E0
0001C0
000380
000700
000000
000000
000000
007FC0
03FFE0
07FFF0
0F80F8
1E0078
3C0038
380038
780038
700078
F000F0
FFFFF0
FFFFC0
FFFF80
E00000
E00000
E00000
F00000
F000F0
F001E0
7803C0
7E0FC0
3FFF80
1FFE00
07F800
ENDCHAR
STARTCHAR 00EA
ENCODING 234
SWIDTH 562 0
DWIDTH 25 0
BBX 21 33 4 0
BITMAP
000780
000FC0
001FC0
0039E0
0070F0
00E070
03C078
000000
000000
007FC0
03FFE0
07FFF0
0F80F8
1E0078
3C0038
380038
780038
700078
F000F0
FFFFF0
FFFFC0
FFFF80
E00000
E00000
E00000
F00000
F000F0
F001E0
7803C0
7E0FC0
3FFF80
1FFE00
07F800
ENDCHAR
STARTCHAR 00EB
ENCODING 235
SWIDTH 562 0
DWIDTH 25 0
BBX 21 33 4 0
BITMAP
007030
00F878
00F8F8
00F0F8
00F070
000000
000000
000000
000000
007FC0
03FFE0
07FFF0
0F80F8
1E0078
3C0038
380038
780038
700078
F000F0
FFFFF0
FFFFC0
FFFF80
E00000
E00000
E00000
F00000
F000F0
F001E0
7803C0
7E0FC0
3FFF80
1FFE00
07F800
ENDCHAR
STARTCHAR 00EC
ENCODING 236
SWIDTH 247 0
DWIDTH 11 0
BBX 7 35 4 0
BITMAP
F8
78
78
3C
3C
1C
1E
0E
00
00
00
00
1E
1E
1E
1E
1E
1C
3C
3C
3C
3C
3C
38
78
78
78
78
78
70
F0
F0
F0
F0
F0
ENDCHAR
STARTCHAR 00ED
ENCODING 237
SWIDTH 247 0
DWIDTH 11 0
BBX 14 35 4 0
BITMAP
003C
003C
0078
00F0
01E0
01C0
0380
0780
0000
0000
0000
0000
1E00
1E00
1E00
1E00
1E00
1C00
3C00
3C00
3C00
3C00
3C00
3800
7800
7800
7800
7800
7800
7000
F000
F000
F000
F000
F000
ENDCHAR
STARTCHAR 00EE
ENCODING 238
SWIDTH 247 0
DWIDTH 11 0
BBX 14 33 3 0
BITMAP
03C0
07E0
0FF0
1EF0
3C78
783C
F01C
0000
0000
0000
0F00
0F00
0F00
0F00
0F00
0E00
1E00
1E00
1E00
1E00
1E00
1C00
3C00
3C00
3C00
3C00
3C00
3800
7800
7800
7800
7800
7800
ENDCHAR
STARTCHAR 00EF
ENCODING 239
SWIDTH 247 0
DWIDTH 11 0
BBX 14 33 4 0
BITMAP
3038
F87C
F87C
F878
F078
0000
0000
0000
0000
0000
1E00
1E00
1E00
1E00
1E00
1C00
3C00
3C00
3C00
3C00
3C00
3800
7800
7800
7800
7800
7800
7000
F000
F000
F000
F000
F000
ENDCHAR
STARTCHAR 00F0
ENCODING 240
SWIDTH 607 0
DWIDTH 27 0
BBX 25 35 4 0
BITMAP
000F0100
001FC780
001FFF00
0003FC00
0000F800
0003FC00
000FBE00
00061E00
00001E00
00001E00
00000E00
00FE0E00
03FF8E00
07FFCE00
0FE3CE00
1F00EE00
3E007E00
3C003E00
78003E00
78003C00
F0003C00
F0003C00
F0003C00
F0003C00
F0003800
F0007800
F0007800
F000F000
F000F000
F001E000
7803C000
7E0FC000
3FFF0000
1FFE0000
0FF80000
ENDCHAR
STARTCHAR 00F1
ENCODING 241
SWIDTH 607 0
DWIDTH 27 0
BBX 24 32 3 0
BITMAP
003F0E
007FFC
0073FC
00E0F0
000000
000000
000000
000000
0007F0
0F1FF8
0F3FFC
0F7DFE
0FC03E
1F801F
1F001F
1F000F
1E000F
1E000F
1C000E
3C001E
3C001E
3C001E
3C001E
3C001E
38001C
78003C
78003C
78003C
78003C
78003C
700038
F00078
ENDCHAR
STARTCHAR 00F2
ENCODING 242
SWIDTH 562 0
DWIDTH 25 0
BBX 22 35 4 0
BITMAP
00F000
00F000
007000
007800
003800
003C00
001C00
001C00
000000
000000
000000
007F00
01FFC0
07FFE0
0FC3F0
1F00F8
3E0078
3C0078
78003C
78003C
F0003C
F0003C
F0003C
E0003C
E00038
E00078
E00078
F000F0
F000F0
F001E0
F803C0
7E0F80
3FFF00
1FFE00
0FF800
ENDCHAR
STARTCHAR 00F3
ENCODING 243
SWIDTH 562 0
DWIDTH 25 0
BBX 22 35 4 0
BITMAP
00007C
000078
0000F0
0001E0
0001C0
000380
000700
000F00
000000
000000
000000
007F00
01FFC0
07FFE0
0FC3F0
1F00F8
3E0078
3C0078
78003C
78003C
F0003C
F0003C
F0003C
E0003C
E00038
E00078
E00078
F000F0
F000F0
F001E0
F803C0
7E0F80
3FFF00
1FFE00
0FF800
ENDCHAR
STARTCHAR 00F4
ENCODING 244
SWIDTH 562 0
DWIDTH 25 0
BBX 22 33 4 0
BITMAP
000F00
001F80
003FC0
0079C0
00F1E0
01E0F0
03C078
000000
000000
007F00
01FFC0
07FFE0
0FC3F0
1F00F8
3E0078
3C0078
78003C
78003C
F0003C
F0003C
F0003C
E0003C
E00038
E00078
E00078
F000F0
F000F0
F001E0
F803C0
7E0F80
3FFF00
1FFE00
0FF800
ENDCHAR
STARTCHAR 00F5
ENCODING 245
SWIDTH 562 0
DWIDTH 25 0
BBX 22 32 4 0
BITMAP
00FC38
01FFF0
01CFF0
0383C0
000000
000000
000000
000000
007F00
01FFC0
07FFE0
0FC3F0
1F00F8
3E0078
3C0078
78003C
78003C
F0003C
F0003C
F0003C
E0003C
E00038
E00078
E00078
F000F0
F000F0
F001E0
F803C0
7E0F80
3FFF00
1FFE00
0FF800
ENDCHAR
STARTCHAR 00F6
ENCODING 246
SWIDTH 562 0
DWIDTH 25 0
BBX 22 33 4 0
BITMAP
006030
00F0F8
01F0F8
01F0F8
01E0F0
000000
000000
000000
000000
007F00
01FFC0
07FFE0
0FC3F0
1F00F8
3E0078
3C0078
78003C
78003C
F0003C
F0003C
F0003C
E0003C
E00038
E00078
E00078
F000F0
F000F0
F001E0
F803C0
7E0F80
3FFF00
1FFE00
0FF800
ENDCHAR
STARTCHAR 00F7
ENCODING 247
SWIDTH 585 0
DWIDTH 26 0
BBX 18 20 5 5
BITMAP
03C000
07C000
07C000
078000
030000
000000
000000
000000
000000
7FFFC0
7FFFC0
FFFFC0
000000
000000
000000
00C000
03E000
03E000
03E000
03C000
ENDCHAR
STARTCHAR 00F8
ENCODING 248
SWIDTH 585 0
DWIDTH 26 0
BBX 23 28 4 -2
BITMAP
00000E
00001C
007F38
01FFF0
07FFF0
0FC3F0
1F01F8
3E03F8
3C03FC
78073C
780E3C
F00E3C
F01C3C
F0383C
E0703C
E07038
E0E078
E1C078
F380F0
F380F0
F701E0
FE03C0
7E0F80
3FFF00
3FFE00
7FF800
700000
E00000
ENDCHAR
STARTCHAR 00F9
ENCODING 249
SWIDTH 585 0
DWIDTH 26 0
BBX 22 35 5 0
BITMAP
01E000
01E000
00E000
00F000
007000
007800
003800
003800
000000
000000
000000
000000
3C001C
3C003C
3C003C
38003C
78003C
78003C
780038
780078
780078
F00078
F00078
F00078
F00070
F000F0
F000F0
F000F0
F001F0
F003F0
F807E0
FC0FE0
7FFDE0
3FF1E0
1FE1E0
ENDCHAR
STARTCHAR 00FA
ENCODING 250
SWIDTH 585 0
DWIDTH 26 0
BBX 22 35 5 0
BITMAP
000078
0000F0
0001E0
0003C0
000380
000700
000F00
000E00
001000
000000
000000
000000
3C001C
3C003C
3C003C
38003C
78003C
78003C
780038
780078
780078
F00078
F00078
F00078
F00070
F000F0
F000F0
F000F0
F001F0
F003F0
F807E0
FC0FE0
7FFDE0
3FF1E0
1FE1E0
ENDCHAR
STARTCHAR 00FB
ENCODING 251
SWIDTH 585 0
DWIDTH 26 0
BBX 22 33 5 0
BITMAP
001E00
003F00
007F80
00F380
01E3C0
03C1E0
0780F0
000000
000000
000000
3C001C
3C003C
3C003C
38003C
78003C
78003C
780038
780078
780078
F00078
F00078
F00078
F00070
F000F0
F000F0
F000F0
F001F0
F003F0
F807E0
FC0FE0
7FFDE0
3FF1E0
1FE1E0
ENDCHAR
STARTCHAR 00FC
ENCODING 252
SWIDTH 585 0
DWIDTH 26 0
BBX 22 33 5 0
BITMAP
00C060
01E1F0
03E1F0
03E1F0
01C1E0
000000
000000
000000
000000
000000
3C001C
3C003C
3C003C
38003C
78003C
78003C
780038
780078
780078
F00078
F00078
F00078
F00070
F000F0
F000F0
F000F0
F001F0
F003F0
F807E0
FC0FE0
7FFDE0
3FF1E0
1FE1E0
ENDCHAR
STARTCHAR 00FD
ENCODING 253
SWIDTH 472 0
DWIDTH 21 0
BBX 25 44 0 -9
BITMAP
00000F00
00001E00
00003C00
00003800
00007000
0000F000
0001E000
0001C000
00000000
00000000
00000000
00000000
07000780
07800780
07800F00
07800F00
07801E00
03801E00
03C03C00
03C03800
03C07800
03C0F000
01C0F000
01E1E000
01E1C000
01E3C000
00E38000
00E78000
00F70000
00FF0000
00FE0000
007C0000
007C0000
00780000
00780000
00F00000
00E00000
01E00000
03C00000
03C00000
0F800000
FF000000
FE000000
F8000000
ENDCHAR
STARTCHAR 00FE
ENCODING 254
SWIDTH 607 0
DWIDTH 27 0
BBX 26 43 2 -10
BITMAP
01E00000
01E00000
03C00000
03C00000
03C00000
03C00000
03C00000
03800000
07800000
0783F800
078FFE00
079FFF00
07BE7F00
07700F80
0FE00F80
0FC00780
0F800780
0F0003C0
0F0003C0
0F0003C0
1E000380
1E000780
1E000780
1E000780
1E000F00
1E000F00
3E001F00
3F003E00
3F807C00
3DC1F800
3DFFF000
38FFE000
783F8000
78000000
78000000
78000000
78000000
F0000000
F0000000
F0000000
F0000000
F0000000
F0000000
ENDCHAR
STARTCHAR 00FF
ENCODING 255
SWIDTH 472 0
DWIDTH 21 0
BBX 25 42 0 -9
BITMAP
00180C00
003C1E00
007C3E00
007C3E00
00383C00
00000000
00000000
00000000
00000000
00000000
07000780
07800780
07800F00
07800F00
07801E00
03801E00
03C03C00
03C03800
03C07800
03C0F000
01C0F000
01E1E000
01E1C000
01E3C000
00E38000
00E78000
00F70000
00FF0000
00FE0000
007C0000
007C0000
00780000
00780000
00F00000
00E00000
01E00000
03C00000
03C00000
0F800000
FF000000
FE000000
F8000000
ENDCHAR
STARTCHAR 0100
ENCODING 256
SWIDTH 675 0
DWIDTH 30 0
BBX 27 38 2 0
BITMAP
0007FFC0
0007FFC0
000FFFC0
00000000
00000000
00000000
00000000
0000F000
0000F800
0001F800
0001F800
0003F800
0007B800
0007BC00
000F3C00
000F3C00
001E1C00
001C1C00
003C1E00
00381E00
00781E00
00700E00
00F00E00
01E00F00
01E00F00
03C00F00
03FFFF00
07FFFF80
07FFFF80
0F000780
0F000780
1E000380
1C0003C0
3C0003C0
780003C0
780003C0
F00001C0
F00001E0
ENDCHAR
STARTCHAR 0101
ENCODING 257
SWIDTH 607 0
DWIDTH 27 0
BBX 25 30 3 0
BITMAP
007FFC00
00FFFC00
00000000
00000000
00000000
00000000
007F0000
01FFC780
03FFE700
07F1EF00
0F807F00
1F003F00
1E003F00
3C001F00
3C001E00
78001E00
78001E00
78001E00
78001E00
78001E00
F0003C00
F0003C00
78007C00
78007C00
7800FC00
7C01BC00
3F073800
3FFF7800
1FFC7800
07F07800
ENDCHAR
STARTCHAR 0102
ENCODING 258
SWIDTH 675 0
DWIDTH 30 0
BBX 27 39 2 0
BITMAP
000701E0
000783C0
0003FF80
0001FE00
00000000
00000000
00000000
00000000
0000F000
0000F800
0001F800
0001F800
0003F800
0007B800
0007BC00
000F3C00
000F3C00
001E1C00
001C1C00
003C1E00
00381E00
00781E00
00700E00
00F00E00
01E00F00
01E00F00
03C00F00
03FFFF00
07FFFF80
07FFFF80
0F000780
0F000780
1E000380
1C0003C0
3C0003C0
780003C0
780003C0
F00001C0
F00001E0
ENDCHAR
STARTCHAR 0103
ENCODING 259
SWIDTH 607 0
DWIDTH 27 0
BBX 25 32 3 0
BITMAP
00F00E00
00701C00
007CF800
003FF000
000FC000
00000000
00000000
00000000
007F0000
01FFC780
03FFE700
07F1EF00
0F807F00
1F003F00
1E003F00
3C001F00
3C001E00
78001E00
78001E00
78001E00
78001E00
78001E00
F0003C00
F0003C00
78007C00
78007C00
7800FC00
7C01BC00
3F073800
3FFF7800
1FFC7800
07F07800
ENDCHAR
STARTCHAR 0104
ENCODING 260
SWIDTH 675 0
DWIDTH 30 0
BBX 27 38 2 -7
BITMAP
0000F000
0000F800
0001F800
0001F800
0003F800
0007B800
0007BC00
000F3C00
000F3C00
001E1C00
001C1C00
003C1E00
00381E00
00781E00
00700E00
00F00E00
01E00F00
01E00F00
03C00F00
03FFFF00
07FFFF80
07FFFF80
0F000780
0F000780
1E000380
1C0003C0
3C0003C0
780003C0
780003C0
F00001C0
F00001E0
00000380
00000700
00000E00
00000E00
00000E00
00000FE0
000007E0
ENDCHAR
STARTCHAR 0105
ENCODING 261
SWIDTH 607 0
DWIDTH 27 0
BBX 25 31 3 -7
BITMAP
007F0000
01FFC780
03FFE700
07F1EF00
0F807F00
1F003F00
1E003F00
3C001F00
3C001E00
78001E00
78001E00
78001E00
78001E00
78001E00
F0003C00
F0003C00
78007C00
78007C00
7800FC00
7C01BC00
3F073800
3FFF7800
1FFC7800
07F07800
00007000
0000E000
0001C000
0001C000
0001C000
0001F800
0000F800
ENDCHAR
STARTCHAR 0106
ENCODING 262
SWIDTH 697 0
DWIDTH 31 0
BBX 28 42 5 0
BITMAP
00000780
00000F00
00001E00
00003C00
00003800
00007000
0000E000
0000E000
00000000
00000000
0003F000
001FFE00
007FFF00
01FFFF80
03F00FC0
07C003E0
0F8001E0
1F0001F0
1E0000F0
3C0000F0
3C0000F0
78000000
78000000
78000000
F0000000
F0000000
F0000000
F0000000
F0000000
F0000000
F0000000
F0000000
F00003C0
F0000780
F8000780
78000F00
7C001F00
3E007E00
3FC3FC00
1FFFF000
0FFFE000
03FF8000
ENDCHAR
STARTCHAR 0107
ENCODING 263
SWIDTH 562 0
DWIDTH 25 0
BBX 22 35 4 0
BITMAP
00003C
000078
0000F0
0001E0
0001C0
000380
000780
000700
000800
000000
000000
007F00
01FFC0
07FFE0
0FC3F0
1F00F8
3E0078
3C0078
78003C
78003C
F00000
F00000
F00000
F00000
E00000
E00000
F00070
F000F0
F000F0
F001E0
F803C0
7C0FC0
3FFF80
1FFE00
0FF800
ENDCHAR
STARTCHAR 010A
ENCODING 266
SWIDTH 697 0
DWIDTH 31 0
BBX 28 40 5 0
BITMAP
0000F000
0001F000
0001F000
0001E000
00000000
00000000
00000000
00000000
0003F000
001FFE00
007FFF00
01FFFF80
03F00FC0
07C003E0
0F8001E0
1F0001F0
1E0000F0
3C0000F0
3C0000F0
78000000
78000000
78000000
F0000000
F0000000
F0000000
F0000000
F0000000
F0000000
F0000000
F0000000
F00003C0
F0000780
F8000780
78000F00
7C001F00
3E007E00
3FC3FC00
1FFFF000
0FFFE000
03FF8000
ENDCHAR
STARTCHAR 010B
ENCODING 267
SWIDTH 562 0
DWIDTH 25 0
BBX 22 33 4 0
BITMAP
000600
000F00
001F00
001F00
000E00
000000
000000
000000
000000
007F00
01FFC0
07FFE0
0FC3F0
1F00F8
3E0078
3C0078
78003C
78003C
F00000
F00000
F00000
F00000
E00000
E00000
F00070
F000F0
F000F0
F001E0
F803C0
7C0FC0
3FFF80
1FFE00
0FF800
ENDCHAR
STARTCHAR 010C
ENCODING 268
SWIDTH 697 0
DWIDTH 31 0
BBX 28 41 5 0
BITMAP
003C0780
001E0F00
000F1E00
00073C00
0007F800
0003F000
0001E000
00000000
00000000
0003F000
001FFE00
007FFF00
01FFFF80
03F00FC0
07C003E0
0F8001E0
1F0001F0
1E0000F0
3C0000F0
3C0000F0
78000000
78000000
78000000
F0000000
F0000000
F0000000
F0000000
F0000000
F0000000
F0000000
F0000000
F00003C0
F0000780
F8000780
78000F00
7C001F00
3E007E00
3FC3FC00
1FFFF000
0FFFE000
03FF8000
ENDCHAR
STARTCHAR 010D
ENCODING 269
SWIDTH 562 0
DWIDTH 25 0
BBX 22 33 4 0
BITMAP
01E038
00F070
0071E0
007BC0
003F80
001F00
001E00
000000
000000
007F00
01FFC0
07FFE0
0FC3F0
1F00F8
3E0078
3C0078
78003C
78003C
F00000
F00000
F00000
F00000
E00000
E00000
F00070
F000F0
F000F0
F001E0
F803C0
7C0FC0
3FFF80
1FFE00
0FF800
ENDCHAR
STARTCHAR 010E
ENCODING 270
SWIDTH 675 0
DWIDTH 30 0
BBX 29 41 3 0
BITMAP
001E03C0
000F0780
00070F00
00079E00
0003FC00
0001F800
0000F000
00000000
00000000
00000000
07FFF800
07FFFF00
07FFFF80
07803FC0
078007E0
070003E0
0F0001F0
0F0000F0
0F0000F0
0F0000F0
0F0000F8
0E0000F8
1E0000F8
1E0000F8
1E0000F0
1E0000F0
1E0000F0
1C0000F0
3C0001F0
3C0001E0
3C0001E0
3C0003C0
380007C0
38000780
78000F80
78003F00
7800FE00
7FFFFC00
7FFFF000
7FFFE000
FFFF0000
ENDCHAR
STARTCHAR 010F
ENCODING 271
SWIDTH 720 0
DWIDTH 32 0
BBX 33 35 4 0
BITMAP
0000000700
0000000F80
0000079F80
0000079F80
0000078F80
0000078380
0000078380
0000070300
00000F0300
00000F0600
00000F1C00
00FE0F1000
03FF8F0000
07FFCE0000
0FE7DE0000
1F00FE0000
3E007E0000
3C007E0000
78003E0000
78003C0000
F0003C0000
F0003C0000
F0003C0000
F0003C0000
F0003C0000
E000780000
E000780000
F000F80000
F000F80000
F001F80000
F803780000
7E0E700000
7FFCF00000
3FF8F00000
0FF0F00000
ENDCHAR
STARTCHAR 0110
ENCODING 272
SWIDTH 697 0
DWIDTH 31 0
BBX 28 31 5 0
BITMAP
07FFF000
07FFFC00
0FFFFF00
0F01FF80
0F000FC0
0F0007C0
0E0003E0
0E0001E0
1E0001E0
1E0000F0
1E0000F0
1E0000F0
1C0000F0
1C0000F0
FFF000F0
FFF001F0
3C0001E0
3C0001E0
380001E0
780003C0
780003C0
780007C0
78000780
78000F00
70001F00
F0007E00
F001FC00
F03FF800
FFFFE000
FFFF8000
FFFC0000
ENDCHAR
STARTCHAR 0111
ENCODING 273
SWIDTH 652 0
DWIDTH 29 0
BBX 28 33 4 0
BITMAP
00000780
00000780
00000780
0001FFF0
0003FFF0
0003FFF0
00000F00
00000F00
00000F00
00FE0F00
03FF8F00
07FFCE00
0FE7DE00
1F00FE00
3E007E00
3C007E00
78003E00
78003C00
F0003C00
F0003C00
F0003C00
F0003C00
F0003C00
E0007800
E0007800
F000F800
F000F800
F001F800
F8037800
7E0E7000
7FFCF000
3FF8F000
0FF0F000
ENDCHAR
STARTCHAR 0112
ENCODING 274
SWIDTH 562 0
DWIDTH 25 0
BBX 25 38 3 0
BITMAP
003FFE00
007FFE00
007FFE00
00000000
00000000
00000000
00000000
07FFFF80
07FFFF80
07FFFF00
07800000
07800000
07800000
0F000000
0F000000
0F000000
0F000000
0F000000
0F000000
1E000000
1E000000
1FFFF000
1FFFF000
1FFFF000
1E000000
3C000000
3C000000
3C000000
3C000000
3C000000
38000000
78000000
78000000
78000000
78000000
7FFFF000
7FFFF000
FFFFF000
ENDCHAR
STARTCHAR 0113
ENCODING 275
SWIDTH 562 0
DWIDTH 25 0
BBX 21 30 4 0
BITMAP
00FFF8
01FFF8
000000
000000
000000
000000
007FC0
03FFE0
07FFF0
0F80F8
1E0078
3C0038
380038
780038
700078
F000F0
FFFFF0
FFFFC0
FFFF80
E00000
E00000
E00000
F00000
F000F0
F001E0
7803C0
7E0FC0
3FFF80
1FFE00
07F800
ENDCHAR
STARTCHAR 0116
ENCODING 278
SWIDTH 562 0
DWIDTH 25 0
BBX 25 40 3 0
BITMAP
0001C000
0003E000
0003E000
0003C000
00000000
00000000
00000000
00000000
00000000
07FFFF80
07FFFF80
07FFFF00
07800000
07800000
07800000
0F000000
0F000000
0F000000
0F000000
0F000000
0F000000
1E000000
1E000000
1FFFF000
1FFFF000
1FFFF000
1E000000
3C000000
3C000000
3C000000
3C000000
3C000000
38000000
78000000
78000000
78000000
78000000
7FFFF000
7FFFF000
FFFFF000
ENDCHAR
STARTCHAR 0117
ENCODING 279
SWIDTH 562 0
DWIDTH 25 0
BBX 21 33 4 0
BITMAP
000300
000F80
000F80
000F80
000F00
000000
000000
000000
000000
007FC0
03FFE0
07FFF0
0F80F8
1E0078
3C0038
380038
780038
700078
F000F0
FFFFF0
FFFFC0
FFFF80
E00000
E00000
E00000
F00000
F000F0
F001E0
7803C0
7E0FC0
3FFF80
1FFE00
07F800
ENDCHAR
STARTCHAR 0118
ENCODING 280
SWIDTH 562 0
DWIDTH 25 0
BBX 25 38 3 -7
BITMAP
07FFFF80
07FFFF80
07FFFF00
07800000
07800000
07800000
0F000000
0F000000
0F000000
0F000000
0F000000
0F000000
1E000000
1E000000
1FFFF000
1FFFF000
1FFFF000
1E000000
3C000000
3C000000
3C000000
3C000000
3C000000
38000000
78000000
78000000
78000000
78000000
7FFFF000
7FFFF000
FFFFF000
0001E000
00038000
00038000
00030000
00038000
0003F000
0001F000
ENDCHAR
STARTCHAR 0119
ENCODING 281
SWIDTH 562 0
DWIDTH 25 0
BBX 21 31 4 -7
BITMAP
007FC0
03FFE0
07FFF0
0F80F8
1E0078
3C0038
380038
780038
700078
F000F0
FFFFF0
FFFFC0
FFFF80
E00000
E00000
E00000
F00000
F000F0
F001E0
7803C0
7E0FC0
3FFF80
1FFE00
07F800
007000
00E000
01C000
018000
01C000
01F800
00F800
ENDCHAR
STARTCHAR 011A
ENCODING 282
SWIDTH 562 0
DWIDTH 25 0
BBX 25 41 3 0
BITMAP
00780F00
003C1E00
001E3C00
001E7800
000FF000
0007E000
0003C000
00000000
00000000
00000000
07FFFF80
07FFFF80
07FFFF00
07800000
07800000
07800000
0F000000
0F000000
0F000000
0F000000
0F000000
0F000000
1E000000
1E000000
1FFFF000
1FFFF000
1FFFF000
1E000000
3C000000
3C000000
3C000000
3C000000
3C000000
38000000
78000000
78000000
78000000
78000000
7FFFF000
7FFFF000
FFFFF000
ENDCHAR
STARTCHAR 011B
ENCODING 283
SWIDTH 562 0
DWIDTH 25 0
BBX 22 33 4 0
BITMAP
00E03C
00F078
0078F0
003DE0
001FC0
001F80
000F00
000000
000000
007FC0
03FFE0
07FFF0
0F80F8
1E0078
3C0038
380038
780038
700078
F000F0
FFFFF0
FFFFC0
FFFF80
E00000
E00000
E00000
F00000
F000F0
F001E0
7803C0
7E0FC0
3FFF80
1FFE00
07F800
ENDCHAR
STARTCHAR 011E
ENCODING 286
SWIDTH 697 0
DWIDTH 31 0
BBX 28 39 5 0
BITMAP
001C0780
001E0F00
000FFE00
0007F800
00000000
00000000
00000000
0003F000
001FFC00
007FFF00
01FFFF80
03F00FC0
07C007C0
0F8003E0
1F0001E0
1E0001E0
3C0000F0
3C000000
78000000
78000000
78000000
F0000000
F0000000
F003FFE0
F003FFE0
F003FFC0
F00001C0
F00003C0
F00003C0
F00003C0
F00007C0
F0000780
78000F80
7C001F80
7E007B80
3F01F380
1FFFE780
0FFFC700
03FF0700
ENDCHAR
STARTCHAR 011F
ENCODING 287
SWIDTH 607 0
DWIDTH 27 0
BBX 24 41 4 -9
BITMAP
01C03C
01E078
00F9F0
007FE0
001F80
000000
000000
000000
00FE00
03FF8F
07FF8E
0FC3DE
1F00FE
3E007E
3C007E
78003E
78003C
F0003C
F0003C
F0003C
F0003C
F0007C
F00078
F00078
F000F8
F001F8
F803F8
7C0778
7FFEF0
3FFCF0
1FF0F0
0300F0
0000F0
0001E0
0001E0
0003C0
0007C0
001F80
0FFF00
0FFC00
0FF800
ENDCHAR
STARTCHAR 0120
ENCODING 288
SWIDTH 697 0
DWIDTH 31 0
BBX 28 40 5 0
BITMAP
0000F000
0001F000
0001F000
0001E000
00000000
00000000
00000000
00000000
0003F000
001FFC00
007FFF00
01FFFF80
03F00FC0
07C007C0
0F8003E0
1F0001E0
1E0001E0
3C0000F0
3C000000
78000000
78000000
78000000
F0000000
F0000000
F003FFE0
F003FFE0
F003FFC0
F00001C0
F00003C0
F00003C0
F00003C0
F00007C0
F0000780
78000F80
7C001F80
7E007B80
3F01F380
1FFFE780
0FFFC700
03FF0700
ENDCHAR
STARTCHAR 0121
ENCODING 289
SWIDTH 607 0
DWIDTH 27 0
BBX 24 42 4 -9
BITMAP
000700
000F00
000F80
000F00
000F00
000000
000000
000000
000000
00FE00
03FF8F
07FF8E
0FC3DE
1F00FE
3E007E
3C007E
78003E
78003C
F0003C
F0003C
F0003C
F0003C
F0007C
F00078
F00078
F000F8
F001F8
F803F8
7C0778
7FFEF0
3FFCF0
1FF0F0
0300F0
0000F0
0001E0
0001E0
0003C0
0007C0
001F80
0FFF00
0FFC00
0FF800
ENDCHAR
STARTCHAR 0126
ENCODING 294
SWIDTH 675 0
DWIDTH 30 0
BBX 30 31 4 0
BITMAP
07800070
078000F0
0F0000F0
0F0000F0
0F0000F0
7FFFFFFC
7FFFFFFC
7FFFFFFC
1E0001E0
1E0001E0
1E0001E0
1E0001E0
1E0003C0
1C0003C0
3FFFFFC0
3FFFFFC0
3FFFFFC0
3C000380
3C000780
38000780
78000780
78000780
78000780
78000700
78000F00
70000F00
F0000F00
F0000F00
F0000F00
F0000E00
F0001E00
ENDCHAR
STARTCHAR 0127
ENCODING 295
SWIDTH 585 0
DWIDTH 26 0
BBX 23 33 4 0
BITMAP
078000
078000
078000
7FFE00
7FFE00
7FFE00
0F0000
0F0000
0F0000
0F07F0
0E1FF8
1E7FFC
1EF9FE
1EC03E
1F801E
1F001E
3E001E
3E001E
3C001E
3C001E
3C001E
3C001E
78001C
78003C
78003C
78003C
78003C
780038
F00078
F00078
F00078
F00078
F00078
ENDCHAR
STARTCHAR 0128
ENCODING 296
SWIDTH 225 0
DWIDTH 10 0
BBX 15 40 4 0
BITMAP
1F06
3FDE
7FFC
60F8
0000
0000
0000
0000
0000
0780
0F00
0F00
0F00
0F00
0F00
0F00
1E00
1E00
1E00
1E00
1E00
1C00
3C00
3C00
3C00
3C00
3C00
3800
7800
7800
7800
7800
7800
7000
F000
F000
F000
F000
F000
E000
ENDCHAR
STARTCHAR 0129
ENCODING 297
SWIDTH 247 0
DWIDTH 11 0
BBX 15 32 3 0
BITMAP
3F0E
7FFC
73FC
E0F0
0000
0000
0000
0000
0000
0F00
0F00
0F00
0F00
0F00
0E00
1E00
1E00
1E00
1E00
1E00
1C00
3C00
3C00
3C00
3C00
3C00
3800
7800
7800
7800
7800
7800
ENDCHAR
STARTCHAR 012A
ENCODING 298
SWIDTH 225 0
DWIDTH 10 0
BBX 14 38 4 0
BITMAP
7FFC
7FFC
7FFC
0000
0000
0000
0000
0780
0F00
0F00
0F00
0F00
0F00
0F00
1E00
1E00
1E00
1E00
1E00
1C00
3C00
3C00
3C00
3C00
3C00
3800
7800
7800
7800
7800
7800
7000
F000
F000
F000
F000
F000
E000
ENDCHAR
STARTCHAR 012B
ENCODING 299
SWIDTH 247 0
DWIDTH 11 0
BBX 13 30 4 0
BITMAP
FFF8
FFF8
0000
0000
0000
0000
0000
1E00
1E00
1E00
1E00
1E00
1C00
3C00
3C00
3C00
3C00
3C00
3800
7800
7800
7800
7800
7800
7000
F000
F000
F000
F000
F000
ENDCHAR
STARTCHAR 012E
ENCODING 302
SWIDTH 225 0
DWIDTH 10 0
BBX 11 38 2 -7
BITMAP
01E0
03C0
03C0
03C0
03C0
03C0
03C0
0780
0780
0780
0780
0780
0700
0F00
0F00
0F00
0F00
0F00
0E00
1E00
1E00
1E00
1E00
1E00
1C00
3C00
3C00
3C00
3C00
3C00
3800
7800
E000
C000
C000
E000
FC00
7C00
ENDCHAR
STARTCHAR 012F
ENCODING 303
SWIDTH 247 0
DWIDTH 11 0
BBX 11 40 2 -7
BITMAP
00C0
01E0
03E0
03E0
01C0
0000
0000
0000
0000
0000
0780
0780
0780
0780
0780
0700
0F00
0F00
0F00
0F00
0F00
0E00
1E00
1E00
1E00
1E00
1E00
1C00
3C00
3C00
3C00
3C00
3C00
7800
E000
E000
C000
E000
FC00
7C00
ENDCHAR
STARTCHAR 0130
ENCODING 304
SWIDTH 225 0
DWIDTH 10 0
BBX 10 40 4 0
BITMAP
03C0
07C0
07C0
03C0
0100
0000
0000
0000
0000
0780
0F00
0F00
0F00
0F00
0F00
0F00
1E00
1E00
1E00
1E00
1E00
1C00
3C00
3C00
3C00
3C00
3C00
3800
7800
7800
7800
7800
7800
7000
F000
F000
F000
F000
F000
E000
ENDCHAR
STARTCHAR 0131
ENCODING 305
SWIDTH 247 0
DWIDTH 11 0
BBX 7 23 4 0
BITMAP
1E
1E
1E
1E
1E
1C
3C
3C
3C
3C
3C
38
78
78
78
78
78
70
F0
F0
F0
F0
F0
ENDCHAR
STARTCHAR 0139
ENCODING 313
SWIDTH 517 0
DWIDTH 23 0
BBX 19 42 3 0
BITMAP
000F00
001E00
003C00
003800
007000
00F000
00E000
01C000
000000
000000
000000
078000
078000
078000
078000
078000
078000
0F0000
0F0000
0F0000
0F0000
0F0000
0F0000
1E0000
1E0000
1E0000
1E0000
1E0000
1C0000
3C0000
3C0000
3C0000
3C0000
3C0000
380000
780000
780000
780000
780000
7FFFE0
7FFFE0
FFFFE0
ENDCHAR
STARTCHAR 013A
ENCODING 314
SWIDTH 292 0
DWIDTH 13 0
BBX 15 44 4 0
BITMAP
001E
001C
003C
0078
00F0
00E0
01C0
0380
0000
0000
0000
0780
0780
0780
0F00
0F00
0F00
0F00
0F00
0E00
1E00
1E00
1E00
1E00
1E00
1C00
3C00
3C00
3C00
3C00
3C00
3800
7800
7800
7800
7800
7800
7000
F000
F000
F800
FF80
7F00
3F00
ENDCHAR
STARTCHAR 013D
ENCODING 317
SWIDTH 517 0
DWIDTH 23 0
BBX 19 41 3 0
BITMAP
380780
3C0F00
1E1C00
0F3800
07F000
07E000
03C000
000000
000000
000000
078000
078000
078000
078000
078000
078000
0F0000
0F0000
0F0000
0F0000
0F0000
0F0000
1E0000
1E0000
1E0000
1E0000
1E0000
1C0000
3C0000
3C0000
3C0000
3C0000
3C0000
380000
780000
780000
780000
780000
7FFFE0
7FFFE0
FFFFE0
ENDCHAR
STARTCHAR 013E
ENCODING 318
SWIDTH 337 0
DWIDTH 15 0
BBX 12 35 4 0
BITMAP
00C0
03E0
07F0
07E0
07E0
0F60
0F60
0FC0
0FC0
0F80
0F00
1E00
1E00
1E00
1E00
1E00
1C00
3C00
3C00
3C00
3C00
3C00
3800
7800
7800
7800
7800
7800
7000
F000
F000
F800
FF80
7F00
3F00
ENDCHAR
STARTCHAR 0143
ENCODING 323
SWIDTH 697 0
DWIDTH 31 0
BBX 30 42 3 0
BITMAP
000003C0
000003C0
00000780
00000F00
00000E00
00001C00
00003800
00007000
00000000
00000000
00000000
07C0001C
07E0003C
07E0003C
07F0003C
07F0003C
07F8003C
0F780038
0F7C0078
0F3C0078
0F3E0078
0F1E0078
0E1F0078
1E0F0070
1E0F80F0
1E0780F0
1E07C0F0
1E03C0F0
1C03E0F0
3C01E0E0
3C01F1E0
3C00F1E0
3C00F9E0
3C0079E0
38007DE0
78003DC0
78003FC0
78001FC0
78001FC0
78000FC0
70000FC0
F0000780
ENDCHAR
STARTCHAR 0144
ENCODING 324
SWIDTH 607 0
DWIDTH 27 0
BBX 24 35 3 0
BITMAP
00001E
00001E
00003C
000078
000070
0000E0
0001C0
0003C0
000000
000000
000000
0007F0
0F1FF8
0F3FFC
0F7DFE
0FC03E
1F801F
1F001F
1F000F
1E000F
1E000F
1C000E
3C001E
3C001E
3C001E
3C001E
3C001E
38001C
78003C
78003C
78003C
78003C
78003C
700038
F00078
ENDCHAR
STARTCHAR 0147
ENCODING 327
SWIDTH 697 0
DWIDTH 31 0
BBX 30 41 3 0
BITMAP
000F01E0
000783C0
0003C780
0003CF00
0001FE00
0000FC00
00007800
00000000
00000000
00000000
07C0001C
07E0003C
07E0003C
07F0003C
07F0003C
07F8003C
0F780038
0F7C0078
0F3C0078
0F3E0078
0F1E0078
0E1F0078
1E0F0070
1E0F80F0
1E0780F0
1E07C0F0
1E03C0F0
1C03E0F0
3C01E0E0
3C01F1E0
3C00F1E0
3C00F9E0
3C0079E0
38007DE0
78003DC0
78003FC0
78001FC0
78001FC0
78000FC0
70000FC0
F0000780
ENDCHAR
STARTCHAR 0148
ENCODING 328
SWIDTH 607 0
DWIDTH 27 0
BBX 24 33 3 0
BITMAP
00780E
00383C
003C78
001EF0
000FE0
0007C0
000780
000000
000000
0007F0
0F1FF8
0F3FFC
0F7DFE
0FC03E
1F801F
1F001F
1F000F
1E000F
1E000F
1C000E
3C001E
3C001E
3C001E
3C001E
3C001E
38001C
78003C
78003C
78003C
78003C
78003C
700038
F00078
ENDCHAR
STARTCHAR 014C
ENCODING 332
SWIDTH 720 0
DWIDTH 32 0
BBX 28 38 5 0
BITMAP
001FFF00
001FFF00
001FFF00
00000000
00000000
00000000
0003F000
001FFE00
007FFF00
01FFFF80
03F00FC0
07C007E0
0F8003E0
1F0001F0
1E0001F0
3E0000F0
3C0000F0
780000F0
780000F0
780000F0
F00000F0
F00000F0
F00000F0
F00000F0
F00001F0
F00001E0
F00001E0
F00003E0
F00003C0
F00007C0
F8000F80
F8001F00
7C003F00
7E007E00
3FC3F800
1FFFF000
0FFFE000
03FF0000
ENDCHAR
STARTCHAR 014D
ENCODING 333
SWIDTH 562 0
DWIDTH 25 0
BBX 22 30 4 0
BITMAP
01FFF0
01FFF0
000000
000000
000000
000000
007F00
01FFC0
07FFE0
0FC3F0
1F00F8
3E0078
3C0078
78003C
78003C
F0003C
F0003C
F0003C
E0003C
E00038
E00078
E00078
F000F0
F000F0
F001E0
F803C0
7E0F80
3FFF00
1FFE00
0FF800
ENDCHAR
STARTCHAR 0152
ENCODING 338
SWIDTH 945 0
DWIDTH 42 0
BBX 41 31 4 0
BITMAP
0007FFFFFF80
003FFFFFFF80
00FFFFFFFF80
01FE03800000
03F007800000
07C007800000
0F8007800000
0F0007800000
1E0007800000
3E000F000000
3C000F000000
3C000F000000
78000F000000
78000F000000
78000FFFF800
F8001FFFF800
F0001FFFF800
F0001E000000
F0001E000000
F0001E000000
F0001C000000
F8003C000000
78003C000000
78003C000000
7C003C000000
3E003C000000
3F0038000000
1FFFF8000000
0FFFFFFFF000
07FFFFFFF000
00FFFFFFF000
ENDCHAR
STARTCHAR 0153
ENCODING 339
SWIDTH 967 0
DWIDTH 43 0
BBX 40 24 4 0
BITMAP
003F000FE0
01FFC03FF8
03FFE0FFFC
07E3F1F03E
0F80FBC01E
1E007B800F
3C003F000F
3C003F000F
78003E000F
78003E000F
70003E000F
F0003FFFFF
F0003FFFFF
F0003C0000
F0003C0000
F0007C0000
F0007C0000
F000FE003C
7801FE003C
7C03CF0078
7E0FCF81F0
3FFF07FFE0
1FFE03FFC0
07F801FF00
ENDCHAR
STARTCHAR 0154
ENCODING 340
SWIDTH 585 0
DWIDTH 26 0
BBX 26 42 3 0
BITMAP
00001E00
00001C00
00003C00
00007800
0000F000
0000E000
0001C000
00038000
00000000
00000000
00000000
07FFF800
07FFFE00
07FFFF00
0780FF00
07800F80
07800780
0F000380
0F0003C0
0F000380
0F000380
0F000780
0E000780
1E000F00
1E001F00
1E003E00
1FFFFC00
1FFFF800
1FFFE000
3FFF0000
3C0F0000
3C078000
3C078000
3C03C000
3803C000
7801E000
7801E000
7800F000
7800F000
78007800
70007800
F0007C00
ENDCHAR
STARTCHAR 0155
ENCODING 341
SWIDTH 337 0
DWIDTH 15 0
BBX 18 35 3 0
BITMAP
0003C0
000780
000F00
000E00
001C00
003C00
007800
007000
000000
000000
000000
000000
0F3F00
0F7F00
0EFF00
1FE000
1F8000
1F0000
1E0000
1E0000
1E0000
3C0000
3C0000
3C0000
3C0000
3C0000
380000
780000
780000
780000
780000
780000
700000
F00000
F00000
ENDCHAR
STARTCHAR 0158
ENCODING 344
SWIDTH 585 0
DWIDTH 26 0
BBX 26 41 3 0
BITMAP
00780F00
003C1E00
001C3C00
001E7800
000FF000
0007E000
0007C000
00000000
00000000
00000000
07FFF800
07FFFE00
07FFFF00
0780FF00
07800F80
07800780
0F000380
0F0003C0
0F000380
0F000380
0F000780
0E000780
1E000F00
1E001F00
1E003E00
1FFFFC00
1FFFF800
1FFFE000
3FFF0000
3C0F0000
3C078000
3C078000
3C03C000
3803C000
7801E000
7801E000
7800F000
7800F000
78007800
70007800
F0007C00
ENDCHAR
STARTCHAR 0159
ENCODING 345
SWIDTH 337 0
DWIDTH 15 0
BBX 18 33 3 0
BITMAP
1E03C0
0F0780
078F00
039E00
03FC00
01F000
00E000
000000
000000
000000
0F3F00
0F7F00
0EFF00
1FE000
1F8000
1F0000
1E0000
1E0000
1E0000
3C0000
3C0000
3C0000
3C0000
3C0000
380000
780000
780000
780000
780000
780000
700000
F00000
F00000
ENDCHAR
STARTCHAR 015A
ENCODING 346
SWIDTH 585 0
DWIDTH 26 0
BBX 24 42 4 0
BITMAP
00000F
00001E
00003C
000038
000070
0000E0
0001E0
0001C0
000000
000000
000F80
007FF0
01FFF8
03FFFC
07C03E
0F801E
0F001F
1E001F
1E000F
1E000F
1E0000
1E0000
1F0000
1FC000
0FFC00
07FF80
01FFE0
003FF8
0001F8
00007C
00003C
00003C
F0003C
F0003C
F0003C
F80078
F800F8
7C01F0
7F07E0
3FFFC0
1FFF80
07FE00
ENDCHAR
STARTCHAR 015B
ENCODING 347
SWIDTH 495 0
DWIDTH 22 0
BBX 21 35 3 0
BITMAP
000078
0000F0
0001E0
0001C0
0003C0
000780
000700
000E00
000000
000000
000000
00FF00
03FF80
07FFC0
0F83E0
1E01E0
1E00F0
1C00F0
1C0000
1C0000
1E0000
1FF000
0FFE00
03FF80
003FC0
0007C0
0003C0
F001C0
F003C0
F003C0
F80780
7C0F80
7FFF00
3FFE00
0FF800
ENDCHAR
STARTCHAR 015E
ENCODING 350
SWIDTH 585 0
DWIDTH 26 0
BBX 24 43 4 -11
BITMAP
000F80
007FF0
01FFF8
03FFFC
07C03E
0F801E
0F001F
1E001F
1E000F
1E000F
1E0000
1E0000
1F0000
1FC000
0FFC00
07FF80
01FFE0
003FF8
0001F8
00007C
00003C
00003C
F0003C
F0003C
F0003C
F80078
F800F8
7C01F0
7F07E0
3FFFC0
1FFF80
07FE00
00C000
00C000
018000
01F800
03FC00
000C00
000C00
001C00
003800
03F000
03E000
ENDCHAR
STARTCHAR 015F
ENCODING 351
SWIDTH 495 0
DWIDTH 22 0
BBX 20 35 3 -11
BITMAP
00FF00
03FF80
07FFC0
0F83E0
1E01E0
1E00F0
1C00F0
1C0000
1C0000
1E0000
1FF000
0FFE00
03FF80
003FC0
0007C0
0003C0
F001C0
F003C0
F003C0
F807C0
7C0F80
7FFF00
3FFE00
0FF800
01C000
018000
038000
03F800
07F800
001800
001800
001800
047000
07F000
07C000
ENDCHAR
STARTCHAR 0160
ENCODING 352
SWIDTH 585 0
DWIDTH 26 0
BBX 24 41 4 0
BITMAP
007807
003C1E
001E3C
000E78
000FF0
0007E0
0003C0
000000
000000
000F80
007FF0
01FFF8
03FFFC
07C03E
0F801E
0F001F
1E001F
1E000F
1E000F
1E0000
1E0000
1F0000
1FC000
0FFC00
07FF80
01FFE0
003FF8
0001F8
00007C
00003C
00003C
F0003C
F0003C
F0003C
F80078
F800F8
7C01F0
7F07E0
3FFFC0
1FFF80
07FE00
ENDCHAR
STARTCHAR 0161
ENCODING 353
SWIDTH 495 0
DWIDTH 22 0
BBX 21 33 3 0
BITMAP
01E078
00E0F0
00F1E0
007B80
003F00
001E00
000000
000000
000000
00FF00
03FF80
07FFC0
0F83E0
1E01E0
1E00F0
1C00F0
1C0000
1C0000
1E0000
1FF000
0FFE00
03FF80
003FC0
0007C0
0003C0
F001C0
F003C0
F003C0
F80780
7C0F80
7FFF00
3FFE00
0FF800
ENDCHAR
STARTCHAR 0162
ENCODING 354
SWIDTH 585 0
DWIDTH 26 0
BBX 22 42 7 -11
BITMAP
FFFFFC
FFFFFC
FFFFFC
007800
007800
00F000
00F000
00F000
00F000
00F000
00E000
01E000
01E000
01E000
01E000
01E000
01C000
03C000
03C000
03C000
03C000
03C000
038000
078000
078000
078000
078000
078000
070000
0F0000
0F0000
0E0000
0C0000
1C0000
1FC000
3FC000
00C000
00C000
00C000
23C000
3F8000
3E0000
ENDCHAR
STARTCHAR 0163
ENCODING 355
SWIDTH 382 0
DWIDTH 17 0
BBX 14 42 5 -11
BITMAP
03C0
03C0
0380
0780
0780
0780
0780
0780
FFFC
FFFC
FFFC
0F00
0F00
0F00
0E00
1E00
1E00
1E00
1E00
1E00
1C00
3C00
3C00
3C00
3C00
3C00
3800
7C00
3FE0
3FC0
1FC0
0C00
1C00
1E00
3F80
03C0
00C0
00C0
01C0
2380
3F00
7C00
ENDCHAR
STARTCHAR 0164
ENCODING 356
SWIDTH 585 0
DWIDTH 26 0
BBX 22 41 7 0
BITMAP
078070
03C1E0
01E3C0
00E780
00FF00
007E00
003C00
000000
000000
000000
FFFFFC
FFFFFC
FFFFFC
007800
007800
00F000
00F000
00F000
00F000
00F000
00E000
01E000
01E000
01E000
01E000
01E000
01C000
03C000
03C000
03C000
03C000
03C000
038000
078000
078000
078000
078000
078000
070000
0F0000
0F0000
ENDCHAR
STARTCHAR 0165
ENCODING 357
SWIDTH 495 0
DWIDTH 22 0
BBX 17 35 5 0
BITMAP
000700
001F80
001F80
001F80
03DF80
03C300
038300
078300
078600
078C00
079800
07A000
FFFC00
FFFC00
FFFC00
0F0000
0F0000
0F0000
0E0000
1E0000
1E0000
1E0000
1E0000
1E0000
1C0000
3C0000
3C0000
3C0000
3C0000
3C0000
380000
7C0000
3FE000
3FC000
1FC000
ENDCHAR
STARTCHAR 0166
ENCODING 358
SWIDTH 585 0
DWIDTH 26 0
BBX 22 31 7 0
BITMAP
FFFFFC
FFFFFC
FFFFFC
007800
007800
00F000
00F000
00F000
00F000
00F000
00E000
01E000
FFFFE0
FFFFC0
FFFFC0
01E000
01C000
03C000
03C000
03C000
03C000
03C000
038000
078000
078000
078000
078000
078000
070000
0F0000
0F0000
ENDCHAR
STARTCHAR 0167
ENCODING 359
SWIDTH 382 0
DWIDTH 17 0
BBX 15 31 4 0
BITMAP
01E0
01E0
01C0
03C0
03C0
03C0
03C0
03C0
7FFE
7FFE
7FFE
0780
0780
0780
0700
0F00
0F00
FFFC
FFF8
0F00
0E00
1E00
1E00
1E00
1E00
1E00
1E00
1E00
1FF0
1FE0
0FE0
ENDCHAR
STARTCHAR 0168
ENCODING 360
SWIDTH 675 0
DWIDTH 30 0
BBX 28 40 5 0
BITMAP
000F8700
001FEF00
003FFE00
00707C00
00000000
00000000
00000000
00000000
00000000
1E0000F0
1E0000F0
1E0000E0
1C0001E0
3C0001E0
3C0001E0
3C0001E0
3C0001E0
3C0001C0
380003C0
780003C0
780003C0
780003C0
78000380
70000780
70000780
F0000780
F0000780
F0000780
F0000F00
F0000F00
F0000F00
F0001E00
F0001E00
F8003C00
78007C00
7C00F800
7F87F000
3FFFE000
1FFFC000
07FF0000
ENDCHAR
STARTCHAR 0169
ENCODING 361
SWIDTH 585 0
DWIDTH 26 0
BBX 22 32 5 0
BITMAP
01FC70
01FFF0
039FE0
070780
000000
000000
000000
000000
000000
3C001C
3C003C
3C003C
38003C
78003C
78003C
780038
780078
780078
F00078
F00078
F00078
F00070
F000F0
F000F0
F000F0
F001F0
F003F0
F807E0
FC0FE0
7FFDE0
3FF1E0
1FE1E0
ENDCHAR
STARTCHAR 016A
ENCODING 362
SWIDTH 675 0
DWIDTH 30 0
BBX 28 38 5 0
BITMAP
003FFE00
003FFE00
003FFE00
00000000
00000000
00000000
00000000
1E0000F0
1E0000F0
1E0000E0
1C0001E0
3C0001E0
3C0001E0
3C0001E0
3C0001E0
3C0001C0
380003C0
780003C0
780003C0
780003C0
78000380
70000780
70000780
F0000780
F0000780
F0000780
F0000F00
F0000F00
F0000F00
F0001E00
F0001E00
F8003C00
78007C00
7C00F800
7F87F000
3FFFE000
1FFFC000
07FF0000
ENDCHAR
STARTCHAR 016B
ENCODING 363
SWIDTH 585 0
DWIDTH 26 0
BBX 22 30 5 0
BITMAP
03FFE0
03FFE0
000000
000000
000000
000000
000000
3C001C
3C003C
3C003C
38003C
78003C
78003C
780038
780078
780078
F00078
F00078
F00078
F00070
F000F0
F000F0
F000F0
F001F0
F003F0
F807E0
FC0FE0
7FFDE0
3FF1E0
1FE1E0
ENDCHAR
STARTCHAR 016E
ENCODING 366
SWIDTH 675 0
DWIDTH 30 0
BBX 28 43 5 0
BITMAP
0000C000
0001F000
00033800
00061800
00061800
00063000
0007F000
0003C000
00000000
00000000
00000000
00000000
1E0000F0
1E0000F0
1E0000E0
1C0001E0
3C0001E0
3C0001E0
3C0001E0
3C0001E0
3C0001C0
380003C0
780003C0
780003C0
780003C0
78000380
70000780
70000780
F0000780
F0000780
F0000780
F0000F00
F0000F00
F0000F00
F0001E00
F0001E00
F8003C00
78007C00
7C00F800
7F87F000
3FFFE000
1FFFC000
07FF0000
ENDCHAR
STARTCHAR 016F
ENCODING 367
SWIDTH 585 0
DWIDTH 26 0
BBX 22 35 5 0
BITMAP
000E00
003F00
003180
006180
006180
006300
003F00
001C00
000000
000000
000000
000000
3C001C
3C003C
3C003C
38003C
78003C
78003C
780038
780078
780078
F00078
F00078
F00078
F00070
F000F0
F000F0
F000F0
F001F0
F003F0
F807E0
FC0FE0
7FFDE0
3FF1E0
1FE1E0
ENDCHAR
STARTCHAR 0172
ENCODING 370
SWIDTH 675 0
DWIDTH 30 0
BBX 28 38 5 -8
BITMAP
1E0000F0
1E0000F0
1E0000E0
1C0001E0
3C0001E0
3C0001E0
3C0001E0
3C0001E0
3C0001C0
380003C0
780003C0
780003C0
780003C0
78000380
70000780
70000780
F0000780
F0000780
F0000780
F0000F00
F0000F00
F0000F00
F0001E00
F0001E00
F8003C00
78007C00
7C00F800
7F87F000
3FFFE000
1FFFC000
07FE0000
00F00000
01C00000
01800000
03800000
03800000
03F80000
01F80000
ENDCHAR
STARTCHAR 0173
ENCODING 371
SWIDTH 585 0
DWIDTH 26 0
BBX 22 30 5 -7
BITMAP
3C001C
3C003C
3C003C
38003C
78003C
78003C
780038
780078
780078
F00078
F00078
F00078
F00070
F000F0
F000F0
F000F0
F001F0
F003F0
F807E0
FC0FE0
7FFDE0
3FF1E0
1FE1E0
000380
000700
000E00
000E00
000E00
000FE0
0007C0
ENDCHAR
STARTCHAR 0174
ENCODING 372
SWIDTH 990 0
DWIDTH 44 0
BBX 42 41 6 0
BITMAP
000007800000
00000F800000
00001FC00000
00003DE00000
000078F00000
0000F0F00000
0001E0780000
000000000000
000000000000
000000000000
F0001E0001C0
F0001E0003C0
F0003F0003C0
F0003F000780
F0007F000780
F0007F000F00
7000FF000F00
7000F7000E00
7801E7001E00
7801E7801E00
7803C7803C00
7803C7803C00
780787807800
780787807800
780F03807000
780F0380F000
381E03C0E000
381E03C1E000
383C03C1E000
3C3C03C3C000
3C7803C3C000
3C7801C38000
3CF001E78000
3CF001E70000
3DE001EF0000
3DE001EF0000
1FC001FE0000
1FC000FE0000
1F8000FC0000
1F8000FC0000
1F0000F80000
ENDCHAR
STARTCHAR 0175
ENCODING 373
SWIDTH 810 0
DWIDTH 36 0
BBX 32 33 6 0
BITMAP
0000F000
0001F000
0003F800
00073C00
000E1E00
003C0E00
00780F00
00000000
00000000
00000000
E003C007
E007C00F
E007C00F
F007C01E
F00FE01E
F00FE01C
F01FE03C
F01DE038
F03CE078
7038E070
7078E0F0
7070F0F0
70F0F0E0
70E0F1E0
79E0F1C0
79C073C0
7BC07380
7B807780
7F807F00
3F807F00
3F007F00
3F007E00
3E007E00
ENDCHAR
STARTCHAR 0176
ENCODING 374
SWIDTH 607 0
DWIDTH 27 0
BBX 23 41 7 0
BITMAP
000E00
001F00
003F80
007380
01E3C0
03C1E0
0780F0
000000
000000
000000
F0001E
F0001E
78003C
780078
780078
3C00F0
3C01E0
3C01E0
1E03C0
1E0780
1E0780
0F0F00
0F1E00
0F1E00
07BC00
07F800
07F800
03F000
03E000
03E000
03C000
03C000
03C000
03C000
03C000
038000
078000
078000
078000
078000
078000
ENDCHAR
STARTCHAR 0177
ENCODING 375
SWIDTH 472 0
DWIDTH 21 0
BBX 25 42 0 -9
BITMAP
0001C000
0007E000
000FF000
001E7800
003C3800
00783C00
00F01E00
00000000
00000000
00000000
07000780
07800780
07800F00
07800F00
07801E00
03801E00
03C03C00
03C03800
03C07800
03C0F000
01C0F000
01E1E000
01E1C000
01E3C000
00E38000
00E78000
00F70000
00FF0000
00FE0000
007C0000
007C0000
00780000
00780000
00F00000
00E00000
01E00000
03C00000
03C00000
0F800000
FF000000
FE000000
F8000000
ENDCHAR
STARTCHAR 0178
ENCODING 376
SWIDTH 607 0
DWIDTH 27 0
BBX 23 40 7 0
BITMAP
01E0F0
03E1F0
03E1F0
03C1E0
000040
000000
000000
000000
000000
F0001E
F0001E
78003C
780078
780078
3C00F0
3C01E0
3C01E0
1E03C0
1E0780
1E0780
0F0F00
0F1E00
0F1E00
07BC00
07F800
07F800
03F000
03E000
03E000
03C000
03C000
03C000
03C000
03C000
038000
078000
078000
078000
078000
078000
ENDCHAR
STARTCHAR 0179
ENCODING 377
SWIDTH 607 0
DWIDTH 27 0
BBX 28 42 2 0
BITMAP
00000780
00000700
00000F00
00001E00
00003C00
00003800
00007000
0000E000
00000000
00000000
00000000
07FFFFF0
07FFFFE0
07FFFFE0
000003E0
000007C0
00000780
00000F00
00001E00
00003C00
00007C00
0000F800
0001F000
0003E000
0007C000
000F8000
000F0000
001E0000
003C0000
007C0000
00F80000
01F00000
03E00000
07C00000
0F800000
0F000000
1E000000
3C000000
7FFFFE00
7FFFFE00
7FFFFE00
FFFFFC00
ENDCHAR
STARTCHAR 017A
ENCODING 378
SWIDTH 495 0
DWIDTH 22 0
BBX 22 35 2 0
BITMAP
00003C
000078
000078
0000F0
0001E0
0001C0
000380
000700
000000
000000
000000
000000
07FFFC
07FFFC
07FFFC
000078
0000F0
0001E0
0003C0
000780
000F00
001E00
003C00
007800
00F000
01E000
03C000
078000
0F0000
1E0000
3C0000
780000
7FFFE0
7FFFC0
FFFFC0
ENDCHAR
STARTCHAR 017B
ENCODING 379
SWIDTH 607 0
DWIDTH 27 0
BBX 28 40 2 0
BITMAP
0000F000
0000F800
0001F000
0000F000
00004000
00000000
00000000
00000000
00000000
07FFFFF0
07FFFFE0
07FFFFE0
000003E0
000007C0
00000780
00000F00
00001E00
00003C00
00007C00
0000F800
0001F000
0003E000
0007C000
000F8000
000F0000
001E0000
003C0000
007C0000
00F80000
01F00000
03E00000
07C00000
0F800000
0F000000
1E000000
3C000000
7FFFFE00
7FFFFE00
7FFFFE00
FFFFFC00
ENDCHAR
STARTCHAR 017C
ENCODING 380
SWIDTH 495 0
DWIDTH 22 0
BBX 22 33 2 0
BITMAP
000300
000780
000F80
000F80
000F00
000000
000000
000000
000000
000000
07FFFC
07FFFC
07FFFC
000078
0000F0
0001E0
0003C0
000780
000F00
001E00
003C00
007800
00F000
01E000
03C000
078000
0F0000
1E0000
3C0000
780000
7FFFE0
7FFFC0
FFFFC0
ENDCHAR
STARTCHAR 017D
ENCODING 381
SWIDTH 607 0
DWIDTH 27 0
BBX 28 41 2 0
BITMAP
001E03C0
000F0780
000F0F00
00079E00
0003FC00
0001F800
0001F000
00000000
00000000
00000000
07FFFFF0
07FFFFE0
07FFFFE0
000003E0
000007C0
00000780
00000F00
00001E00
00003C00
00007C00
0000F800
0001F000
0003E000
0007C000
000F8000
000F0000
001E0000
003C0000
007C0000
00F80000
01F00000
03E00000
07C00000
0F800000
0F000000
1E000000
3C000000
7FFFFE00
7FFFFE00
7FFFFE00
FFFFFC00
ENDCHAR
STARTCHAR 017E
ENCODING 382
SWIDTH 495 0
DWIDTH 22 0
BBX 22 33 2 0
BITMAP
00F03C
00F078
0078F0
003DE0
001FC0
001F80
000F00
000000
000000
000000
07FFFC
07FFFC
07FFFC
000078
0000F0
0001E0
0003C0
000780
000F00
001E00
003C00
007800
00F000
01E000
03C000
078000
0F0000
1E0000
3C0000
780000
7FFFE0
7FFFC0
FFFFC0
ENDCHAR
STARTCHAR 01A0
ENCODING 416
SWIDTH 720 0
DWIDTH 32 0
BBX 29 35 5 0
BITMAP
00000038
00000038
00000070
0003F0F0
001FFFE0
007FFFC0
01FFFF80
03F00FC0
07C007E0
0F8003E0
1F0001F0
1E0001F0
3E0000F0
3C0000F0
780000F0
780000F0
780000F0
F00000F0
F00000F0
F00000F0
F00000F0
F00001F0
F00001E0
F00001E0
F00003E0
F00003C0
F00007C0
F8000F80
F8001F00
7C003F00
7E007E00
3FC3F800
1FFFF000
0FFFE000
03FF0000
ENDCHAR
STARTCHAR 01A1
ENCODING 417
SWIDTH 585 0
DWIDTH 26 0
BBX 25 28 4 0
BITMAP
00000380
00000380
00000780
00000700
007F1F00
01FFFE00
07FFF800
0FC3F000
1F00F800
3E007800
3C007800
78003C00
78003C00
F0003C00
F0003C00
F0003C00
E0003C00
E0003800
E0007800
E0007800
F000F000
F000F000
F001E000
F803C000
7E0F8000
3FFF0000
1FFE0000
0FF80000
ENDCHAR
STARTCHAR 01AF
ENCODING 431
SWIDTH 675 0
DWIDTH 30 0
BBX 33 35 5 0
BITMAP
0000000380
0000000380
0000000380
0000000700
1E0000FF00
1E0000FC00
1E0000E000
1C0001E000
3C0001E000
3C0001E000
3C0001E000
3C0001C000
3C0001C000
380003C000
780003C000
780003C000
780003C000
7800038000
7000078000
7000078000
F000078000
F000078000
F000078000
F0000F0000
F0000F0000
F0000F0000
F0001E0000
F0001E0000
F8003C0000
78007C0000
7C00F80000
7F87F00000
3FFFE00000
1FFFC00000
07FF000000
ENDCHAR
STARTCHAR 01B0
ENCODING 432
SWIDTH 585 0
DWIDTH 26 0
BBX 28 28 5 0
BITMAP
00000070
00000070
00000070
000000E0
000001E0
3C001FC0
3C003E00
3C003C00
38003C00
78003C00
78003C00
78003800
78007800
78007800
F0007800
F0007800
F0007800
F0007000
F000F000
F000F000
F000F000
F001F000
F003F000
F807E000
FC0FE000
7FFDE000
3FF1E000
1FE1E000
ENDCHAR
STARTCHAR 02C6
ENCODING 710
SWIDTH 405 0
DWIDTH 18 0
BBX 15 7 6 26
BITMAP
01E0
03E0
07F0
1E78
3C3C
783C
F01E
ENDCHAR
STARTCHAR 02C7
ENCODING 711
SWIDTH 382 0
DWIDTH 17 0
BBX 15 7 7 26
BITMAP
F01E
7838
3870
3DE0
1FC0
0F80
0700
ENDCHAR
STARTCHAR 02D8
ENCODING 728
SWIDTH 382 0
DWIDTH 17 0
BBX 15 5 7 27
BITMAP
E01E
F03C
7CF8
3FF0
0F80
ENDCHAR
STARTCHAR 02D9
ENCODING 729
SWIDTH 157 0
DWIDTH 7 0
BBX 5 5 7 28
BITMAP
70
F0
F8
F0
E0
ENDCHAR
STARTCHAR 02DA
ENCODING 730
SWIDTH 225 0
DWIDTH 10 0
BBX 7 8 7 27
BITMAP
3C
7E
C6
82
86
C6
FC
70
ENDCHAR
STARTCHAR 02DB
ENCODING 731
SWIDTH 202 0
DWIDTH 9 0
BBX 6 8 1 -8
BITMAP
18
78
E0
E0
C0
E0
FC
7C
ENDCHAR
STARTCHAR 02DC
ENCODING 732
SWIDTH 382 0
DWIDTH 17 0
BBX 15 4 6 28
BITMAP
3F0E
7FFC
73FC
E0F0
ENDCHAR
STARTCHAR 0300
ENCODING 768
SWIDTH 0 0
DWIDTH 0 0
BBX 7 8 -4 28
BITMAP
F0
F0
78
78
38
3C
1C
1E
ENDCHAR
STARTCHAR 0301
ENCODING 769
SWIDTH 0 0
DWIDTH 0 0
BBX 9 8 -3 28
BITMAP
0780
0F00
1E00
1C00
3800
7800
F000
E000
ENDCHAR
STARTCHAR 0302
ENCODING 770
SWIDTH 0 0
DWIDTH 0 0
BBX 15 7 -11 26
BITMAP
03C0
07E0
0FF0
1E70
3C78
783C
F01E
ENDCHAR
STARTCHAR 0303
ENCODING 771
SWIDTH 0 0
DWIDTH 0 0
BBX 15 4 -10 28
BITMAP
3F0E
7FFC
73F8
E0F0
ENDCHAR
STARTCHAR 0304
ENCODING 772
SWIDTH 0 0
DWIDTH 0 0
BBX 13 2 -11 28
BITMAP
FFF8
FFF8
ENDCHAR
STARTCHAR 0306
ENCODING 774
SWIDTH 0 0
DWIDTH 0 0
BBX 15 5 -11 27
BITMAP
F00E
701C
7C78
3FF0
0FC0
ENDCHAR
STARTCHAR 0307
ENCODING 775
SWIDTH 0 0
DWIDTH 0 0
BBX 5 5 -3 28
BITMAP
30
78
F8
F8
70
ENDCHAR
STARTCHAR 0308
ENCODING 776
SWIDTH 0 0
DWIDTH 0 0
BBX 13 5 -11 28
BITMAP
6030
F078
F8F8
F0F8
E070
ENDCHAR
STARTCHAR 0309
ENCODING 777
SWIDTH 0 0
DWIDTH 0 0
BBX 9 8 -5 28
BITMAP
1E00
7F80
FF80
E380
0380
0380
0F00
1C00
ENDCHAR
STARTCHAR 030A
ENCODING 778
SWIDTH 0 0
DWIDTH 0 0
BBX 8 8 -5 27
BITMAP
1E
3F
63
C3
C3
E6
7E
38
ENDCHAR
STARTCHAR 030C
ENCODING 780
SWIDTH 0 0
DWIDTH 0 0
BBX 15 7 -11 26
BITMAP
F01E
7838
3870
3DE0
1FC0
0F80
0700
ENDCHAR
STARTCHAR 031B
ENCODING 795
SWIDTH 0 0
DWIDTH 0 0
BBX 9 7 -5 24
BITMAP
0380
0380
0700
0700
1F00
FE00
F000
ENDCHAR
STARTCHAR 0323
ENCODING 803
SWIDTH 0 0
DWIDTH 0 0
BBX 5 5 -7 -10
BITMAP
78
F8
F8
F8
70
ENDCHAR
STARTCHAR 0327
ENCODING 807
SWIDTH 0 0
DWIDTH 0 0
BBX 9 11 -11 -11
BITMAP
1800
3000
3000
7F00
7F00
0380
0380
0300
8700
FE00
F800
ENDCHAR
STARTCHAR 0328
ENCODING 808
SWIDTH 0 0
DWIDTH 0 0
BBX 6 8 -9 -8
BITMAP
18
38
70
E0
E0
E0
FC
7C
ENDCHAR
STARTCHAR 1E80
ENCODING 7808
SWIDTH 990 0
DWIDTH 44 0
BBX 42 42 6 0
BITMAP
000078000000
000078000000
000038000000
00003C000000
00001C000000
00001C000000
00000E000000
00000E000000
000000000000
000000000000
000000000000
F0001E0001C0
F0001E0003C0
F0003F0003C0
F0003F000780
F0007F000780
F0007F000F00
7000FF000F00
7000F7000E00
7801E7001E00
7801E7801E00
7803C7803C00
7803C7803C00
780787807800
780787807800
780F03807000
780F0380F000
381E03C0E000
381E03C1E000
383C03C1E000
3C3C03C3C000
3C7803C3C000
3C7801C38000
3CF001E78000
3CF001E70000
3DE001EF0000
3DE001EF0000
1FC001FE0000
1FC000FE0000
1F8000FC0000
1F8000FC0000
1F0000F80000
ENDCHAR
STARTCHAR 1E81
ENCODING 7809
SWIDTH 810 0
DWIDTH 36 0
BBX 32 35 6 0
BITMAP
001E0000
000F0000
000F0000
00070000
00078000
00038000
00038000
0001C000
00000000
00000000
00000000
00000000
E003C007
E007C00F
E007C00F
F007C01E
F00FE01E
F00FE01C
F01FE03C
F01DE038
F03CE078
7038E070
7078E0F0
7070F0F0
70F0F0E0
70E0F1E0
79E0F1C0
79C073C0
7BC07380
7B807780
7F807F00
3F807F00
3F007F00
3F007E00
3E007E00
ENDCHAR
STARTCHAR 1E82
ENCODING 7810
SWIDTH 990 0
DWIDTH 44 0
BBX 42 42 6 0
BITMAP
0000003C0000
000000780000
000000F00000
000000E00000
000001C00000
000003800000
000007800000
000007000000
000000000000
000000000000
000000000000
F0001E0001C0
F0001E0003C0
F0003F0003C0
F0003F000780
F0007F000780
F0007F000F00
7000FF000F00
7000F7000E00
7801E7001E00
7801E7801E00
7803C7803C00
7803C7803C00
780787807800
780787807800
780F03807000
780F0380F000
381E03C0E000
381E03C1E000
383C03C1E000
3C3C03C3C000
3C7803C3C000
3C7801C38000
3CF001E78000
3CF001E70000
3DE001EF0000
3DE001EF0000
1FC001FE0000
1FC000FE0000
1F8000FC0000
1F8000FC0000
1F0000F80000
ENDCHAR
STARTCHAR 1E83
ENCODING 7811
SWIDTH 810 0
DWIDTH 36 0
BBX 32 35 6 0
BITMAP
00000780
00000F00
00000E00
00001E00
00003C00
00007800
00007000
0000E000
00000000
00000000
00000000
00000000
E003C007
E007C00F
E007C00F
F007C01E
F00FE01E
F00FE01C
F01FE03C
F01DE038
F03CE078
7038E070
7078E0F0
7070F0F0
70F0F0E0
70E0F1E0
79E0F1C0
79C073C0
7BC07380
7B807780
7F807F00
3F807F00
3F007F00
3F007E00
3E007E00
ENDCHAR
STARTCHAR 1E84
ENCODING 7812
SWIDTH 990 0
DWIDTH 44 0
BBX 42 40 6 0
BITMAP
000070780000
0000F8780000
0000F8F80000
0000F0780000
000040200000
000000000000
000000000000
000000000000
000000000000
F0001E0001C0
F0001E0003C0
F0003F0003C0
F0003F000780
F0007F000780
F0007F000F00
7000FF000F00
7000F7000E00
7801E7001E00
7801E7801E00
7803C7803C00
7803C7803C00
780787807800
780787807800
780F03807000
780F0380F000
381E03C0E000
381E03C1E000
383C03C1E000
3C3C03C3C000
3C7803C3C000
3C7801C38000
3CF001E78000
3CF001E70000
3DE001EF0000
3DE001EF0000
1FC001FE0000
1FC000FE0000
1F8000FC0000
1F8000FC0000
1F0000F80000
ENDCHAR
STARTCHAR 1E85
ENCODING 7813
SWIDTH 810 0
DWIDTH 36 0
BBX 32 33 6 0
BITMAP
000E0600
001E0F00
001F1F00
001E1F00
001E0E00
00000000
00000000
00000000
00000000
00000000
E003C007
E007C00F
E007C00F
F007C01E
F00FE01E
F00FE01C
F01FE03C
F01DE038
F03CE078
7038E070
7078E0F0
7070F0F0
70F0F0E0
70E0F1E0
79E0F1C0
79C073C0
7BC07380
7B807780
7F807F00
3F807F00
3F007F00
3F007E00
3E007E00
ENDCHAR
STARTCHAR 1EA0
ENCODING 7840
SWIDTH 675 0
DWIDTH 30 0
BBX 27 41 2 -10
BITMAP
0000F000
0000F800
0001F800
0001F800
0003F800
0007B800
0007BC00
000F3C00
000F3C00
001E1C00
001C1C00
003C1E00
00381E00
00781E00
00700E00
00F00E00
01E00F00
01E00F00
03C00F00
03FFFF00
07FFFF80
07FFFF80
0F000780
0F000780
1E000380
1C0003C0
3C0003C0
780003C0
780003C0
F00001C0
F00001E0
00000000
00000000
00000000
00000000
00000000
001C0000
003C0000
007C0000
007C0000
00380000
ENDCHAR
STARTCHAR 1EA1
ENCODING 7841
SWIDTH 607 0
DWIDTH 27 0
BBX 25 34 3 -10
BITMAP
007F0000
01FFC780
03FFE700
07F1EF00
0F807F00
1F003F00
1E003F00
3C001F00
3C001E00
78001E00
78001E00
78001E00
78001E00
78001E00
F0003C00
F0003C00
78007C00
78007C00
7800FC00
7C01BC00
3F073800
3FFF7800
1FFC7800
07F07800
00000000
00000000
00000000
00000000
00000000
00E00000
01F00000
01F00000
01E00000
01C00000
ENDCHAR
STARTCHAR 1EA2
ENCODING 7842
SWIDTH 675 0
DWIDTH 30 0
BBX 27 42 2 0
BITMAP
00007F00
0000FF00
0001C700
00000300
00000700
00000E00
00001C00
00003800
00000000
00000000
00000000
0000F000
0000F800
0001F800
0001F800
0003F800
0007B800
0007BC00
000F3C00
000F3C00
001E1C00
001C1C00
003C1E00
00381E00
00781E00
00700E00
00F00E00
01E00F00
01E00F00
03C00F00
03FFFF00
07FFFF80
07FFFF80
0F000780
0F000780
1E000380
1C0003C0
3C0003C0
780003C0
780003C0
F00001C0
F00001E0
ENDCHAR
STARTCHAR 1EA3
ENCODING 7843
SWIDTH 607 0
DWIDTH 27 0
BBX 25 35 3 0
BITMAP
0003C000
000FF000
001FF000
001C7000
00007000
00007000
0000E000
00038000
00000000
00000000
00000000
007F0000
01FFC780
03FFE700
07F1EF00
0F807F00
1F003F00
1E003F00
3C001F00
3C001E00
78001E00
78001E00
78001E00
78001E00
78001E00
F0003C00
F0003C00
78007C00
78007C00
7800FC00
7C01BC00
3F073800
3FFF7800
1FFC7800
07F07800
ENDCHAR
STARTCHAR 1EA4
ENCODING 7844
SWIDTH 675 0
DWIDTH 30 0
BBX 35 48 2 0
BITMAP
00000001E0
00000003C0
0000000780
0000000F00
0000000E00
0000001C00
0000003C00
00003C3800
00007C4000
0000FE0000
0001EF0000
0003C78000
0007878000
000F03C000
0000000000
0000000000
0000000000
0000F00000
0000F80000
0001F80000
0001F80000
0003F80000
0007B80000
0007BC0000
000F3C0000
000F3C0000
001E1C0000
001C1C0000
003C1E0000
00381E0000
00781E0000
00700E0000
00F00E0000
01E00F0000
01E00F0000
03C00F0000
03FFFF0000
07FFFF8000
07FFFF8000
0F00078000
0F00078000
1E00038000
1C0003C000
3C0003C000
780003C000
780003C000
F00001C000
F00001E000
ENDCHAR
STARTCHAR 1EA5
ENCODING 7845
SWIDTH 607 0
DWIDTH 27 0
BBX 30 40 3 0
BITMAP
0000003C
00000038
00000078
000000F0
000001E0
000001C0
00000380
0003C700
0007C000
000FE000
001CF000
00387800
00F03800
01E03C00
00000000
00000000
007F0000
01FFC780
03FFE700
07F1EF00
0F807F00
1F003F00
1E003F00
3C001F00
3C001E00
78001E00
78001E00
78001E00
78001E00
78001E00
F0003C00
F0003C00
78007C00
78007C00
7800FC00
7C01BC00
3F073800
3FFF7800
1FFC7800
07F07800
ENDCHAR
STARTCHAR 1EA6
ENCODING 7846
SWIDTH 675 0
DWIDTH 30 0
BBX 28 48 2 0
BITMAP
00000780
00000380
000003C0
000001C0
000001E0
000000E0
000000E0
00003C70
00007C00
0000FE00
0001EF00
0003C780
00078780
000F03C0
00000000
00000000
00000000
0000F000
0000F800
0001F800
0001F800
0003F800
0007B800
0007BC00
000F3C00
000F3C00
001E1C00
001C1C00
003C1E00
00381E00
00781E00
00700E00
00F00E00
01E00F00
01E00F00
03C00F00
03FFFF00
07FFFF80
07FFFF80
0F000780
0F000780
1E000380
1C0003C0
3C0003C0
780003C0
780003C0
F00001C0
F00001E0
ENDCHAR
STARTCHAR 1EA7
ENCODING 7847
SWIDTH 607 0
DWIDTH 27 0
BBX 25 40 3 0
BITMAP
00007800
00003800
00003C00
00001C00
00001E00
00000E00
00000E00
0003C700
0007C000
000FE000
001CF000
00387800
00F03800
01E03C00
00000000
00000000
007F0000
01FFC780
03FFE700
07F1EF00
0F807F00
1F003F00
1E003F00
3C001F00
3C001E00
78001E00
78001E00
78001E00
78001E00
78001E00
F0003C00
F0003C00
78007C00
78007C00
7800FC00
7C01BC00
3F073800
3FFF7800
1FFC7800
07F07800
ENDCHAR
STARTCHAR 1EA8
ENCODING 7848
SWIDTH 675 0
DWIDTH 30 0
BBX 32 48 2 0
BITMAP
0000007C
000000FE
000001EF
00000387
00000007
0000000E
0000001C
00003C78
00007C00
0000FE00
0001EF00
0003C780
00078780
000F03C0
00000000
00000000
00000000
0000F000
0000F800
0001F800
0001F800
0003F800
0007B800
0007BC00
000F3C00
000F3C00
001E1C00
001C1C00
003C1E00
00381E00
00781E00
00700E00
00F00E00
01E00F00
01E00F00
03C00F00
03FFFF00
07FFFF80
07FFFF80
0F000780
0F000780
1E000380
1C0003C0
3C0003C0
780003C0
780003C0
F00001C0
F00001E0
ENDCHAR
STARTCHAR 1EA9
ENCODING 7849
SWIDTH 607 0
DWIDTH 27 0
BBX 28 40 3 0
BITMAP
00000FE0
00001FF0
00001C70
00000070
00000060
000000E0
000003C0
0003C700
0007C000
000FE000
001CF000
00387800
00F03800
01E03C00
00000000
00000000
007F0000
01FFC780
03FFE700
07F1EF00
0F807F00
1F003F00
1E003F00
3C001F00
3C001E00
78001E00
78001E00
78001E00
78001E00
78001E00
F0003C00
F0003C00
78007C00
78007C00
7800FC00
7C01BC00
3F073800
3FFF7800
1FFC7800
07F07800
ENDCHAR
STARTCHAR 1EAA
ENCODING 7850
SWIDTH 675 0
DWIDTH 30 0
BBX 27 47 2 0
BITMAP
0001F060
0003FDE0
0007FFC0
00060F80
00000000
00000000
00003C00
00007C00
0000FE00
0001EF00
0003C780
00078780
000F03C0
00000000
00000000
00000000
0000F000
0000F800
0001F800
0001F800
0003F800
0007B800
0007BC00
000F3C00
000F3C00
001E1C00
001C1C00
003C1E00
00381E00
00781E00
00700E00
00F00E00
01E00F00
01E00F00
03C00F00
03FFFF00
07FFFF80
07FFFF80
0F000780
0F000780
1E000380
1C0003C0
3C0003C0
780003C0
780003C0
F00001C0
F00001E0
ENDCHAR
STARTCHAR 1EAB
ENCODING 7851
SWIDTH 607 0
DWIDTH 27 0
BBX 25 39 3 0
BITMAP
001F8E00
003FFE00
0073FC00
0060F000
00000000
00000000
0003C000
0007C000
000FE000
001CF000
00387800
00F03800
01E03C00
00000000
00000000
007F0000
01FFC780
03FFE700
07F1EF00
0F807F00
1F003F00
1E003F00
3C001F00
3C001E00
78001E00
78001E00
78001E00
78001E00
78001E00
F0003C00
F0003C00
78007C00
78007C00
7800FC00
7C01BC00
3F073800
3FFF7800
1FFC7800
07F07800
ENDCHAR
STARTCHAR 1EAC
ENCODING 7852
SWIDTH 675 0
DWIDTH 30 0
BBX 27 51 2 -10
BITMAP
00003C00
00007C00
0000FE00
0001EF00
0003C780
00078780
000F03C0
00000000
00000000
00000000
0000F000
0000F800
0001F800
0001F800
0003F800
0007B800
0007BC00
000F3C00
000F3C00
001E1C00
001C1C00
003C1E00
00381E00
00781E00
00700E00
00F00E00
01E00F00
01E00F00
03C00F00
03FFFF00
07FFFF80
07FFFF80
0F000780
0F000780
1E000380
1C0003C0
3C0003C0
780003C0
780003C0
F00001C0
F00001E0
00000000
00000000
00000000
00000000
00000000
001C0000
003C0000
007C0000
007C0000
00380000
ENDCHAR
STARTCHAR 1EAD
ENCODING 7853
SWIDTH 607 0
DWIDTH 27 0
BBX 25 43 3 -10
BITMAP
0003C000
0007C000
000FE000
001CF000
00387800
00F03800
01E03C00
00000000
00000000
007F0000
01FFC780
03FFE700
07F1EF00
0F807F00
1F003F00
1E003F00
3C001F00
3C001E00
78001E00
78001E00
78001E00
78001E00
78001E00
F0003C00
F0003C00
78007C00
78007C00
7800FC00
7C01BC00
3F073800
3FFF7800
1FFC7800
07F07800
00000000
00000000
00000000
00000000
00000000
00E00000
01F00000
01F00000
01E00000
01C00000
ENDCHAR
STARTCHAR 1EAE
ENCODING 7854
SWIDTH 675 0
DWIDTH 30 0
BBX 28 49 2 0
BITMAP
000000F0
000000E0
000001E0
000003C0
00000780
00000700
00000E00
00001C00
00000000
00000000
000701E0
000783C0
0003FF80
0001FE00
00000000
00000000
00000000
00000000
0000F000
0000F800
0001F800
0001F800
0003F800
0007B800
0007BC00
000F3C00
000F3C00
001E1C00
001C1C00
003C1E00
00381E00
00781E00
00700E00
00F00E00
01E00F00
01E00F00
03C00F00
03FFFF00
07FFFF80
07FFFF80
0F000780
0F000780
1E000380
1C0003C0
3C0003C0
780003C0
780003C0
F00001C0
F00001E0
ENDCHAR
STARTCHAR 1EAF
ENCODING 7855
SWIDTH 607 0
DWIDTH 27 0
BBX 25 41 3 0
BITMAP
00000F00
00001E00
00003C00
00003800
00007800
0000F000
0000E000
0001C000
00000000
00F00E00
00701C00
007CF800
003FF000
000FC000
00000000
00000000
00000000
007F0000
01FFC780
03FFE700
07F1EF00
0F807F00
1F003F00
1E003F00
3C001F00
3C001E00
78001E00
78001E00
78001E00
78001E00
78001E00
F0003C00
F0003C00
78007C00
78007C00
7800FC00
7C01BC00
3F073800
3FFF7800
1FFC7800
07F07800
ENDCHAR
STARTCHAR 1EB0
ENCODING 7856
SWIDTH 675 0
DWIDTH 30 0
BBX 27 49 2 0
BITMAP
0003E000
0001E000
0001E000
0000F000
0000F000
00007000
00007800
00003800
00000000
00000000
000701E0
000783C0
0003FF80
0001FE00
00000000
00000000
00000000
00000000
0000F000
0000F800
0001F800
0001F800
0003F800
0007B800
0007BC00
000F3C00
000F3C00
001E1C00
001C1C00
003C1E00
00381E00
00781E00
00700E00
00F00E00
01E00F00
01E00F00
03C00F00
03FFFF00
07FFFF80
07FFFF80
0F000780
0F000780
1E000380
1C0003C0
3C0003C0
780003C0
780003C0
F00001C0
F00001E0
ENDCHAR
STARTCHAR 1EB1
ENCODING 7857
SWIDTH 607 0
DWIDTH 27 0
BBX 25 41 3 0
BITMAP
003C0000
001E0000
001E0000
000F0000
000F0000
00070000
00078000
00038000
00000000
00F00E00
00701C00
007C7800
003FF000
000FC000
00000000
00000000
00000000
007F0000
01FFC780
03FFE700
07F1EF00
0F807F00
1F003F00
1E003F00
3C001F00
3C001E00
78001E00
78001E00
78001E00
78001E00
78001E00
F0003C00
F0003C00
78007C00
78007C00
7800FC00
7C01BC00
3F073800
3FFF7800
1FFC7800
07F07800
ENDCHAR
STARTCHAR 1EB2
ENCODING 7858
SWIDTH 675 0
DWIDTH 30 0
BBX 27 49 2 0
BITMAP
00001E00
00003F80
00007F80
0000E1C0
00000180
00000380
00000700
00001E00
00000000
00000000
000701E0
000783C0
0003FF80
0001FE00
00000000
00000000
00000000
00000000
0000F000
0000F800
0001F800
0001F800
0003F800
0007B800
0007BC00
000F3C00
000F3C00
001E1C00
001C1C00
003C1E00
00381E00
00781E00
00700E00
00F00E00
01E00F00
01E00F00
03C00F00
03FFFF00
07FFFF80
07FFFF80
0F000780
0F000780
1E000380
1C0003C0
3C0003C0
780003C0
780003C0
F00001C0
F00001E0
ENDCHAR
STARTCHAR 1EB3
ENCODING 7859
SWIDTH 607 0
DWIDTH 27 0
BBX 25 41 3 0
BITMAP
0003F000
0007F800
000F3800
000E1800
00003800
00003800
0000E000
0001C000
00000000
00F00E00
00701C00
007CF800
003FF000
000FC000
00000000
00000000
00000000
007F0000
01FFC780
03FFE700
07F1EF00
0F807F00
1F003F00
1E003F00
3C001F00
3C001E00
78001E00
78001E00
78001E00
78001E00
78001E00
F0003C00
F0003C00
78007C00
78007C00
7800FC00
7C01BC00
3F073800
3FFF7800
1FFC7800
07F07800
ENDCHAR
STARTCHAR 1EB4
ENCODING 7860
SWIDTH 675 0
DWIDTH 30 0
BBX 28 46 2 0
BITMAP
0001F870
0003FFE0
00039FC0
00070780
00000000
00000000
00000000
000701E0
000783C0
0003FF80
0001FE00
00000000
00000000
00000000
00000000
0000F000
0000F800
0001F800
0001F800
0003F800
0007B800
0007BC00
000F3C00
000F3C00
001E1C00
001C1C00
003C1E00
00381E00
00781E00
00700E00
00F00E00
01E00F00
01E00F00
03C00F00
03FFFF00
07FFFF80
07FFFF80
0F000780
0F000780
1E000380
1C0003C0
3C0003C0
780003C0
780003C0
F00001C0
F00001E0
ENDCHAR
STARTCHAR 1EB5
ENCODING 7861
SWIDTH 607 0
DWIDTH 27 0
BBX 25 39 3 0
BITMAP
000F0700
001FC600
003FFE00
0070FC00
00602000
00000000
00000000
00E00E00
00701C00
007CF800
003FF000
000FC000
00000000
00000000
00000000
007F0000
01FFC780
03FFE700
07F1EF00
0F807F00
1F003F00
1E003F00
3C001F00
3C001E00
78001E00
78001E00
78001E00
78001E00
78001E00
F0003C00
F0003C00
78007C00
78007C00
7800FC00
7C01BC00
3F073800
3FFF7800
1FFC7800
07F07800
ENDCHAR
STARTCHAR 1EB6
ENCODING 7862
SWIDTH 675 0
DWIDTH 30 0
BBX 27 49 2 -10
BITMAP
000701E0
000783C0
0003FF80
0001FE00
00000000
00000000
00000000
00000000
0000F000
0000F800
0001F800
0001F800
0003F800
0007B800
0007BC00
000F3C00
000F3C00
001E1C00
001C1C00
003C1E00
00381E00
00781E00
00700E00
00F00E00
01E00F00
01E00F00
03C00F00
03FFFF00
07FFFF80
07FFFF80
0F000780
0F000780
1E000380
1C0003C0
3C0003C0
780003C0
780003C0
F00001C0
F00001E0
00000000
00000000
00000000
00000000
00000000
001C0000
003C0000
007C0000
007C0000
00380000
ENDCHAR
STARTCHAR 1EB7
ENCODING 7863
SWIDTH 607 0
DWIDTH 27 0
BBX 25 42 3 -10
BITMAP
00F00E00
00701C00
007CF800
003FF000
000FC000
00000000
00000000
00000000
007F0000
01FFC780
03FFE700
07F1EF00
0F807F00
1F003F00
1E003F00
3C001F00
3C001E00
78001E00
78001E00
78001E00
78001E00
78001E00
F0003C00
F0003C00
78007C00
78007C00
7800FC00
7C01BC00
3F073800
3FFF7800
1FFC7800
07F07800
00000000
00000000
00000000
00000000
00000000
00E00000
01F00000
01F00000
01E00000
01C00000
ENDCHAR
STARTCHAR 1EB8
ENCODING 7864
SWIDTH 562 0
DWIDTH 25 0
BBX 25 41 3 -10
BITMAP
07FFFF80
07FFFF80
07FFFF00
07800000
07800000
07800000
0F000000
0F000000
0F000000
0F000000
0F000000
0F000000
1E000000
1E000000
1FFFF000
1FFFF000
1FFFF000
1E000000
3C000000
3C000000
3C000000
3C000000
3C000000
38000000
78000000
78000000
78000000
78000000
7FFFF000
7FFFF000
FFFFF000
00000000
00000000
00000000
00000000
00000000
01E00000
03E00000
03E00000
03E00000
01C00000
ENDCHAR
STARTCHAR 1EB9
ENCODING 7865
SWIDTH 562 0
DWIDTH 25 0
BBX 21 34 4 -10
BITMAP
007FC0
03FFE0
07FFF0
0F80F8
1E0078
3C0038
380038
780038
700078
F000F0
FFFFF0
FFFFC0
FFFF80
E00000
E00000
E00000
F00000
F000F0
F001E0
7803C0
7E0FC0
3FFF80
1FFE00
07F800
000000
000000
000000
000000
000000
00E000
01F000
01F000
01F000
00C000
ENDCHAR
STARTCHAR 1EBA
ENCODING 7866
SWIDTH 562 0
DWIDTH 25 0
BBX 25 42 3 0
BITMAP
0003F000
0007F800
000E3800
00003800
00003800
00007000
0001E000
0003C000
00000000
00000000
00000000
07FFFF80
07FFFF80
07FFFF00
07800000
07800000
07800000
0F000000
0F000000
0F000000
0F000000
0F000000
0F000000
1E000000
1E000000
1FFFF000
1FFFF000
1FFFF000
1E000000
3C000000
3C000000
3C000000
3C000000
3C000000
38000000
78000000
78000000
78000000
78000000
7FFFF000
7FFFF000
FFFFF000
ENDCHAR
STARTCHAR 1EBB
ENCODING 7867
SWIDTH 562 0
DWIDTH 25 0
BBX 21 35 4 0
BITMAP
000780
001FE0
001FE0
0038E0
0000E0
0000E0
0001C0
000700
000000
000000
000000
007FC0
03FFE0
07FFF0
0F80F8
1E0078
3C0038
380038
780038
700078
F000F0
FFFFF0
FFFFC0
FFFF80
E00000
E00000
E00000
F00000
F000F0
F001E0
7803C0
7E0FC0
3FFF80
1FFE00
07F800
ENDCHAR
STARTCHAR 1EBC
ENCODING 7868
SWIDTH 562 0
DWIDTH 25 0
BBX 25 40 3 0
BITMAP
001F0700
003FFE00
007BFE00
0070F800
00000000
00000000
00000000
00000000
00000000
07FFFF80
07FFFF80
07FFFF00
07800000
07800000
07800000
0F000000
0F000000
0F000000
0F000000
0F000000
0F000000
1E000000
1E000000
1FFFF000
1FFFF000
1FFFF000
1E000000
3C000000
3C000000
3C000000
3C000000
3C000000
38000000
78000000
78000000
78000000
78000000
7FFFF000
7FFFF000
FFFFF000
ENDCHAR
STARTCHAR 1EBD
ENCODING 7869
SWIDTH 562 0
DWIDTH 25 0
BBX 22 32 4 0
BITMAP
007E1C
00FFF8
01E7F0
01C1E0
000000
000000
000000
000000
007FC0
03FFE0
07FFF0
0F80F8
1E0078
3C0038
380038
780038
700078
F000F0
FFFFF0
FFFFC0
FFFF80
E00000
E00000
E00000
F00000
F000F0
F001E0
7803C0
7E0FC0
3FFF80
1FFE00
07F800
ENDCHAR
STARTCHAR 1EBE
ENCODING 7870
SWIDTH 562 0
DWIDTH 25 0
BBX 31 48 3 0
BITMAP
0000001E
0000001E
0000003C
00000078
00000070
000000E0
000001C0
0001C3C0
0003E000
0007F000
000F7800
001E3800
003C3C00
00701E00
00000000
00000000
00000000
07FFFF80
07FFFF80
07FFFF00
07800000
07800000
07800000
0F000000
0F000000
0F000000
0F000000
0F000000
0F000000
1E000000
1E000000
1FFFF000
1FFFF000
1FFFF000
1E000000
3C000000
3C000000
3C000000
3C000000
3C000000
38000000
78000000
78000000
78000000
78000000
7FFFF000
7FFFF000
FFFFF000
ENDCHAR
STARTCHAR 1EBF
ENCODING 7871
SWIDTH 562 0
DWIDTH 25 0
BBX 29 40 4 0
BITMAP
00000078
00000070
000000F0
000001E0
000003C0
00000380
00000700
00078E00
000FC000
001FC000
0039E000
0070F000
00E07000
03C07800
00000000
00000000
007FC000
03FFE000
07FFF000
0F80F800
1E007800
3C003800
38003800
78003800
70007800
F000F000
FFFFF000
FFFFC000
FFFF8000
E0000000
E0000000
E0000000
F0000000
F000F000
F001E000
7803C000
7E0FC000
3FFF8000
1FFE0000
07F80000
ENDCHAR
STARTCHAR 1EC0
ENCODING 7872
SWIDTH 562 0
DWIDTH 25 0
BBX 25 48 3 0
BITMAP
00003C00
00003C00
00001E00
00001E00
00000E00
00000F00
00000700
0001C780
0003E000
0007F000
000F7800
001E3800
003C3C00
00701E00
00000000
00000000
00000000
07FFFF80
07FFFF80
07FFFF00
07800000
07800000
07800000
0F000000
0F000000
0F000000
0F000000
0F000000
0F000000
1E000000
1E000000
1FFFF000
1FFFF000
1FFFF000
1E000000
3C000000
3C000000
3C000000
3C000000
3C000000
38000000
78000000
78000000
78000000
78000000
7FFFF000
7FFFF000
FFFFF000
ENDCHAR
STARTCHAR 1EC1
ENCODING 7873
SWIDTH 562 0
DWIDTH 25 0
BBX 23 40 4 0
BITMAP
0000F0
000070
000078
000038
00003C
00001C
00001C
00078E
000F80
001FC0
0039E0
0070F0
01E070
03C078
000000
000000
007FC0
03FFE0
07FFF0
0F80F8
1E0078
3C0038
380038
780038
700078
F000F0
FFFFF0
FFFFC0
FFFF80
E00000
E00000
E00000
F00000
F000F0
F001E0
7803C0
7E0FC0
3FFF80
1FFE00
07F800
ENDCHAR
STARTCHAR 1EC2
ENCODING 7874
SWIDTH 562 0
DWIDTH 25 0
BBX 29 48 3 0
BITMAP
000003E0
000007F0
00000E78
00001C38
00000038
00000070
000000E0
0001C380
0003E000
0007F000
000F7800
001E3800
003C3C00
00701E00
00000000
00000000
00000000
07FFFF80
07FFFF80
07FFFF00
07800000
07800000
07800000
0F000000
0F000000
0F000000
0F000000
0F000000
0F000000
1E000000
1E000000
1FFFF000
1FFFF000
1FFFF000
1E000000
3C000000
3C000000
3C000000
3C000000
3C000000
38000000
78000000
78000000
78000000
78000000
7FFFF000
7FFFF000
FFFFF000
ENDCHAR
STARTCHAR 1EC3
ENCODING 7875
SWIDTH 562 0
DWIDTH 25 0
BBX 27 40 4 0
BITMAP
00001FC0
00003FE0
000038E0
000000E0
000000E0
000001C0
00000780
00078E00
000FC000
001FC000
0039E000
0070F000
00E07000
03C07800
00000000
00000000
007FC000
03FFE000
07FFF000
0F80F800
1E007800
3C003800
38003800
78003800
70007800
F000F000
FFFFF000
FFFFC000
FFFF8000
E0000000
E0000000
E0000000
F0000000
F000F000
F001E000
7803C000
7E0FC000
3FFF8000
1FFE0000
07F80000
ENDCHAR
STARTCHAR 1EC4
ENCODING 7876
SWIDTH 562 0
DWIDTH 25 0
BBX 25 47 3 0
BITMAP
000F8300
001FEF00
003FFE00
00307C00
00000000
00000000
0001C000
0003E000
0007F000
000F7800
001E3800
003C3C00
00701E00
00000000
00000000
00000000
07FFFF80
07FFFF80
07FFFF00
07800000
07800000
07800000
0F000000
0F000000
0F000000
0F000000
0F000000
0F000000
1E000000
1E000000
1FFFF000
1FFFF000
1FFFF000
1E000000
3C000000
3C000000
3C000000
3C000000
3C000000
38000000
78000000
78000000
78000000
78000000
7FFFF000
7FFFF000
FFFFF000
ENDCHAR
STARTCHAR 1EC5
ENCODING 7877
SWIDTH 562 0
DWIDTH 25 0
BBX 22 39 4 0
BITMAP
003F0C
007FFC
00E7F8
00C1F0
000000
000000
000780
000FC0
001FC0
0039E0
0070F0
00E070
03C078
000000
000000
007FC0
03FFE0
07FFF0
0F80F8
1E0078
3C0038
380038
780038
700078
F000F0
FFFFF0
FFFFC0
FFFF80
E00000
E00000
E00000
F00000
F000F0
F001E0
7803C0
7E0FC0
3FFF80
1FFE00
07F800
ENDCHAR
STARTCHAR 1EC6
ENCODING 7878
SWIDTH 562 0
DWIDTH 25 0
BBX 25 51 3 -10
BITMAP
0001C000
0003E000
0007F000
000F7800
001E3800
003C3C00
00701E00
00000000
00000000
00000000
07FFFF80
07FFFF80
07FFFF00
07800000
07800000
07800000
0F000000
0F000000
0F000000
0F000000
0F000000
0F000000
1E000000
1E000000
1FFFF000
1FFFF000
1FFFF000
1E000000
3C000000
3C000000
3C000000
3C000000
3C000000
38000000
78000000
78000000
78000000
78000000
7FFFF000
7FFFF000
FFFFF000
00000000
00000000
00000000
00000000
00000000
01E00000
03E00000
03E00000
03E00000
01C00000
ENDCHAR
STARTCHAR 1EC7
ENCODING 7879
SWIDTH 562 0
DWIDTH 25 0
BBX 21 43 4 -10
BITMAP
000780
000FC0
001FC0
0039E0
0070F0
00E070
03C078
000000
000000
007FC0
03FFE0
07FFF0
0F80F8
1E0078
3C0038
380038
780038
700078
F000F0
FFFFF0
FFFFC0
FFFF80
E00000
E00000
E00000
F00000
F000F0
F001E0
7803C0
7E0FC0
3FFF80
1FFE00
07F800
000000
000000
000000
000000
000000
00E000
01F000
01F000
01F000
00C000
ENDCHAR
STARTCHAR 1EC8
ENCODING 7880
SWIDTH 225 0
DWIDTH 10 0
BBX 13 42 4 0
BITMAP
07F0
0FF8
0E38
0038
0030
00F0
01C0
0380
0000
0000
0000
0780
0F00
0F00
0F00
0F00
0F00
0F00
1E00
1E00
1E00
1E00
1E00
1C00
3C00
3C00
3C00
3C00
3C00
3800
7800
7800
7800
7800
7800
7000
F000
F000
F000
F000
F000
E000
ENDCHAR
STARTCHAR 1EC9
ENCODING 7881
SWIDTH 247 0
DWIDTH 11 0
BBX 12 35 4 0
BITMAP
0780
0FE0
1FF0
3870
0070
00E0
01C0
0780
0000
0000
0000
0000
1E00
1E00
1E00
1E00
1E00
1C00
3C00
3C00
3C00
3C00
3C00
3800
7800
7800
7800
7800
7800
7000
F000
F000
F000
F000
F000
ENDCHAR
STARTCHAR 1ECA
ENCODING 7882
SWIDTH 225 0
DWIDTH 10 0
BBX 11 41 2 -10
BITMAP
01E0
03C0
03C0
03C0
03C0
03C0
03C0
0780
0780
0780
0780
0780
0700
0F00
0F00
0F00
0F00
0F00
0E00
1E00
1E00
1E00
1E00
1E00
1C00
3C00
3C00
3C00
3C00
3C00
3800
0000
0000
0000
0000
0000
7000
F800
F800
F000
6000
ENDCHAR
STARTCHAR 1ECB
ENCODING 7883
SWIDTH 247 0
DWIDTH 11 0
BBX 11 43 2 -10
BITMAP
00C0
01E0
03E0
03E0
01C0
0000
0000
0000
0000
0000
0780
0780
0780
0780
0780
0700
0F00
0F00
0F00
0F00
0F00
0E00
1E00
1E00
1E00
1E00
1E00
1C00
3C00
3C00
3C00
3C00
3C00
0000
0000
0000
0000
0000
7000
F800
F800
F000
6000
ENDCHAR
STARTCHAR 1ECC
ENCODING 7884
SWIDTH 720 0
DWIDTH 32 0
BBX 28 42 5 -10
BITMAP
0003F000
001FFE00
007FFF00
01FFFF80
03F00FC0
07C007E0
0F8003E0
1F0001F0
1E0001F0
3E0000F0
3C0000F0
780000F0
780000F0
780000F0
F00000F0
F00000F0
F00000F0
F00000F0
F00001F0
F00001E0
F00001E0
F00003E0
F00003C0
F00007C0
F8000F80
F8001F00
7C003F00
7E007E00
3FC3F800
1FFFF000
0FFFE000
03FF0000
00000000
00000000
00000000
00000000
00000000
00700000
00F80000
00F80000
00F00000
00E00000
ENDCHAR
STARTCHAR 1ECD
ENCODING 7885
SWIDTH 562 0
DWIDTH 25 0
BBX 22 34 4 -10
BITMAP
007F00
01FFC0
07FFE0
0FC3F0
1F00F8
3E0078
3C0078
78003C
78003C
F0003C
F0003C
F0003C
E0003C
E00038
E00078
E00078
F000F0
F000F0
F001E0
F803C0
7E0F80
3FFF00
1FFE00
0FF800
000000
000000
000000
000000
000000
038000
07C000
07C000
07C000
030000
ENDCHAR
STARTCHAR 1ECE
ENCODING 7886
SWIDTH 720 0
DWIDTH 32 0
BBX 28 42 5 0
BITMAP
0001FC00
0003FC00
00078E00
00000E00
00001C00
00003C00
00007000
0000E000
00000000
00000000
0003F000
001FFE00
007FFF00
01FFFF80
03F00FC0
07C007E0
0F8003E0
1F0001F0
1E0001F0
3E0000F0
3C0000F0
780000F0
780000F0
780000F0
F00000F0
F00000F0
F00000F0
F00000F0
F00001F0
F00001E0
F00001E0
F00003E0
F00003C0
F00007C0
F8000F80
F8001F00
7C003F00
7E007E00
3FC3F800
1FFFF000
0FFFE000
03FF0000
ENDCHAR
STARTCHAR 1ECF
ENCODING 7887
SWIDTH 562 0
DWIDTH 25 0
BBX 22 35 4 0
BITMAP
000780
001FC0
003FE0
0070E0
0000E0
0001C0
000380
000F00
000000
000000
000000
007F00
01FFC0
07FFE0
0FC3F0
1F00F8
3E0078
3C0078
78003C
78003C
F0003C
F0003C
F0003C
E0003C
E00038
E00078
E00078
F000F0
F000F0
F001E0
F803C0
7E0F80
3FFF00
1FFE00
0FF800
ENDCHAR
STARTCHAR 1ED0
ENCODING 7888
SWIDTH 720 0
DWIDTH 32 0
BBX 33 48 5 0
BITMAP
0000000780
0000000F00
0000001E00
0000001C00
0000003C00
0000007800
0000007000
000070E000
0001F80000
0003F80000
0007BC0000
000F1E0000
001E0F0000
003C0F0000
0000000000
0000000000
0003F00000
001FFE0000
007FFF0000
01FFFF8000
03F00FC000
07C007E000
0F8003E000
1F0001F000
1E0001F000
3E0000F000
3C0000F000
780000F000
780000F000
780000F000
F00000F000
F00000F000
F00000F000
F00000F000
F00001F000
F00001E000
F00001E000
F00003E000
F00003C000
F00007C000
F8000F8000
F8001F0000
7C003F0000
7E007E0000
3FC3F80000
1FFFF00000
0FFFE00000
03FF000000
ENDCHAR
STARTCHAR 1ED1
ENCODING 7889
SWIDTH 562 0
DWIDTH 25 0
BBX 29 40 4 0
BITMAP
00000078
000000F0
000001E0
000003C0
00000380
00000700
00000F00
000F0E00
001F8000
003FC000
0079C000
00F1E000
01E0F000
03C07800
00000000
00000000
007F0000
01FFC000
07FFE000
0FC3F000
1F00F800
3E007800
3C007800
78003C00
78003C00
F0003C00
F0003C00
F0003C00
E0003C00
E0003800
E0007800
E0007800
F000F000
F000F000
F001E000
F803C000
7E0F8000
3FFF0000
1FFE0000
0FF80000
ENDCHAR
STARTCHAR 1ED2
ENCODING 7890
SWIDTH 720 0
DWIDTH 32 0
BBX 28 48 5 0
BITMAP
00001E00
00000F00
00000F00
00000700
00000780
00000380
000003C0
0000F1C0
0001F800
0003F800
0007BC00
000F1E00
001E0F00
003C0F00
00000000
00000000
0003F000
001FFE00
007FFF00
01FFFF80
03F00FC0
07C007E0
0F8003E0
1F0001F0
1E0001F0
3E0000F0
3C0000F0
780000F0
780000F0
780000F0
F00000F0
F00000F0
F00000F0
F00000F0
F00001F0
F00001E0
F00001E0
F00003E0
F00003C0
F00007C0
F8000F80
F8001F00
7C003F00
7E007E00
3FC3F800
1FFFF000
0FFFE000
03FF0000
ENDCHAR
STARTCHAR 1ED3
ENCODING 7891
SWIDTH 562 0
DWIDTH 25 0
BBX 22 40 4 0
BITMAP
0001E0
0000F0
0000F0
000078
000078
000038
00003C
000F1C
001F80
003FC0
0079C0
00F1E0
01E0F0
03C078
000000
000000
007F00
01FFC0
07FFE0
0FC3F0
1F00F8
3E0078
3C0078
78003C
78003C
F0003C
F0003C
F0003C
E0003C
E00038
E00078
E00078
F000F0
F000F0
F001E0
F803C0
7E0F80
3FFF00
1FFE00
0FF800
ENDCHAR
STARTCHAR 1ED4
ENCODING 7892
SWIDTH 720 0
DWIDTH 32 0
BBX 30 48 5 0
BITMAP
000001F8
000003FC
000007BC
0000071C
0000001C
00000038
00000070
000070E0
0001F800
0003F800
0007BC00
000F1E00
001E0F00
003C0F00
00000000
00000000
0003F000
001FFE00
007FFF00
01FFFF80
03F00FC0
07C007E0
0F8003E0
1F0001F0
1E0001F0
3E0000F0
3C0000F0
780000F0
780000F0
780000F0
F00000F0
F00000F0
F00000F0
F00000F0
F00001F0
F00001E0
F00001E0
F00003E0
F00003C0
F00007C0
F8000F80
F8001F00
7C003F00
7E007E00
3FC3F800
1FFFF000
0FFFE000
03FF0000
ENDCHAR
STARTCHAR 1ED5
ENCODING 7893
SWIDTH 562 0
DWIDTH 25 0
BBX 26 40 4 0
BITMAP
00001F80
00003FC0
000071C0
000001C0
000001C0
00000380
00000700
000F1E00
001F8000
003FC000
0079C000
00F1E000
01E0F000
03C07800
00000000
00000000
007F0000
01FFC000
07FFE000
0FC3F000
1F00F800
3E007800
3C007800
78003C00
78003C00
F0003C00
F0003C00
F0003C00
E0003C00
E0003800
E0007800
E0007800
F000F000
F000F000
F001E000
F803C000
7E0F8000
3FFF0000
1FFE0000
0FF80000
ENDCHAR
STARTCHAR 1ED6
ENCODING 7894
SWIDTH 720 0
DWIDTH 32 0
BBX 28 47 5 0
BITMAP
0003C1C0
000FF380
000FFF80
001C3E00
00000000
00000000
00007000
0001F800
0003F800
0007BC00
000F1E00
001E0F00
003C0F00
00000000
00000000
0003F000
001FFE00
007FFF00
01FFFF80
03F00FC0
07C007E0
0F8003E0
1F0001F0
1E0001F0
3E0000F0
3C0000F0
780000F0
780000F0
780000F0
F00000F0
F00000F0
F00000F0
F00000F0
F00001F0
F00001E0
F00001E0
F00003E0
F00003C0
F00007C0
F8000F80
F8001F00
7C003F00
7E007E00
3FC3F800
1FFFF000
0FFFE000
03FF0000
ENDCHAR
STARTCHAR 1ED7
ENCODING 7895
SWIDTH 562 0
DWIDTH 25 0
BBX 22 39 4 0
BITMAP
007E1C
00FFF8
01E7F0
01C1E0
000000
000000
000F00
001F80
003FC0
0079C0
00F1E0
01E0F0
03C078
000000
000000
007F00
01FFC0
07FFE0
0FC3F0
1F00F8
3E0078
3C0078
78003C
78003C
F0003C
F0003C
F0003C
E0003C
E00038
E00078
E00078
F000F0
F000F0
F001E0
F803C0
7E0F80
3FFF00
1FFE00
0FF800
ENDCHAR
STARTCHAR 1ED8
ENCODING 7896
SWIDTH 720 0
DWIDTH 32 0
BBX 28 51 5 -10
BITMAP
00007000
0001F800
0003F800
0007BC00
000F1E00
001E0F00
003C0F00
00000000
00000000
0003F000
001FFE00
007FFF00
01FFFF80
03F00FC0
07C007E0
0F8003E0
1F0001F0
1E0001F0
3E0000F0
3C0000F0
780000F0
780000F0
780000F0
F00000F0
F00000F0
F00000F0
F00000F0
F00001F0
F00001E0
F00001E0
F00003E0
F00003C0
F00007C0
F8000F80
F8001F00
7C003F00
7E007E00
3FC3F800
1FFFF000
0FFFE000
03FF0000
00000000
00000000
00000000
00000000
00000000
00700000
00F80000
00F80000
00F00000
00E00000
ENDCHAR
STARTCHAR 1ED9
ENCODING 7897
SWIDTH 562 0
DWIDTH 25 0
BBX 22 43 4 -10
BITMAP
000F00
001F80
003FC0
0079C0
00F1E0
01E0F0
03C078
000000
000000
007F00
01FFC0
07FFE0
0FC3F0
1F00F8
3E0078
3C0078
78003C
78003C
F0003C
F0003C
F0003C
E0003C
E00038
E00078
E00078
F000F0
F000F0
F001E0
F803C0
7E0F80
3FFF00
1FFE00
0FF800
000000
000000
000000
000000
000000
038000
07C000
07C000
07C000
030000
ENDCHAR
STARTCHAR 1EDA
ENCODING 7898
SWIDTH 720 0
DWIDTH 32 0
BBX 29 42 5 0
BITMAP
00000780
00000F00
00000E00
00001C00
00003C00
00007800
00007000
0000E038
00000038
00000070
0003F0F0
001FFFE0
007FFFC0
01FFFF80
03F00FC0
07C007E0
0F8003E0
1F0001F0
1E0001F0
3E0000F0
3C0000F0
780000F0
780000F0
780000F0
F00000F0
F00000F0
F00000F0
F00000F0
F00001F0
F00001E0
F00001E0
F00003E0
F00003C0
F00007C0
F8000F80
F8001F00
7C003F00
7E007E00
3FC3F800
1FFFF000
0FFFE000
03FF0000
ENDCHAR
STARTCHAR 1EDB
ENCODING 7899
SWIDTH 585 0
DWIDTH 26 0
BBX 25 35 4 0
BITMAP
00007C00
00007800
0000F000
0001E000
0001C000
00038000
00070000
000F0380
00000380
00000780
00000700
007F1F00
01FFFE00
07FFF800
0FC3F000
1F00F800
3E007800
3C007800
78003C00
78003C00
F0003C00
F0003C00
F0003C00
E0003C00
E0003800
E0007800
E0007800
F000F000
F000F000
F001E000
F803C000
7E0F8000
3FFF0000
1FFE0000
0FF80000
ENDCHAR
STARTCHAR 1EDC
ENCODING 7900
SWIDTH 720 0
DWIDTH 32 0
BBX 29 42 5 0
BITMAP
000F0000
000F0000
00078000
00078000
00038000
0003C000
0001C000
0001E038
00000038
00000070
0003F0F0
001FFFE0
007FFFC0
01FFFF80
03F00FC0
07C007E0
0F8003E0
1F0001F0
1E0001F0
3E0000F0
3C0000F0
780000F0
780000F0
780000F0
F00000F0
F00000F0
F00000F0
F00000F0
F00001F0
F00001E0
F00001E0
F00003E0
F00003C0
F00007C0
F8000F80
F8001F00
7C003F00
7E007E00
3FC3F800
1FFFF000
0FFFE000
03FF0000
ENDCHAR
STARTCHAR 1EDD
ENCODING 7901
SWIDTH 585 0
DWIDTH 26 0
BBX 25 35 4 0
BITMAP
00F00000
00F00000
00700000
00780000
00380000
003C0000
001C0000
001C0380
00000380
00000780
00000700
007F1F00
01FFFE00
07FFF800
0FC3F000
1F00F800
3E007800
3C007800
78003C00
78003C00
F0003C00
F0003C00
F0003C00
E0003C00
E0003800
E0007800
E0007800
F000F000
F000F000
F001E000
F803C000
7E0F8000
3FFF0000
1FFE0000
0FF80000
ENDCHAR
STARTCHAR 1EDE
ENCODING 7902
SWIDTH 720 0
DWIDTH 32 0
BBX 29 42 5 0
BITMAP
0001FC00
0003FC00
00078E00
00000E00
00001C00
00003C00
00007000
0000E038
00000038
00000070
0003F0F0
001FFFE0
007FFFC0
01FFFF80
03F00FC0
07C007E0
0F8003E0
1F0001F0
1E0001F0
3E0000F0
3C0000F0
780000F0
780000F0
780000F0
F00000F0
F00000F0
F00000F0
F00000F0
F00001F0
F00001E0
F00001E0
F00003E0
F00003C0
F00007C0
F8000F80
F8001F00
7C003F00
7E007E00
3FC3F800
1FFFF000
0FFFE000
03FF0000
ENDCHAR
STARTCHAR 1EDF
ENCODING 7903
SWIDTH 585 0
DWIDTH 26 0
BBX 25 35 4 0
BITMAP
00078000
001FC000
003FE000
0070E000
0000E000
0001C000
00038000
000F0380
00000380
00000780
00000700
007F1F00
01FFFE00
07FFF800
0FC3F000
1F00F800
3E007800
3C007800
78003C00
78003C00
F0003C00
F0003C00
F0003C00
E0003C00
E0003800
E0007800
E0007800
F000F000
F000F000
F001E000
F803C000
7E0F8000
3FFF0000
1FFE0000
0FF80000
ENDCHAR
STARTCHAR 1EE0
ENCODING 7904
SWIDTH 720 0
DWIDTH 32 0
BBX 29 40 5 0
BITMAP
0007C180
000FF780
001FFF00
00383E00
00000000
00000038
00000038
00000070
0003F0F0
001FFFE0
007FFFC0
01FFFF80
03F00FC0
07C007E0
0F8003E0
1F0001F0
1E0001F0
3E0000F0
3C0000F0
780000F0
780000F0
780000F0
F00000F0
F00000F0
F00000F0
F00000F0
F00001F0
F00001E0
F00001E0
F00003E0
F00003C0
F00007C0
F8000F80
F8001F00
7C003F00
7E007E00
3FC3F800
1FFFF000
0FFFE000
03FF0000
ENDCHAR
STARTCHAR 1EE1
ENCODING 7905
SWIDTH 585 0
DWIDTH 26 0
BBX 25 32 4 0
BITMAP
00FC3800
01FFF000
01CFF000
0383C000
00000380
00000380
00000780
00000700
007F1F00
01FFFE00
07FFF800
0FC3F000
1F00F800
3E007800
3C007800
78003C00
78003C00
F0003C00
F0003C00
F0003C00
E0003C00
E0003800
E0007800
E0007800
F000F000
F000F000
F001E000
F803C000
7E0F8000
3FFF0000
1FFE0000
0FF80000
ENDCHAR
STARTCHAR 1EE2
ENCODING 7906
SWIDTH 720 0
DWIDTH 32 0
BBX 29 45 5 -10
BITMAP
00000038
00000038
00000070
0003F0F0
001FFFE0
007FFFC0
01FFFF80
03F00FC0
07C007E0
0F8003E0
1F0001F0
1E0001F0
3E0000F0
3C0000F0
780000F0
780000F0
780000F0
F00000F0
F00000F0
F00000F0
F00000F0
F00001F0
F00001E0
F00001E0
F00003E0
F00003C0
F00007C0
F8000F80
F8001F00
7C003F00
7E007E00
3FC3F800
1FFFF000
0FFFE000
03FF0000
00000000
00000000
00000000
00000000
00000000
00700000
00F80000
00F80000
00F00000
00E00000
ENDCHAR
STARTCHAR 1EE3
ENCODING 7907
SWIDTH 585 0
DWIDTH 26 0
BBX 25 38 4 -10
BITMAP
00000380
00000380
00000780
00000700
007F1F00
01FFFE00
07FFF800
0FC3F000
1F00F800
3E007800
3C007800
78003C00
78003C00
F0003C00
F0003C00
F0003C00
E0003C00
E0003800
E0007800
E0007800
F000F000
F000F000
F001E000
F803C000
7E0F8000
3FFF0000
1FFE0000
0FF80000
00000000
00000000
00000000
00000000
00000000
03800000
07C00000
07C00000
07C00000
03000000
ENDCHAR
STARTCHAR 1EE4
ENCODING 7908
SWIDTH 675 0
DWIDTH 30 0
BBX 28 41 5 -10
BITMAP
1E0000F0
1E0000F0
1E0000E0
1C0001E0
3C0001E0
3C0001E0
3C0001E0
3C0001E0
3C0001C0
380003C0
780003C0
780003C0
780003C0
78000380
70000780
70000780
F0000780
F0000780
F0000780
F0000F00
F0000F00
F0000F00
F0001E00
F0001E00
F8003C00
78007C00
7C00F800
7F87F000
3FFFE000
1FFFC000
07FF0000
00000000
00000000
00000000
00000000
00000000
00E00000
01F00000
03F00000
01E00000
01C00000
ENDCHAR
STARTCHAR 1EE5
ENCODING 7909
SWIDTH 585 0
DWIDTH 26 0
BBX 22 33 5 -10
BITMAP
3C001C
3C003C
3C003C
38003C
78003C
78003C
780038
780078
780078
F00078
F00078
F00078
F00070
F000F0
F000F0
F000F0
F001F0
F003F0
F807E0
FC0FE0
7FFDE0
3FF1E0
1FE1E0
000000
000000
000000
000000
000000
078000
0F8000
0F8000
0F8000
070000
ENDCHAR
STARTCHAR 1EE6
ENCODING 7910
SWIDTH 675 0
DWIDTH 30 0
BBX 28 42 5 0
BITMAP
0003F800
0007F800
000F1C00
00001C00
00003800
00007000
0000E000
0001C000
00000000
00000000
00000000
1E0000F0
1E0000F0
1E0000E0
1C0001E0
3C0001E0
3C0001E0
3C0001E0
3C0001E0
3C0001C0
380003C0
780003C0
780003C0
780003C0
78000380
70000780
70000780
F0000780
F0000780
F0000780
F0000F00
F0000F00
F0000F00
F0001E00
F0001E00
F8003C00
78007C00
7C00F800
7F87F000
3FFFE000
1FFFC000
07FF0000
ENDCHAR
STARTCHAR 1EE7
ENCODING 7911
SWIDTH 585 0
DWIDTH 26 0
BBX 22 35 5 0
BITMAP
000F00
003F80
007FC0
00E1C0
0001C0
000380
000700
000E00
001000
000000
000000
000000
3C001C
3C003C
3C003C
38003C
78003C
78003C
780038
780078
780078
F00078
F00078
F00078
F00070
F000F0
F000F0
F000F0
F001F0
F003F0
F807E0
FC0FE0
7FFDE0
3FF1E0
1FE1E0
ENDCHAR
STARTCHAR 1EE8
ENCODING 7912
SWIDTH 675 0
DWIDTH 30 0
BBX 33 42 5 0
BITMAP
00000F0000
00001E0000
00003C0000
0000380000
0000700000
0000F00000
0000E00000
0001C00380
0000000380
0000000380
0000000700
1E0000FF00
1E0000FC00
1E0000E000
1C0001E000
3C0001E000
3C0001E000
3C0001E000
3C0001C000
3C0001C000
380003C000
780003C000
780003C000
780003C000
7800038000
7000078000
7000078000
F000078000
F000078000
F000078000
F0000F0000
F0000F0000
F0000F0000
F0001E0000
F0001E0000
F8003C0000
78007C0000
7C00F80000
7F87F00000
3FFFE00000
1FFFC00000
07FF000000
ENDCHAR
STARTCHAR 1EE9
ENCODING 7913
SWIDTH 585 0
DWIDTH 26 0
BBX 28 35 5 0
BITMAP
00007800
0000F000
0001E000
0003C000
00038000
00070000
000F0000
000E0070
00100070
00000070
000000E0
000001E0
3C001FC0
3C003E00
3C003C00
38003C00
78003C00
78003C00
78003800
78007800
78007800
F0007800
F0007800
F0007800
F0007000
F000F000
F000F000
F000F000
F001F000
F003F000
F807E000
FC0FE000
7FFDE000
3FF1E000
1FE1E000
ENDCHAR
STARTCHAR 1EEA
ENCODING 7914
SWIDTH 675 0
DWIDTH 30 0
BBX 33 42 5 0
BITMAP
001E000000
001E000000
000F000000
000F000000
0007000000
0007800000
0003800000
0003800380
0000000380
0000000380
0000000700
1E0000FF00
1E0000FC00
1E0000E000
1C0001E000
3C0001E000
3C0001E000
3C0001E000
3C0001C000
3C0001C000
380003C000
780003C000
780003C000
780003C000
7800038000
7000078000
7000078000
F000078000
F000078000
F000078000
F0000F0000
F0000F0000
F0000F0000
F0001E0000
F0001E0000
F8003C0000
78007C0000
7C00F80000
7F87F00000
3FFFE00000
1FFFC00000
07FF000000
ENDCHAR
STARTCHAR 1EEB
ENCODING 7915
SWIDTH 585 0
DWIDTH 26 0
BBX 28 35 5 0
BITMAP
07800000
03C00000
03C00000
01E00000
01E00000
00E00000
00F00000
00700070
00000070
00000070
000000E0
000001E0
3C001FC0
3C003E00
3C003C00
38003C00
78003C00
78003C00
78003800
78007800
78007800
F0007800
F0007800
F0007800
F0007000
F000F000
F000F000
F000F000
F001F000
F003F000
F807E000
FC0FE000
7FFDE000
3FF1E000
1FE1E000
ENDCHAR
STARTCHAR 1EEC
ENCODING 7916
SWIDTH 675 0
DWIDTH 30 0
BBX 33 42 5 0
BITMAP
0003F80000
0007F80000
000F1C0000
00001C0000
0000380000
0000700000
0000E00000
0001C00380
0000000380
0000000380
0000000700
1E0000FF00
1E0000FC00
1E0000E000
1C0001E000
3C0001E000
3C0001E000
3C0001E000
3C0001C000
3C0001C000
380003C000
780003C000
780003C000
780003C000
7800038000
7000078000
7000078000
F000078000
F000078000
F000078000
F0000F0000
F0000F0000
F0000F0000
F0001E0000
F0001E0000
F8003C0000
78007C0000
7C00F80000
7F87F00000
3FFFE00000
1FFFC00000
07FF000000
ENDCHAR
STARTCHAR 1EED
ENCODING 7917
SWIDTH 585 0
DWIDTH 26 0
BBX 28 35 5 0
BITMAP
000F0000
003F8000
007FC000
00E1C000
0001C000
00038000
00070000
000E0070
00100070
00000070
000000E0
000001E0
3C001FC0
3C003E00
3C003C00
38003C00
78003C00
78003C00
78003800
78007800
78007800
F0007800
F0007800
F0007800
F0007000
F000F000
F000F000
F000F000
F001F000
F003F000
F807E000
FC0FE000
7FFDE000
3FF1E000
1FE1E000
ENDCHAR
STARTCHAR 1EEE
ENCODING 7918
SWIDTH 675 0
DWIDTH 30 0
BBX 33 40 5 0
BITMAP
000F870000
001FEF0000
003FFE0000
00707C0000
0000000000
0000000380
0000000380
0000000380
0000000700
1E0000FF00
1E0000FC00
1E0000E000
1C0001E000
3C0001E000
3C0001E000
3C0001E000
3C0001C000
3C0001C000
380003C000
780003C000
780003C000
780003C000
7800038000
7000078000
7000078000
F000078000
F000078000
F000078000
F0000F0000
F0000F0000
F0000F0000
F0001E0000
F0001E0000
F8003C0000
78007C0000
7C00F80000
7F87F00000
3FFFE00000
1FFFC00000
07FF000000
ENDCHAR
STARTCHAR 1EEF
ENCODING 7919
SWIDTH 585 0
DWIDTH 26 0
BBX 28 32 5 0
BITMAP
01FC7000
01FFF000
039FE000
07078000
00000070
00000070
00000070
000000E0
000001E0
3C001FC0
3C003E00
3C003C00
38003C00
78003C00
78003C00
78003800
78007800
78007800
F0007800
F0007800
F0007800
F0007000
F000F000
F000F000
F000F000
F001F000
F003F000
F807E000
FC0FE000
7FFDE000
3FF1E000
1FE1E000
ENDCHAR
STARTCHAR 1EF0
ENCODING 7920
SWIDTH 675 0
DWIDTH 30 0
BBX 33 45 5 -10
BITMAP
0000000380
0000000380
0000000380
0000000700
1E0000FF00
1E0000FC00
1E0000E000
1C0001E000
3C0001E000
3C0001E000
3C0001E000
3C0001C000
3C0001C000
380003C000
780003C000
780003C000
780003C000
7800038000
7000078000
7000078000
F000078000
F000078000
F000078000
F0000F0000
F0000F0000
F0000F0000
F0001E0000
F0001E0000
F8003C0000
78007C0000
7C00F80000
7F87F00000
3FFFE00000
1FFFC00000
07FF000000
0000000000
0000000000
0000000000
0000000000
0000000000
00E0000000
01F0000000
03F0000000
01E0000000
01C0000000
ENDCHAR
STARTCHAR 1EF1
ENCODING 7921
SWIDTH 585 0
DWIDTH 26 0
BBX 28 38 5 -10
BITMAP
00000070
00000070
00000070
000000E0
000001E0
3C001FC0
3C003E00
3C003C00
38003C00
78003C00
78003C00
78003800
78007800
78007800
F0007800
F0007800
F0007800
F0007000
F000F000
F000F000
F000F000
F001F000
F003F000
F807E000
FC0FE000
7FFDE000
3FF1E000
1FE1E000
00000000
00000000
00000000
00000000
00000000
0E000000
1F000000
1F000000
1E000000
0C000000
ENDCHAR
STARTCHAR 1EF2
ENCODING 7922
SWIDTH 607 0
DWIDTH 27 0
BBX 23 42 7 0
BITMAP
01E000
00E000
00F000
007000
007800
003800
003800
001C00
000000
000000
000000
F0001E
F0001E
78003C
780078
780078
3C00F0
3C01E0
3C01E0
1E03C0
1E0780
1E0780
0F0F00
0F1E00
0F1E00
07BC00
07F800
07F800
03F000
03E000
03E000
03C000
03C000
03C000
03C000
03C000
038000
078000
078000
078000
078000
078000
ENDCHAR
STARTCHAR 1EF3
ENCODING 7923
SWIDTH 472 0
DWIDTH 21 0
BBX 25 44 0 -9
BITMAP
003C0000
003C0000
001E0000
001E0000
000E0000
000F0000
00070000
00078000
00000000
00000000
00000000
00000000
07000780
07800780
07800F00
07800F00
07801E00
03801E00
03C03C00
03C03800
03C07800
03C0F000
01C0F000
01E1E000
01E1C000
01E3C000
00E38000
00E78000
00F70000
00FF0000
00FE0000
007C0000
007C0000
00780000
00780000
00F00000
00E00000
01E00000
03C00000
03C00000
0F800000
FF000000
FE000000
F8000000
ENDCHAR
STARTCHAR 1EF4
ENCODING 7924
SWIDTH 607 0
DWIDTH 27 0
BBX 23 41 7 -10
BITMAP
F0001E
F0001E
78003C
780078
780078
3C00F0
3C01E0
3C01E0
1E03C0
1E0780
1E0780
0F0F00
0F1E00
0F1E00
07BC00
07F800
07F800
03F000
03E000
03E000
03C000
03C000
03C000
03C000
03C000
038000
078000
078000
078000
078000
078000
000000
000000
000000
000000
000000
0E0000
1F0000
1F0000
1E0000
0C0000
ENDCHAR
STARTCHAR 1EF5
ENCODING 7925
SWIDTH 472 0
DWIDTH 21 0
BBX 25 33 0 -10
BITMAP
07000780
07800780
07800F00
07800F00
07801E00
03801E00
03C03C00
03C03800
03C07800
03C0F000
01C0F000
01E1E000
01E1C000
01E3C000
00E38000
00E78000
00F70000
00FF0000
00FE0000
007C0000
007C0000
00780000
00780000
00F00000
00E00000
01E00000
03C00000
03C00000
0F81C000
FF03E000
FE03E000
F803C000
00038000
ENDCHAR
STARTCHAR 1EF6
ENCODING 7926
SWIDTH 607 0
DWIDTH 27 0
BBX 23 42 7 0
BITMAP
003F80
007FC0
0071C0
0001C0
0001C0
000380
000E00
001C00
000000
000000
000000
F0001E
F0001E
78003C
780078
780078
3C00F0
3C01E0
3C01E0
1E03C0
1E0780
1E0780
0F0F00
0F1E00
0F1E00
07BC00
07F800
07F800
03F000
03E000
03E000
03C000
03C000
03C000
03C000
03C000
038000
078000
078000
078000
078000
078000
ENDCHAR
STARTCHAR 1EF7
ENCODING 7927
SWIDTH 472 0
DWIDTH 21 0
BBX 25 44 0 -9
BITMAP
0001E000
0007F000
000FF800
000E3800
00003800
00003000
0000E000
0001C000
00020000
00000000
00000000
00000000
07000780
07800780
07800F00
07800F00
07801E00
03801E00
03C03C00
03C03800
03C07800
03C0F000
01C0F000
01E1E000
01E1C000
01E3C000
00E38000
00E78000
00F70000
00FF0000
00FE0000
007C0000
007C0000
00780000
00780000
00F00000
00E00000
01E00000
03C00000
03C00000
0F800000
FF000000
FE000000
F8000000
ENDCHAR
STARTCHAR 1EF8
ENCODING 7928
SWIDTH 607 0
DWIDTH 27 0
BBX 23 40 7 0
BITMAP
00F830
01FEF0
03FFE0
0307C0
000000
000000
000000
000000
000000
F0001E
F0001E
78003C
780078
780078
3C00F0
3C01E0
3C01E0
1E03C0
1E0780
1E0780
0F0F00
0F1E00
0F1E00
07BC00
07F800
07F800
03F000
03E000
03E000
03C000
03C000
03C000
03C000
03C000
038000
078000
078000
078000
078000
078000
ENDCHAR
STARTCHAR 1EF9
ENCODING 7929
SWIDTH 472 0
DWIDTH 21 0
BBX 25 41 0 -9
BITMAP
001F8600
003FFE00
0071FC00
00607800
00000000
00000000
00000000
00000000
00000000
07000780
07800780
07800F00
07800F00
07801E00
03801E00
03C03C00
03C03800
03C07800
03C0F000
01C0F000
01E1E000
01E1C000
01E3C000
00E38000
00E78000
00F70000
00FF0000
00FE0000
007C0000
007C0000
00780000
00780000
00F00000
00E00000
01E00000
03C00000
03C00000
0F800000
FF000000
FE000000
F8000000
ENDCHAR
STARTCHAR 2013
ENCODING 8211
SWIDTH 630 0
DWIDTH 28 0
BBX 19 3 7 12
BITMAP
7FFFE0
FFFFE0
FFFFE0
ENDCHAR
STARTCHAR 2014
ENCODING 8212
SWIDTH 765 0
DWIDTH 34 0
BBX 25 3 7 12
BITMAP
7FFFFF80
FFFFFF00
FFFFFF00
ENDCHAR
STARTCHAR 2018
ENCODING 8216
SWIDTH 270 0
DWIDTH 12 0
BBX 6 11 6 22
BITMAP
04
1C
30
60
60
C0
E0
F8
FC
F8
F8
ENDCHAR
STARTCHAR 2019
ENCODING 8217
SWIDTH 247 0
DWIDTH 11 0
BBX 7 11 3 22
BITMAP
3C
7C
7E
7C
3C
0C
0C
18
18
70
C0
ENDCHAR
STARTCHAR 201A
ENCODING 8218
SWIDTH 292 0
DWIDTH 13 0
BBX 7 11 3 -6
BITMAP
7C
7E
7E
7C
1C
0C
0C
18
30
E0
C0
ENDCHAR
STARTCHAR 201C
ENCODING 8220
SWIDTH 540 0
DWIDTH 24 0
BBX 15 11 7 22
BITMAP
0602
0C06
381C
3018
6030
6030
7038
7C3E
FC7E
FC7E
783C
ENDCHAR
STARTCHAR 201D
ENCODING 8221
SWIDTH 562 0
DWIDTH 25 0
BBX 15 11 8 22
BITMAP
783C
FC7E
FC7E
FC7E
783E
180C
180C
180C
3018
E070
8040
ENDCHAR
STARTCHAR 201E
ENCODING 8222
SWIDTH 517 0
DWIDTH 23 0
BBX 16 11 3 -7
BITMAP
3C1F
7C1F
7C1F
7C1F
0C07
0C03
0C06
1806
300C
E038
C020
ENDCHAR
STARTCHAR 2020
ENCODING 8224
SWIDTH 562 0
DWIDTH 25 0
BBX 17 41 8 -10
BITMAP
00F000
00F000
00E000
00E000
00E000
01E000
01E000
01E000
FFFF80
FFFF80
FFFF80
03C000
03C000
03C000
038000
038000
038000
078000
078000
078000
070000
070000
070000
0F0000
0F0000
0F0000
0E0000
0E0000
0E0000
1E0000
1E0000
1C0000
1C0000
1C0000
1C0000
3C0000
3C0000
380000
380000
380000
380000
ENDCHAR
STARTCHAR 2021
ENCODING 8225
SWIDTH 562 0
DWIDTH 25 0
BBX 21 41 4 -10
BITMAP
000F00
000F00
000E00
000E00
000E00
001E00
001E00
001E00
0FFFF8
0FFFF8
0FFFF8
003C00
003C00
003C00
003800
003800
003800
007800
007800
007000
007000
007000
007000
00F000
00F000
00E000
00E000
00E000
00E000
01E000
FFFFC0
FFFFC0
FFFF80
FFFF80
01C000
03C000
03C000
038000
038000
038000
038000
ENDCHAR
STARTCHAR 2022
ENCODING 8226
SWIDTH 382 0
DWIDTH 17 0
BBX 8 9 7 12
BITMAP
3E
7F
FF
FF
FF
FF
FE
FC
38
ENDCHAR
STARTCHAR 2026
ENCODING 8230
SWIDTH 787 0
DWIDTH 35 0
BBX 28 5 4 0
BITMAP
700600E0
F80F01F0
F81F03F0
F81F03E0
F00E01E0
ENDCHAR
STARTCHAR 2030
ENCODING 8240
SWIDTH 1170 0
DWIDTH 52 0
BBX 47 32 6 0
BITMAP
020000000000
1FC000E00000
3FE001C00000
70E003C00000
E07003800000
E07007000000
E0700F000000
E0701E000000
E0E01C000000
E0E038000000
E1C078000000
7F8070000000
7F00E0000000
0001E0000000
0001C0000000
000380000000
000780000000
000700000000
000E00000000
001E00000000
001C03F803F8
003807FC07FC
00780E1C0E1C
00F01C0C1C0C
00E01C0C1C0E
01E0380C1C0E
03C0381C380C
0380381C381C
0700381C1C1C
0F001C381C38
0E001FF01FF0
1C000FE00FE0
ENDCHAR
STARTCHAR 2039
ENCODING 8249
SWIDTH 360 0
DWIDTH 16 0
BBX 13 18 5 5
BITMAP
0078
01E0
03C0
0780
0F00
1E00
3C00
7800
F000
F000
F000
7800
3C00
1E00
1F00
0F00
0780
03C0
ENDCHAR
STARTCHAR 203A
ENCODING 8250
SWIDTH 360 0
DWIDTH 16 0
BBX 14 18 3 5
BITMAP
1E00
0F00
0780
03C0
03E0
01E0
00F0
0078
007C
0078
00F0
01E0
03C0
0780
0F00
1E00
7C00
F000
ENDCHAR
STARTCHAR 2044
ENCODING 8260
SWIDTH 472 0
DWIDTH 21 0
BBX 26 31 0 0
BITMAP
000001C0
00000380
00000780
00000F00
00000E00
00001C00
00003C00
00007800
0000F000
0000E000
0001E000
0003C000
00078000
00070000
000E0000
001E0000
003C0000
00380000
00700000
00F00000
01E00000
01C00000
03800000
07800000
0F000000
1E000000
1C000000
3C000000
78000000
F0000000
E0000000
ENDCHAR
STARTCHAR 2070
ENCODING 8304
SWIDTH 315 0
DWIDTH 14 0
BBX 13 17 5 17
BITMAP
03C0
0FF0
1E70
3838
3838
7038
7038
6038
E038
E038
E038
E070
E070
60E0
71E0
7FC0
3F00
ENDCHAR
STARTCHAR 2074
ENCODING 8308
SWIDTH 315 0
DWIDTH 14 0
BBX 12 17 5 17
BITMAP
0070
00F0
01F0
0360
0760
0E60
0CE0
18E0
30E0
60C0
E0C0
FFF0
FFF0
01C0
01C0
0180
0180
ENDCHAR
STARTCHAR 2075
ENCODING 8309
SWIDTH 292 0
DWIDTH 13 0
BBX 13 17 5 17
BITMAP
3FF8
3FF0
3FF0
3000
3000
7000
6FC0
7FE0
7070
0070
0070
0070
C060
E0E0
F3C0
7F80
1E00
ENDCHAR
STARTCHAR 2076
ENCODING 8310
SWIDTH 292 0
DWIDTH 13 0
BBX 12 17 5 17
BITMAP
01C0
0380
0700
0600
0C00
1800
3B80
3FE0
78E0
6070
E070
C070
C060
E0E0
E1C0
7F80
3F00
ENDCHAR
STARTCHAR 2077
ENCODING 8311
SWIDTH 292 0
DWIDTH 13 0
BBX 12 17 6 17
BITMAP
7FF0
7FE0
7FE0
00E0
00C0
01C0
0180
0300
0700
0600
0E00
1C00
1800
3800
3000
6000
E000
ENDCHAR
STARTCHAR 2078
ENCODING 8312
SWIDTH 315 0
DWIDTH 14 0
BBX 13 17 5 17
BITMAP
03C0
0FF0
1C70
3838
3038
3038
3070
3DE0
1FC0
38E0
6070
E070
C070
E070
E0E0
FFC0
7F80
ENDCHAR
STARTCHAR 2079
ENCODING 8313
SWIDTH 292 0
DWIDTH 13 0
BBX 12 17 6 17
BITMAP
0780
1FC0
38E0
7070
E070
C070
C070
E0E0
E0E0
7FC0
3FC0
0380
0300
0600
0E00
1C00
3800
ENDCHAR
STARTCHAR 2080
ENCODING 8320
SWIDTH 315 0
DWIDTH 14 0
BBX 13 17 0 -11
BITMAP
03E0
0FF0
1E78
1C38
3838
7018
7018
7018
6038
6038
E038
E030
6070
70E0
71E0
3FC0
1F00
ENDCHAR
STARTCHAR 2081
ENCODING 8321
SWIDTH 247 0
DWIDTH 11 0
BBX 10 16 -1 -11
BITMAP
0780
0F80
1F80
3B00
3300
0300
0700
0700
0600
0600
0600
0600
0E00
0E00
7FC0
FF80
ENDCHAR
STARTCHAR 2082
ENCODING 8322
SWIDTH 292 0
DWIDTH 13 0
BBX 13 17 -1 -11
BITMAP
01E0
07F0
0F78
1C18
1818
3818
0038
0030
0070
01E0
0380
0700
0E00
3C00
7000
7FF0
FFF0
ENDCHAR
STARTCHAR 2083
ENCODING 8323
SWIDTH 315 0
DWIDTH 14 0
BBX 13 17 0 -11
BITMAP
07E0
0FF0
1C78
3838
0038
0038
0070
07E0
07C0
01E0
0070
0070
0070
E060
F1E0
7FC0
3F00
ENDCHAR
STARTCHAR 2084
ENCODING 8324
SWIDTH 315 0
DWIDTH 14 0
BBX 13 16 0 -11
BITMAP
00F0
01F0
01F0
0360
0660
0C60
1CE0
38E0
30E0
60C0
FFF8
FFF0
01C0
01C0
01C0
0180
ENDCHAR
STARTCHAR 2085
ENCODING 8325
SWIDTH 292 0
DWIDTH 13 0
BBX 13 17 0 -11
BITMAP
1FF8
1FF8
3FF0
3000
3000
3000
77C0
6FE0
7070
7070
0070
0070
0070
E0E0
F1C0
7FC0
3F00
ENDCHAR
STARTCHAR 2086
ENCODING 8326
SWIDTH 292 0
DWIDTH 13 0
BBX 12 17 0 -11
BITMAP
01C0
0180
0300
0700
0E00
1C00
1980
3FE0
78E0
7070
E070
E070
E070
E060
F0E0
7FC0
3F00
ENDCHAR
STARTCHAR 2087
ENCODING 8327
SWIDTH 292 0
DWIDTH 13 0
BBX 12 16 1 -11
BITMAP
7FF0
7FF0
0060
00E0
00C0
0180
0380
0300
0700
0E00
0C00
1C00
1800
3800
7000
E000
ENDCHAR
STARTCHAR 2088
ENCODING 8328
SWIDTH 315 0
DWIDTH 14 0
BBX 13 17 0 -11
BITMAP
03E0
0FF0
1C38
3838
3038
3038
3870
1FE0
1FC0
38E0
6070
E030
E030
E070
F0E0
7FC0
3F80
ENDCHAR
STARTCHAR 2089
ENCODING 8329
SWIDTH 292 0
DWIDTH 13 0
BBX 12 17 1 -11
BITMAP
0780
1FE0
3CE0
7070
6070
E070
E070
E060
E0E0
7FE0
3EC0
0180
0300
0700
0E00
1C00
3800
ENDCHAR
STARTCHAR 20AB
ENCODING 8363
SWIDTH 585 0
DWIDTH 26 0
BBX 27 36 4 0
BITMAP
00000780
00000780
00000780
0003FFE0
0003FFE0
00000F00
00000F00
00000F00
00FF0F00
03FF8F00
07FFCE00
0FC0FE00
1F007E00
3E003E00
3C003E00
78003E00
78003C00
78003C00
70003C00
F0003C00
F0003C00
F0007C00
7800F800
7801F800
7C03F800
3F9F7800
3FFE7800
1FFC7800
03E0F000
00000000
00000000
00000000
00000000
FFFFF000
FFFFF000
FFFFE000
ENDCHAR
STARTCHAR 20AC
ENCODING 8364
SWIDTH 697 0
DWIDTH 31 0
BBX 30 31 3 0
BITMAP
0000FE00
0003FF80
000FFFC0
001FFFE0
003E01F0
007800F8
00F00078
01E00078
01E0003C
03C0003C
03C0003C
7FFFC000
7FFFC000
7FFFC000
0F000000
0F000000
0F000000
0F000000
FFFF8000
FFFF8000
0F000000
0F0000F0
0F0001E0
0F0001E0
0F8003C0
07800780
07C00F80
03F87F00
01FFFC00
00FFF800
003FE000
ENDCHAR
STARTCHAR 2122
ENCODING 8482
SWIDTH 382 0
DWIDTH 17 0
BBX 15 7 6 24
BITMAP
FDCE
31CE
31FE
3176
3374
2324
630C
ENDCHAR
STARTCHAR 215B
ENCODING 8539
SWIDTH 877 0
DWIDTH 39 0
BBX 35 31 5 0
BITMAP
0700001E00
1F00003C00
3F00003800
7600007800
660000F000
4E0001E000
0E0001C000
0E00038000
0E00078000
0C000F0000
0C000E0000
1C001C0000
1C003C0000
FF80780000
FF80F00000
0000E00F00
0001E03FC0
0003C07BC0
000780E0E0
000700E0E0
000E00E0C0
001E00E1C0
003C007F80
0038007F80
007001C1C0
00F00181C0
01E00381C0
01C00381C0
038003C380
078001FF00
0F0000FE00
ENDCHAR
STARTCHAR 215C
ENCODING 8540
SWIDTH 855 0
DWIDTH 38 0
BBX 33 31 5 0
BITMAP
0FE0003C00
1FF0003800
3C70007800
383000F000
003001E000
007001C000
01E0038000
07C0078000
07C00F0000
00E00E0000
00601C0000
E0E03C0000
E0E0780000
FFC0F00000
7F80E00000
3F01E03C00
0003C0FF00
000781E780
000701C380
000E038380
001E038380
003C018700
003801FE00
007001FE00
00F0038700
01E0070700
01C0060700
0380060700
0780070E00
0F0007FE00
1E0003F800
ENDCHAR
STARTCHAR 215D
ENCODING 8541
SWIDTH 877 0
DWIDTH 39 0
BBX 35 31 5 0
BITMAP
3FF0001E00
3FF0003C00
3000007800
3000007000
300000E000
77C001E000
7FE003C000
70E0038000
0060070000
00600F0000
00E01E0000
E0E01C0000
F1C0380000
7FC0780000
3F00F00000
0001E00F00
0001C03FC0
0003807BC0
000780E0E0
000F00E0E0
000E00E0C0
001C00E1C0
003C007F80
0078007F80
007001C1C0
00E00181C0
01E00381C0
03C00381C0
078003C380
070001FF00
0E0000FE00
ENDCHAR
STARTCHAR 215E
ENCODING 8542
SWIDTH 900 0
DWIDTH 40 0
BBX 34 31 6 0
BITMAP
7FE0003800
7FE0007800
7FE000F000
00E000E000
01C001C000
018003C000
0380078000
0700070000
06000E0000
0E001E0000
1C003C0000
1C00780000
3800700000
7000E00000
7001E00000
8003C01F00
0003807F80
000700F3C0
000F00E1C0
001E01C1C0
001C01C1C0
003800C380
007800FF00
00F000FF00
00E001C380
01C0038380
0380030380
0780038380
0F00038700
0E0003FF00
1C0001FC00
ENDCHAR
STARTCHAR 2212
ENCODING 8722
SWIDTH 585 0
DWIDTH 26 0
BBX 18 4 7 12
BITMAP
FFFFC0
FFFFC0
FFFFC0
FFFF80
ENDCHAR
STARTCHAR 2215
ENCODING 8725
SWIDTH 495 0
DWIDTH 22 0
BBX 23 31 3 0
BITMAP
00000E
00001E
00003C
000038
000078
0000F0
0000E0
0001E0
0003C0
000380
000780
000F00
000E00
001E00
003C00
003800
007800
00F000
00E000
01E000
03C000
038000
078000
0F0000
0E0000
1E0000
3C0000
380000
780000
F00000
E00000
ENDCHAR
STARTCHAR 2248
ENCODING 8776
SWIDTH 540 0
DWIDTH 24 0
BBX 19 14 5 7
BITMAP
07C0E0
0FF1E0
1FFFC0
383F80
380600
000000
000000
000000
000000
0701C0
1FC380
3FFF80
70FF00
E07C00
ENDCHAR
STARTCHAR 2260
ENCODING 8800
SWIDTH 720 0
DWIDTH 32 0
BBX 23 26 7 1
BITMAP
00001E
00003C
000038
000070
0000F0
0001E0
0001C0
3FFFFE
3FFFFE
3FFFFE
000E00
001C00
003C00
007800
007000
00E000
FFFFF8
FFFFF8
FFFFF8
FFFFF8
0F0000
1E0000
1C0000
380000
780000
F00000
ENDCHAR
STARTCHAR 2264
ENCODING 8804
SWIDTH 585 0
DWIDTH 26 0
BBX 22 27 5 0
BITMAP
000004
000018
000078
0001F8
0007E0
001F80
007E00
03F800
0FE000
0F8000
0F0000
1FC000
07F000
01F800
00FE00
003F80
000FE0
0007E0
0001C0
000040
000000
000000
000000
000000
FFFFE0
FFFFE0
FFFFC0
ENDCHAR
STARTCHAR 2265
ENCODING 8805
SWIDTH 607 0
DWIDTH 27 0
BBX 20 27 5 0
BITMAP
040000
070000
078000
07E000
03F800
00FC00
003F00
001FC0
0007F0
0001F0
0001F0
0007F0
001FC0
007F00
01FC00
07F000
1FC000
3F0000
3C0000
300000
000000
000000
000000
000000
FFFFE0
FFFFE0
FFFFC0
ENDCHAR
ENDFONT
